<?xml version="1.0" encoding="UTF-8"?><svg xmlns="http://www.w3.org/2000/svg" xmlns:xlink="http://www.w3.org/1999/xlink" viewBox="0 0 100 100"><defs><style>.c{fill:url(#b);}.d{fill:none;stroke:#6b3434;stroke-linecap:round;stroke-linejoin:round;stroke-width:4px;}.e{isolation:isolate;}.f{fill:#fff;opacity:.5;}.f,.g{mix-blend-mode:overlay;}.g{fill:#020202;opacity:.3;}</style><linearGradient id="b" x1="50" y1="22.28" x2="50" y2="87.48" gradientTransform="matrix(1, 0, 0, 1, 0, 0)" gradientUnits="userSpaceOnUse"><stop offset="0" stop-color="#e9635a"/><stop offset=".85" stop-color="#e53c3c"/></linearGradient></defs><g class="e"><g id="a"><g><path class="c" d="M56.66,87.25c6.82,1.05,13.74-1.53,18.08-6.89,.04-.05,.08-.11,.13-.16,4.75-5.94,8.54-14.65,10.4-23.91,1.94-9.62,0-18.87-5.33-25.37-4.5-5.5-11.3-8.65-18.64-8.65-2.38,0-4.69,.31-6.88,.93-1.45,.41-2.93,.61-4.42,.61s-2.98-.2-4.42-.61c-2.19-.62-4.5-.93-6.88-.93-7.34,0-14.13,3.15-18.64,8.65-5.32,6.5-7.27,15.75-5.33,25.37,1.6,7.93,4.72,15.74,8.59,21.44,.67,.99,1.35,1.9,2.02,2.71,4.35,5.32,11.27,7.83,18.07,6.77,1.9-.3,4.18-.55,6.47-.55,2.4,0,4.81,.26,6.8,.57Z"/><path class="g" d="M79.94,30.93c-.27-.33-.55-.65-.83-.96,.86,3.27,1.32,6.7,1.32,10.25,0,22.21-18,40.21-40.21,40.21-6.4,0-12.46-1.5-17.83-4.17,.31,.5,.62,1.01,.94,1.48,.67,.99,1.35,1.9,2.02,2.71,4.35,5.32,11.27,7.83,18.07,6.77,1.9-.3,4.18-.55,6.47-.55,2.4,0,4.81,.26,6.8,.57,6.82,1.05,13.74-1.53,18.08-6.89,.04-.05,.08-.11,.13-.16,4.75-5.94,8.54-14.65,10.4-23.91,1.94-9.62,0-18.87-5.33-25.37Z"/><path class="f" d="M19.87,54.7c-.45-2.97-.45-6.06,.15-9.12,.59-3.05,1.81-6.08,3.71-8.74,.92-1.36,2.79-1.7,4.12-.74,1.46,1.02,1.64,3.18,.39,4.43-1.67,1.69-2.98,3.83-3.84,6.22-.87,2.4-1.3,5.03-1.3,7.71-.02,1.98-2.91,2.18-3.22,.24h0Z"/><path class="d" d="M56.66,87.25c6.82,1.05,13.74-1.53,18.08-6.89,.04-.05,.08-.11,.13-.16,4.75-5.94,8.54-14.65,10.4-23.91,1.94-9.62,0-18.87-5.33-25.37-4.5-5.5-11.3-8.65-18.64-8.65-2.38,0-4.69,.31-6.88,.93-1.45,.41-2.93,.61-4.42,.61s-2.98-.2-4.42-.61c-2.19-.62-4.5-.93-6.88-.93-7.34,0-14.13,3.15-18.64,8.65-5.32,6.5-7.27,15.75-5.33,25.37,1.6,7.93,4.72,15.74,8.59,21.44,.67,.99,1.35,1.9,2.02,2.71,4.35,5.32,11.27,7.83,18.07,6.77,1.9-.3,4.18-.55,6.47-.55,2.4,0,4.81,.26,6.8,.57Z"/><path class="d" d="M40.64,30.88c5.58,4.05,13.13,4.05,18.71,0"/><line class="d" x1="50" y1="32.57" x2="50" y2="18.66"/></g></g></g></svg>