<?xml version="1.0" encoding="UTF-8"?><svg xmlns="http://www.w3.org/2000/svg" xmlns:xlink="http://www.w3.org/1999/xlink" viewBox="0 0 100 100"><defs><style>.cls-1,.cls-2{fill:none;}.cls-3{fill:url(#_称未設定グラデーション_698);}.cls-4{fill:url(#_称未設定グラデーション_696);}.cls-5{fill:url(#_称未設定グラデーション_693);}.cls-6{fill:#daf2a7;}.cls-2{stroke:#4c6847;stroke-linecap:round;stroke-linejoin:round;stroke-width:4px;}.cls-7{isolation:isolate;}.cls-8{fill:#020202;mix-blend-mode:overlay;opacity:.15;}</style><linearGradient id="_称未設定グラデーション_693" x1="50.89" y1="89.14" x2="50.89" y2="50.17" gradientTransform="matrix(1, 0, 0, 1, 0, 0)" gradientUnits="userSpaceOnUse"><stop offset="0" stop-color="#c3e872"/><stop offset="1" stop-color="#6cbf13"/></linearGradient><linearGradient id="_称未設定グラデーション_696" x1="61.58" y1="27.81" x2="61.58" y2="78.27" gradientTransform="matrix(1, 0, 0, 1, 0, 0)" gradientUnits="userSpaceOnUse"><stop offset=".01" stop-color="#c3e872"/><stop offset="1" stop-color="#6cbf13"/></linearGradient><linearGradient id="_称未設定グラデーション_698" x1="32.76" y1="20.73" x2="32.76" y2="69.67" gradientTransform="matrix(1, 0, 0, 1, 0, 0)" gradientUnits="userSpaceOnUse"><stop offset=".14" stop-color="#c3e872"/><stop offset="1" stop-color="#6cbf13"/></linearGradient></defs><g class="cls-7"><g id="_イヤー_1"><g><path class="cls-5" d="M89.09,51.48c.21,18.8-15.68,32.07-38.2,31.9-22.51,.17-38.4-13.1-38.2-31.9-.21-18.8,15.68-32.07,38.2-31.9,22.51-.17,38.4,13.1,38.2,31.9Z"/><path class="cls-6" d="M44.42,84.9c-8.69-2.18-12.96-10.69-11.27-19.15,.52-2.57,1.54-5.12,3.45-7.08,.29-.3,.77-.3,1.07-.01,.29,.28,.3,.74,.04,1.04-1.33,1.81-1.97,4.12-2.19,6.4-.74,6.92,2.94,13.68,9.98,15.23,2.42,.73,1.34,4.31-1.09,3.57h0Z"/><path class="cls-8" d="M77.74,27.8c3.49,4.89,5.4,10.81,5.33,17.41,.21,18.8-15.68,32.07-38.2,31.9-10.84,.08-20.14-2.96-26.85-8.22,6.44,9.05,18.26,14.6,32.87,14.49,22.51,.17,38.4-13.1,38.2-31.9,.11-9.75-4.12-18-11.35-23.68Z"/><path class="cls-2" d="M89.09,51.48c.21,18.8-15.68,32.07-38.2,31.9-22.51,.17-38.4-13.1-38.2-31.9-.21-18.8,15.68-32.07,38.2-31.9,22.51-.17,38.4,13.1,38.2,31.9Z"/><g><path class="cls-4" d="M35.9,21.72c4.55-1.43,9.63-2.18,15.11-2.14,22.51-.17,38.4,13.1,38.2,31.9,.19,16.92-12.66,29.36-31.65,31.55l-.53,.06c2.63-1.09,4.26-3.57,4.7-6.28,.44-2.7-.86-5.32-3.03-6.99-2.61-2-4.3-5.33-2.99-8.3-6.4-1.15-13.62-6.46-11-16.6-6.55-.1-14.51-9.33-8.81-23.2Z"/><path class="cls-8" d="M77.58,27.58c3.59,4.94,5.57,10.93,5.49,17.63,.15,13.66-8.21,24.4-21.42,29.18,.16,.78,.21,1.59,.07,2.41-.44,2.72-2.07,5.19-4.7,6.28l.53-.06c18.98-2.2,31.83-14.63,31.65-31.55,.11-9.88-4.23-18.22-11.63-23.9Z"/><path class="cls-6" d="M86.51,44.73c-1.14-2.6-2.64-5.05-4.53-7.23-2.31-2.64-5.31-4.9-8.9-5.68-1.03-.21-1.42,1.3-.42,1.61,2.97,.9,5.49,3.09,7.37,5.65,.44,.61,.85,1.24,1.23,1.89-3.78-1.53-8.16-1.64-11.78,.37-1.01,.61-.14,2.17,.91,1.63,4.22-1.94,10.36-.5,13.23,3.19,.99,2.98,1.46,6.13,1.42,9.27-2.25-1.72-5.31-2.29-8-1.38-.67,.19-.48,1.21,.21,1.15,1.89-.18,3.82,.24,5.23,1.47,1.02,.86,1.81,2.17,2.09,3.47-.12,2.75-.72,4.51-1.52,6.39-1.29,3.26,2.6,3.87,4.07,.7,2.67-5.81,2.59-13.69,.24-20.35l-.84-2.14Z"/><path class="cls-2" d="M35.9,21.72c4.55-1.43,9.63-2.18,15.11-2.14,22.51-.17,38.4,13.1,38.2,31.9,.19,16.92-12.66,29.36-31.65,31.55l-.53,.06c2.63-1.09,4.26-3.57,4.7-6.28,.44-2.7-.86-5.32-3.03-6.99-2.61-2-4.3-5.33-2.99-8.3-6.4-1.15-13.62-6.46-11-16.6-6.55-.1-14.51-9.33-8.81-23.2Z"/></g><path class="cls-3" d="M39.44,19.23c6.73-2.18,9.41-2.91,11.92-4.23,3.76,3.38,2.92,10.99-1.37,13.49,2.5,11.21-9.7,18.99-17.4,17.39,.7,3.01-1.02,7.67-5.16,10.22-3.67,2.27-6.34,5.93-6.75,10.23-.22,2.31,0,4.54,.66,6.11l-.13-.12c-6.04-5.57-9.51-13.2-9.41-22.04-.16-14.98,9.89-26.45,25.38-30.41h.05c.75-.19,1.49-.4,2.22-.64Z"/><g><path class="cls-6" d="M11.26,40.64c2.9-7.87,12.16-11.52,19.99-10.52,.57,.08,.98,.6,.9,1.18-.07,.56-.57,.95-1.13,.91-6.45-.4-14.39,3.12-16.22,9.57-.74,2.47-4.39,1.31-3.55-1.14h0Z"/><path class="cls-6" d="M10.79,58.02c-.02-5.96,4.36-11.29,10.42-11.52,.57-.03,1.06,.4,1.09,.97,.03,.54-.37,1.01-.89,1.08-4.59,.68-7.45,4.99-6.89,9.44,.08,2.59-3.77,2.63-3.73,.03h0Z"/><path class="cls-2" d="M39.44,19.23c6.73-2.18,9.41-2.91,11.92-4.23,3.76,3.38,2.92,10.99-1.37,13.49,2.5,11.21-9.7,18.99-17.4,17.39,.7,3.01-1.02,7.67-5.16,10.22-3.67,2.27-6.34,5.93-6.75,10.23-.22,2.31,0,4.54,.66,6.11l-.13-.12c-6.04-5.57-9.51-13.2-9.41-22.04-.16-14.98,9.89-26.45,25.38-30.41h.05c.75-.19,1.49-.4,2.22-.64Z"/></g></g><rect class="cls-1" width="100" height="100"/></g></g></svg>