<?xml version="1.0" encoding="UTF-8"?><svg xmlns="http://www.w3.org/2000/svg" xmlns:xlink="http://www.w3.org/1999/xlink" viewBox="0 0 100 100"><defs><style>.cls-1,.cls-2,.cls-3,.cls-4{fill:none;}.cls-5{fill:url(#_称未設定グラデーション_984);}.cls-2{stroke:#43703a;}.cls-2,.cls-3{stroke-width:4px;}.cls-2,.cls-3,.cls-4{stroke-linecap:round;stroke-linejoin:round;}.cls-3{stroke:#7c5221;}.cls-6{opacity:.2;}.cls-7{isolation:isolate;}.cls-8{fill:#020202;mix-blend-mode:overlay;opacity:.15;}.cls-4{stroke:#fff;stroke-width:3px;}</style><linearGradient id="_称未設定グラデーション_984" x1="20.02" y1="79.3" x2="57.95" y2="40.26" gradientTransform="matrix(1, 0, 0, 1, 0, 0)" gradientUnits="userSpaceOnUse"><stop offset=".17" stop-color="#fd7b33"/><stop offset="1" stop-color="#ed953c"/></linearGradient></defs><g class="cls-7"><g id="_イヤー_1"><g><path class="cls-2" d="M63.17,32.09c6.61-6.61,7.88-16.62,7.88-21.09"/><path class="cls-2" d="M61.11,12.87c2.81,2.59,6.06,8.32,6,13.39"/><path class="cls-2" d="M65.33,33.99c4.07-4.07,7.76-4.41,11.27-6.7s5.02-8.83,3.96-13.4"/><path class="cls-2" d="M66.39,36.24c4.86-2.92,11.06-.36,12.76,.61"/><path class="cls-2" d="M76.18,27.69c3.56-.53,3.71,3.54,11.26,5.91"/><path class="cls-2" d="M78.29,25.67c3.8-1.73,10.82-2.03,12.31-1.59"/><g><path class="cls-5" d="M62.57,34.04c-6.36-6.36-13.24-6.12-21.8,2.42-10.22,10.2-23.53,33.43-30.92,47.1-1.73,3.21,1.76,6.7,4.97,4.97,13.67-7.39,36.9-20.7,47.1-30.92,8.54-8.55,8.79-15.43,2.42-21.8l-1.78-1.78Z"/><path class="cls-8" d="M64.35,35.82l-1.78-1.78c-.56-.56-1.13-1.05-1.7-1.51,4.73,5.89,3.86,12.3-3.93,20.1-10.19,10.21-33.39,23.5-47.07,30.9l-.02,.04c-1.73,3.21,1.76,6.7,4.97,4.97,13.67-7.39,36.9-20.7,47.1-30.92,8.54-8.55,8.79-15.43,2.42-21.8Z"/><g class="cls-6"><line class="cls-4" x1="19.83" y1="68.95" x2="22.99" y2="72.11"/><line class="cls-4" x1="35.1" y1="65.38" x2="37.78" y2="68.06"/><line class="cls-4" x1="34.01" y1="47.38" x2="37.66" y2="51.03"/><line class="cls-4" x1="55.15" y1="52.16" x2="59.68" y2="56.68"/></g><path class="cls-3" d="M62.57,34.04c-6.36-6.36-13.24-6.12-21.8,2.42-10.22,10.2-23.53,33.43-30.92,47.1-1.73,3.21,1.76,6.7,4.97,4.97,13.67-7.39,36.9-20.7,47.1-30.92,8.54-8.55,8.79-15.43,2.42-21.8l-1.78-1.78Z"/></g></g><rect class="cls-1" width="100" height="100"/></g></g></svg>