<?xml version="1.0" encoding="UTF-8"?><svg xmlns="http://www.w3.org/2000/svg" xmlns:xlink="http://www.w3.org/1999/xlink" viewBox="0 0 100 100"><defs><style>.cls-1,.cls-2{fill:none;}.cls-3{fill:url(#_称未設定グラデーション_3);}.cls-4{fill:url(#_称未設定グラデーション_6);}.cls-5,.cls-6{fill:#fff;}.cls-7{fill:#020202;mix-blend-mode:overlay;opacity:.1;}.cls-2{stroke:#445641;stroke-linecap:round;stroke-linejoin:round;stroke-width:4px;}.cls-8,.cls-6{opacity:.3;}.cls-9{isolation:isolate;}</style><linearGradient id="_称未設定グラデーション_6" x1="25.91" y1="84.82" x2="71.65" y2="19.29" gradientTransform="matrix(1, 0, 0, 1, 0, 0)" gradientUnits="userSpaceOnUse"><stop offset=".16" stop-color="#007d2e"/><stop offset="1" stop-color="#53a93d"/></linearGradient><linearGradient id="_称未設定グラデーション_3" x1="69.8" y1="14.79" x2="70.91" y2="14.79" gradientTransform="matrix(1, 0, 0, 1, 0, 0)" gradientUnits="userSpaceOnUse"><stop offset="0" stop-color="#e5db5e"/><stop offset="1" stop-color="#c7cd47"/></linearGradient></defs><g class="cls-9"><g id="_イヤー_1"><g><g><path class="cls-4" d="M71.58,17.63c16.79,9.39-34.68,86.29-51.01,62.51h0c-5.99-10.62,7.32-18.87,14.56-23.76,22.89-13.38,17.07-33,30.8-38.88,1.81-.78,3.92-.84,5.65,.12Z"/><path class="cls-7" d="M22.97,72.97h0c-1-1.77-1.44-3.46-1.47-5.09-2.52,3.6-3.5,7.71-.93,12.26h0c13.5,19.66,51.02-29.51,54.12-52.43-7.69,24.02-39.58,62.94-51.72,45.27Z"/><line class="cls-3" x1="69.8" y1="16.89" x2="70.91" y2="12.68"/></g><path class="cls-2" d="M71.58,17.63c16.43,9.19-32.49,83.01-49.91,63.91-.79-.87-1.43-1.88-1.86-2.97-3.92-9.86,8.43-17.54,15.32-22.18,22.89-13.38,17.07-33,30.8-38.88,1.81-.78,3.92-.84,5.65,.12Z"/><line class="cls-2" x1="70.79" y1="16.86" x2="72.15" y2="12.72"/><circle class="cls-6" cx="26.55" cy="71.86" r="1.23"/><circle class="cls-6" cx="36.42" cy="73.08" r="1.23"/><circle class="cls-6" cx="43.62" cy="66.83" r="1.23"/><g class="cls-8"><circle class="cls-5" cx="35.38" cy="64.38" r="1.23"/></g><g class="cls-8"><circle class="cls-5" cx="44.01" cy="58.82" r="1.23"/></g><g class="cls-8"><circle class="cls-5" cx="51.33" cy="56.59" r="1.23"/></g><g class="cls-8"><circle class="cls-5" cx="58.74" cy="50.8" r="1.23"/></g><g class="cls-8"><circle class="cls-5" cx="55.68" cy="43.55" r="1.23"/></g><g class="cls-8"><circle class="cls-5" cx="63.76" cy="39.36" r="1.23"/></g><g class="cls-8"><circle class="cls-5" cx="61.46" cy="32.34" r="1.23"/></g><g class="cls-8"><circle class="cls-5" cx="67.45" cy="27.79" r="1.23"/></g></g><rect class="cls-1" width="100" height="100"/></g></g></svg>