<?xml version="1.0" encoding="UTF-8"?><svg xmlns="http://www.w3.org/2000/svg" xmlns:xlink="http://www.w3.org/1999/xlink" viewBox="0 0 100 100"><defs><style>.cls-1,.cls-2,.cls-3{fill:none;}.cls-4{fill:url(#_称未設定グラデーション_334);}.cls-2{stroke-width:3.77px;}.cls-2,.cls-3{stroke:#3b394f;stroke-linecap:round;stroke-linejoin:round;}.cls-3{stroke-width:4px;}.cls-5{isolation:isolate;}.cls-6{fill:#020202;opacity:.15;}.cls-6,.cls-7{mix-blend-mode:overlay;}.cls-8{fill:url(#_称未設定グラデーション_10);}.cls-7{fill:#fff;opacity:.5;}</style><linearGradient id="_称未設定グラデーション_10" x1="30.34" y1="78.48" x2="117.24" y2="-19.79" gradientTransform="matrix(1, 0, 0, 1, 0, 0)" gradientUnits="userSpaceOnUse"><stop offset=".11" stop-color="#5e5787"/><stop offset=".76" stop-color="#827da2"/></linearGradient><linearGradient id="_称未設定グラデーション_334" x1="66.37" y1="38" x2="85.42" y2="18.95" gradientTransform="matrix(1, 0, 0, 1, 0, 0)" gradientUnits="userSpaceOnUse"><stop offset=".4" stop-color="#413b6b"/><stop offset="1" stop-color="#5f5a80"/></linearGradient></defs><g class="cls-5"><g id="_イヤー_1"><g><g><path class="cls-8" d="M29.27,50.65c16.17-4.24,26.78-10.12,33.38-21.96,6.56-12.76,22.29-9.26,20.77,4.89-3.78,35-26.81,52.42-46.59,52.42-14.34,0-22.99-8.27-22.99-17.26s5.91-15.14,15.42-18.09Z"/><path class="cls-6" d="M36.83,79.2c-12.65,0-20.86-6.43-22.62-14.12-.23,1.16-.37,2.38-.37,3.66,0,9,8.65,17.26,22.99,17.26,19.78,0,42.81-17.42,46.59-52.42,.2-1.85,.1-3.51-.23-4.98-4.37,33.77-26.92,50.6-46.36,50.6Z"/><path class="cls-3" d="M29.27,50.65c16.17-4.24,26.78-10.12,33.38-21.96,6.56-12.76,22.29-9.26,20.77,4.89-3.78,35-26.81,52.42-46.59,52.42-14.34,0-22.99-8.27-22.99-17.26s5.91-15.14,15.42-18.09Z"/><path class="cls-4" d="M81.66,18.57l.3-1.29c.31-1.31-.41-2.65-1.68-3.12h0c-1.27-.46-2.68,.09-3.3,1.3l-.43,.84c-.68,1.35-2.04,2.17-3.54,2.3-7.1,.65-10.11,9.07-15.65,7.53,2.67,5.39,9.48,5.11,12.52,1.64-5,4.78-2.05,10.82-1.29,12.45,6.19-.65,8.54-6.26,9.2-9.96,.54,4.56,3.8,8.58,8.37,8.8-2.8-4.11,1.21-11.43-3.46-16.64-.95-1.05-1.36-2.48-1.04-3.86Z"/><path class="cls-2" d="M81.66,18.57l.3-1.29c.31-1.31-.41-2.65-1.68-3.12h0c-1.27-.46-2.68,.09-3.3,1.3l-.43,.84c-.68,1.35-2.04,2.17-3.54,2.3-7.1,.65-10.11,9.07-15.65,7.53,2.67,5.39,9.48,5.11,12.52,1.64-5,4.78-2.05,10.82-1.29,12.45,6.19-.65,8.54-6.26,9.2-9.96,.54,4.56,3.8,8.58,8.37,8.8-2.8-4.11,1.21-11.43-3.46-16.64-.95-1.05-1.36-2.48-1.04-3.86Z"/></g><path class="cls-7" d="M20.36,66.79c.9-6.6,7.66-10.09,13.83-11.17,1.3-.23,1.66,1.31,.39,1.88-3.5,1.57-7.91,5.52-8.85,10.07-.77,3.74-5.95,3.01-5.37-.77h0Z"/></g><rect class="cls-1" width="100" height="100"/></g></g></svg>