<?xml version="1.0" encoding="utf-8"?>
<!-- Generator: Adobe Adobe Illustrator 24.2.0, SVG Export Plug-In . SVG Version: 6.00 Build 0)  -->
<svg version="1.1" id="レイヤー_1" xmlns="http://www.w3.org/2000/svg" xmlns:xlink="http://www.w3.org/1999/xlink" x="0px"
	 y="0px" width="1000px" height="1000px" viewBox="0 0 1000 1000" style="enable-background:new 0 0 1000 1000;"
	 xml:space="preserve">
<g>
	<path d="M900.69,925.75c-11.14,5.77-22.56,9.56-33.97,13.31c-8.44,2.78-17.04,5.17-25.67,7.31c-22.35,5.54-44.92,9.78-67.74,13.13
		c-21.22,3.11-42.51,4.8-63.82,6.56c-17.2,1.42-34.45,2.5-51.7,2.89c-39.98,0.9-79.82-1.8-119.72-4.24
		c-25.35-1.55-50.52-4.4-75.69-7.1c-18.94-2.03-37.89-4.64-56.74-7.9c-21.01-3.64-42.28-5.9-63.02-10.94
		c-12.46-3.03-24.67-7.17-36.81-11.34c-18.62-6.39-36.65-14.3-54.07-23.44c-20.02-10.5-39.2-22.45-56.78-36.72
		c-20.33-16.5-38.72-34.91-53.79-56.5c-11.91-17.07-21.24-35.32-28.28-54.98c-6.6-18.44-10.19-37.28-10.35-56.67
		c-0.1-13.23,0.31-26.5,3.15-39.66c5.23-24.18,14.25-46.7,27.51-67.5c14.5-22.73,32.62-42.14,53.4-59.38
		c20.42-16.94,42.79-30.64,66.47-42.17c18.79-9.16,38.34-16.61,58.52-22.43c7.96-2.3,15.9-4.66,23.98-6.48
		c13.92-3.13,27.73-6.5,42.19-7.12c19.08-0.82,37.72-4.82,56.2-9.93c18.7-5.17,36.69-11.81,53.63-21.13
		c16.2-8.91,31.37-19.18,42.17-34.81c15.59-22.56,9.18-40.07-12.61-54.06c-19.66-12.62-41.71-18.81-65.1-20.46
		c-9.94-0.7-19.82-2.07-29.81-2.5c-8.2-0.35-14.23-7.28-13.86-14.77c0.34-6.99,7.01-13.02,14.83-13.36
		c15.27-0.67,30.21,1.98,45.25,4.12c14.5,2.06,28.49,5.97,41.9,11.32c19.11,7.62,36.46,18.64,47.38,36.66
		c12.41,20.46,11.46,43.2-1.42,64.22c-12.15,19.82-29.73,33.42-49.38,45.2c-16.85,10.1-34.77,17.69-53.26,23.49
		c-28.95,9.09-58.75,14.6-89.21,15.88c-9.41,0.39-18.38,3.55-27.33,5.9c-25.85,6.78-50.93,15.79-75.02,27.68
		c-31.77,15.68-60.24,35.64-84.16,61.8c-16.5,18.04-29.82,38.45-37.81,61.5c-9.12,26.32-12.51,53.4-6.97,81.48
		c9.39,47.66,35.73,84.41,71.43,115.53c18.94,16.51,40.02,29.78,62.27,41.46c17.3,9.08,35.3,16.5,53.56,23.02
		c20.45,7.3,41.74,12.09,63.25,15.47c22.14,3.48,44.22,7.62,66.49,9.88c22.92,2.32,45.84,4.81,68.77,7.01
		c50.46,4.86,100.99,5.31,151.53,4.41c26.55-0.47,53.08-2.18,79.57-5.38c23.12-2.79,46.08-6.37,68.74-11.19
		c20.19-4.3,40.15-10.08,59.42-18.07c14.62-6.07,28.78-12.75,41.94-21.54c0.52-0.35,1.1-0.6,3.38-1.84
		c-8.96-2.74-15.98-5.51-23.26-6.87c-4.67-0.87-9.36-1.76-14.03-2.72c-16.51-3.41-33.37-4.14-50.04-6.28
		c-14.07-1.81-28.26-1.22-42.42-1.28c-9.18-0.04-18.38,0.38-27.28,2.51c-13.73,3.3-27.78,1.71-41.6,3.56
		c-39.76,5.35-79.77,4.02-119.72,3.78c-17.67-0.11-35.2-3.23-52.8-4.12c-16.48-0.83-32.52-4.25-48.81-6.03
		c-13.14-1.44-26.06-4.92-39.05-7.68c-21.08-4.49-41.83-10.28-62.06-17.63c-14.36-5.21-28.4-11.26-42.09-18.18
		c-19.38-9.8-37.45-21.34-52.93-36.57c-18.47-18.18-31.12-39.51-31.93-66.15c-0.55-18.29,4.95-35.12,14.76-50.53
		c12.54-19.71,29.52-34.99,48.27-48.57c18.89-13.68,39.32-24.75,60.56-34.04c18.91-8.28,38.3-15.5,58.1-21.66
		c14.87-4.62,29.8-8.99,44.91-12.5c11.26-2.61,22.33-6.12,34-7.33c8.15-0.85,16.19-3.6,24.06-6.18
		c19.31-6.33,38.2-13.89,55.73-24.17c27.95-16.4,52.76-36.61,73.17-62.1c13.2-16.48,24.44-34.14,32.39-53.55
		c14.52-35.46,19.85-72.12,12.83-110.36c-3.91-21.28-10.79-41.34-21.43-59.96c-13.92-24.36-32.24-45.07-54.63-62.14
		c-19.23-14.66-40.39-25.81-62.92-34.32c-20.67-7.8-42.22-12.33-64.13-14.73c-25.56-2.8-51.06-2.22-76.36,3.15
		c-5.24,1.11-10.79,0.94-15.92,2.8c-10.34,3.76-18.01-4.13-19.76-11.02c-1.67-6.6,5.23-15.28,13.46-16.9
		c25.33-5,50.88-8.55,76.72-7.5c18.42,0.75,36.79,2.3,55.02,6.19c18.73,4,37.09,9.13,54.46,16.77
		c36.88,16.23,69.52,38.61,95.39,70.13c13.6,16.57,25.13,34.4,33.34,54.15c8.92,21.48,15.4,43.55,16.97,67.14
		c1.04,15.67,0.23,31.15-0.43,46.7c-0.45,10.61-3.6,20.88-6.25,31.06c-5.31,20.48-13.39,40.09-24.25,58.25
		c-14.09,23.56-31.21,44.74-51.72,63.22c-16.23,14.63-33.77,27.34-52.72,38.02c-20.22,11.41-41.57,20.16-63.9,26.95
		c-19.33,5.87-39.25,8.73-58.73,13.74c-28.32,7.28-56.18,15.74-83.26,26.58c-23.49,9.4-46.1,20.83-66.84,35.38
		c-15.49,10.86-30.09,23.16-40.47,39.26c-15.28,23.7-17.69,46.14,0.66,71.67c11.32,15.75,26.78,26.89,43.19,36.71
		c16.2,9.7,33.43,17.48,51.21,23.6c13.26,4.56,26.48,9.52,40.43,12.05c7.1,1.29,14.05,3.56,21.08,5.28
		c14.97,3.65,30.12,6.49,45.28,8.38c18.91,2.36,37.75,5.47,56.93,6.27c28.49,1.19,56.97,3.44,85.46,2.1
		c30.9-1.45,61.76-2.9,92.6-6.55c28.16-3.33,56.69-3.99,85.3-1.56c17.2,1.47,34.26,3.68,51.3,5.99c11.66,1.58,23.2,4.43,34.53,7.93
		c8.95,2.77,17.49,6.19,25.4,11.32c7.03,4.56,11.14,10.67,10.74,19.02c-0.41,8.53-4.72,14.3-12.78,18.23
		c-9.09,4.43-17.44,10.37-26.1,15.67C914.79,919.64,908.15,923,900.69,925.75z"/>
	<path d="M198.28,220.08c5.97,5.02,12.46,8.21,19.14,11.07c5.22,2.23,7.23-2.92,10.51-4.81c3.31-1.91,5.74-5.28,8.81-7.7
		c8.15-6.42,16.04-3.11,23.79,1.01c3.11,1.65,6.64,2.79,9.39,4.65c6.19,4.18,9.17,0.56,12.73-3.47c4.53-5.12,9.09-10.26,14.1-14.9
		c4.49-4.16,10.17-3.63,15.17-1.12c5.45,2.73,8.22,9.27,7.05,14.79c-0.89,4.25-3.94,7.26-6.63,10.38
		c-4.75,5.52-9.76,10.82-14.58,16.29c-10.82,12.28-19.85,14.82-33.9,6.34c-10.51-6.34-18.41-6.47-26.89,2.57
		c-8.36,8.92-18.34,8.24-28.48,3.08c-4.6-2.34-9.41-4.46-13.57-7.45c-5.24-3.76-6.91,0.7-9.49,3.3c-2.92,2.95-1.23,4.92,1.29,7.15
		c8.85,7.83,19.53,12.47,30.23,16.79c5.69,2.3,11.69,4.17,17.55,6.13c29.84,9.96,60.59,10.36,91.33,8.77
		c14.78-0.77,29.65-3.63,43.89-8.5c1.94-0.66,4.05-0.8,6.08-1.24c3.69-0.81,6.35-2.61,7.48-6.57c6.45-22.61,8.55-45.75,7.42-69.08
		c-0.8-16.33-2.85-32.63-8.4-48.24c-2.75-7.75,1.12-14.88,9.21-17.56c6.81-2.26,15.42,2.07,17.59,8.99
		c11.76,37.43,13.49,75.27,5.77,113.79c-2.46,12.26-5.33,24.18-10.86,35.4c-2.34,4.75-6.22,8.35-11.33,8.88
		c-12.46,1.29-24.09,5.94-36.33,8.09c-28.64,5.04-57.3,6.09-86.29,3.11c-17.89-1.84-35.38-5.35-52.15-11.26
		c-33.63-11.85-64.01-28.9-82.13-61.47c-9.54-17.15-12.85-35.58-8.52-55.29c6-27.33,22.82-46.76,44.34-62.93
		c14.02-10.53,29.66-18.28,45.92-24.59c19.99-7.75,40.92-12.51,62.16-14.64c28.38-2.85,56.86-3.41,85.03,3.12
		c5.01,1.16,10.24,0.84,14.71,4.2c5.56,4.17,7.52,11.09,4.65,18.21c-1.9,4.71-9.53,8.59-15.28,7.16
		c-23.23-5.8-46.88-7.07-70.59-5.66c-14.02,0.83-28.02,2.49-41.88,5.79c-16.84,4.02-33.06,9.49-48.34,17.33
		c-19.03,9.77-35.92,22.46-46.86,41.48c-10.52,18.29-9.66,41.88,2.79,56.24c5.26-4.08,7.95-10.37,12.81-14.85
		C183.32,216.76,190.2,216.42,198.28,220.08z"/>
</g>
</svg>
