<?xml version="1.0" encoding="UTF-8"?><svg xmlns="http://www.w3.org/2000/svg" xmlns:xlink="http://www.w3.org/1999/xlink" viewBox="0 0 100 100"><defs><style>.cls-1,.cls-2{fill:none;}.cls-3{fill:url(#_称未設定グラデーション_1228);}.cls-4{fill:url(#_称未設定グラデーション_1184);}.cls-5{fill:url(#_称未設定グラデーション_1184-3);}.cls-6{fill:url(#_称未設定グラデーション_1184-2);}.cls-7{fill:#020202;opacity:.1;}.cls-7,.cls-8{mix-blend-mode:overlay;}.cls-2{stroke:#445641;stroke-linecap:round;stroke-linejoin:round;stroke-width:4px;}.cls-9{isolation:isolate;}.cls-8{fill:#fff;opacity:.3;}</style><linearGradient id="_称未設定グラデーション_1184" x1="50.56" y1="80.92" x2="50.56" y2="19.87" gradientTransform="matrix(1, 0, 0, 1, 0, 0)" gradientUnits="userSpaceOnUse"><stop offset="0" stop-color="#007d2e"/><stop offset="1" stop-color="#53a93d"/></linearGradient><linearGradient id="_称未設定グラデーション_1228" x1="50.78" y1="27.96" x2="50.78" y2="14" gradientTransform="matrix(1, 0, 0, 1, 0, 0)" gradientUnits="userSpaceOnUse"><stop offset="0" stop-color="#007d2e"/><stop offset=".63" stop-color="#53a93d"/></linearGradient><linearGradient id="_称未設定グラデーション_1184-2" x1="50" y1="86" x2="50" y2="24.21" xlink:href="#_称未設定グラデーション_1184"/><linearGradient id="_称未設定グラデーション_1184-3" x1="49.94" y1="86" x2="49.94" y2="26.46" xlink:href="#_称未設定グラデーション_1184"/></defs><g class="cls-9"><g id="_イヤー_1"><g><g><path class="cls-4" d="M50.56,24.46c-1.2,0-2.37-.42-3.24-1.24-3.11-2.93-7.81-4.28-11.88-2.66-5.52,2.19-6.61,9-7.17,14.27-1.26,11.71,.04,24.12,4.03,35.22,2.33,6.48,9.51,13.79,18.27,9.67,8.76,4.12,15.94-3.19,18.27-9.67,3.99-11.1,5.28-23.51,4.03-35.22-.57-5.27-1.65-12.08-7.17-14.27-4.07-1.61-8.77-.27-11.88,2.66-.87,.82-2.05,1.24-3.24,1.24h0Z"/><path class="cls-2" d="M50.56,24.46c-1.2,0-2.37-.42-3.24-1.24-3.11-2.93-7.81-4.28-11.88-2.66-5.52,2.19-6.61,9-7.17,14.27-1.26,11.71,.04,24.12,4.03,35.22,2.33,6.48,9.51,13.79,18.27,9.67,8.76,4.12,15.94-3.19,18.27-9.67,3.99-11.1,5.28-23.51,4.03-35.22-.57-5.27-1.65-12.08-7.17-14.27-4.07-1.61-8.77-.27-11.88,2.66-.87,.82-2.05,1.24-3.24,1.24h0Z"/></g><path class="cls-3" d="M45.84,27.96c-.95-7.42,1.63-10.2,4.67-13.22,.79-.78,2.22-.97,3.3-.44h0c1.89,.92,2.64,2.76,1.72,4.32-1.55,2.63-1.49,6.45-1.63,9.23"/><path class="cls-2" d="M45.84,27.96c-.95-7.42,1.63-10.2,4.67-13.22,.79-.78,2.22-.97,3.3-.44h0c1.89,.92,2.64,2.76,1.72,4.32-1.55,2.63-1.49,6.45-1.63,9.23"/><path class="cls-6" d="M80.25,39.18c-.57-5.27-1.65-12.08-7.17-14.27-3.84-1.52-8.24-.41-11.34,2.19-2.53-1-5.49-.78-8.09,.55-2.34,1.2-5.1,1.18-7.44,0-2.57-1.31-5.48-1.53-7.99-.57-3.09-2.58-7.48-3.68-11.3-2.16-5.52,2.19-6.61,9-7.17,14.27-1.26,11.71,.04,24.12,4.03,35.22,2.36,6.56,9.71,13.98,18.63,9.49,1.96,1.22,4.33,1.99,7.25,2.08v.02c.1,0,.2-.01,.3-.01,.1,0,.19,.01,.3,.01v-.02c2.95-.09,5.33-.87,7.3-2.12,8.95,4.56,16.33-2.88,18.69-9.46,3.99-11.1,5.28-23.51,4.03-35.22Z"/><path class="cls-7" d="M76.23,66.05c-2.36,6.58-9.74,14.02-18.69,9.46-1.97,1.24-4.35,2.02-7.3,2.12v.02c-.1,0-.2-.01-.3-.01-.1,0-.19,.01-.3,.01v-.02c-2.92-.09-5.29-.86-7.25-2.08-8.92,4.49-16.27-2.93-18.63-9.49-2.55-7.11-4-14.75-4.38-22.4-.53,10.36,.9,21.05,4.38,30.75,2.36,6.56,9.71,13.98,18.63,9.49,1.96,1.22,4.33,1.99,7.25,2.08v.03c.1,0,.2-.01,.3-.01,.1,0,.19,.01,.3,.01v-.03c2.95-.09,5.33-.87,7.3-2.12,8.95,4.56,16.33-2.88,18.69-9.46,3.48-9.7,4.91-20.39,4.38-30.75-.38,7.65-1.83,15.29-4.38,22.4Z"/><path class="cls-2" d="M80.25,39.18c-.57-5.27-1.65-12.08-7.17-14.27-3.84-1.52-8.24-.41-11.34,2.19-2.53-1-5.49-.78-8.09,.55-2.34,1.2-5.1,1.18-7.44,0-2.57-1.31-5.48-1.53-7.99-.57-3.09-2.58-7.48-3.68-11.3-2.16-5.52,2.19-6.61,9-7.17,14.27-1.26,11.71,.04,24.12,4.03,35.22,2.36,6.56,9.71,13.98,18.63,9.49,1.96,1.22,4.33,1.99,7.25,2.08v.02c.1,0,.2-.01,.3-.01,.1,0,.19,.01,.3,.01v-.02c2.95-.09,5.33-.87,7.3-2.12,8.95,4.56,16.33-2.88,18.69-9.46,3.99-11.1,5.28-23.51,4.03-35.22Z"/><path class="cls-5" d="M67.12,33.41c-1.91-6.73-8.35-8.37-13.44-5.78-2.37,1.21-5.12,1.21-7.49,0-5.09-2.59-11.52-.95-13.44,5.78-3.57,12.56-1.77,27.77,2.4,40.13,2.19,6.47,6.13,12.18,14.48,12.44v.03c.1,0,.2-.01,.3-.01,.1,0,.19,.01,.3,.01v-.03c8.35-.26,12.29-5.97,14.48-12.44,4.17-12.35,5.97-27.57,2.4-40.13Z"/><path class="cls-7" d="M67.38,62.12c-2.58,7.64-7.24,14.37-17.09,14.68v.03c-.12,0-.23-.01-.35-.01-.12,0-.23,.01-.35,.01v-.03c-9.85-.31-14.51-7.04-17.09-14.68-.23-.68-.45-1.37-.66-2.06,.75,4.68,1.89,9.25,3.32,13.48,2.19,6.47,6.13,12.18,14.48,12.44v.03c.1,0,.2-.01,.3-.01,.1,0,.19,.01,.3,.01v-.03c8.35-.26,12.29-5.97,14.48-12.44,1.43-4.23,2.57-8.8,3.32-13.48-.22,.69-.43,1.39-.66,2.06Z"/><path class="cls-2" d="M67.12,33.41c-1.91-6.73-8.35-8.37-13.44-5.78-2.37,1.21-5.12,1.21-7.49,0-5.09-2.59-11.52-.95-13.44,5.78-3.57,12.56-1.77,27.77,2.4,40.13,2.19,6.47,6.13,12.18,14.48,12.44v.03c.1,0,.2-.01,.3-.01,.1,0,.19,.01,.3,.01v-.03c8.35-.26,12.29-5.97,14.48-12.44,4.17-12.35,5.97-27.57,2.4-40.13Z"/><path class="cls-8" d="M40.24,43.67c1.14-1.17,2.23-2.37,3.68-3.19,1.58-.9,3.47-.98,5.16-1.58,1.48-.53,3.45-1.27,3.79-3.04,.08-.41-.04-.88-.38-1.11-.16-.11-.35-.15-.54-.17-.93-.09-1.9,.14-2.85,.09s-1.98-.23-2.9-.58c-1.76-.67-3.99-1.35-5.85-.69-1.53,.55-2.33,2.24-2.79,3.69-.6,1.86-.78,3.8-.48,5.74,.31,1.96,2.06,2,3.18,.85Z"/></g><rect class="cls-1" width="100" height="100"/></g></g></svg>