<?xml version="1.0" encoding="UTF-8"?><svg xmlns="http://www.w3.org/2000/svg" xmlns:xlink="http://www.w3.org/1999/xlink" viewBox="0 0 100 100"><defs><style>.c{fill:url(#b);}.d{stroke-width:3.77px;}.d,.e{stroke:#5b5931;}.d,.e,.f{fill:none;stroke-linecap:round;stroke-linejoin:round;}.e,.f{stroke-width:4px;}.f{stroke:#724040;}.g{isolation:isolate;}.h{fill:#fff;opacity:.4;}.h,.i{mix-blend-mode:overlay;}.i{fill:#020202;opacity:.3;}</style><linearGradient id="b" x1="48.61" y1="17.04" x2="48.61" y2="88.3" gradientTransform="matrix(1, 0, 0, 1, 0, 0)" gradientUnits="userSpaceOnUse"><stop offset="0" stop-color="#f97674"/><stop offset=".5" stop-color="#ede685"/><stop offset="1" stop-color="#c6e876"/></linearGradient></defs><g class="g"><g id="a"><g><path class="c" d="M75.89,26.95c-6.09-6.69-18.47-12.35-27.25-8.84l.07,.05c-.41-.13-.82-.26-1.25-.37-4.22-1.08-15.96-1.63-26.33,8.57-7.64,7.52-10.52,19.73-8.92,30.36,2.68,17.8,18.74,30,36.29,31.59h.26c17.55-1.59,33.61-13.79,36.29-31.59,1.6-10.62-1.96-21.85-9.17-29.77Z"/><path class="h" d="M34.52,24.67c-12.32,3.79-19.09,18.55-17.3,30.72,.1,.68,.24,1.4,.7,1.92,1.07,1.21,1.82-1.03,2.37-2.06,2.44-4.58,3.96-9.12,7.8-12.82,2.17-2.09,4.71-3.81,7.47-5.02s6.02-1.69,8.36-3.91c1.61-1.53-1.21-1.94-3.52-3.52-1.27-.87-2.56-2.26-3.18-3.58-.51-1.08-1.33-2.14-2.7-1.72Z"/><path class="i" d="M79.51,31.66c.6,2.76,.92,5.62,.92,8.55,0,22.21-18,40.21-40.21,40.21-6.51,0-12.66-1.56-18.1-4.31,6.84,6.9,16.37,11.27,26.4,12.18h.26c17.55-1.59,33.61-13.79,36.29-31.59,1.3-8.66-.82-17.71-5.55-25.05Z"/><path class="e" d="M48.64,18.11c8.78-3.51,21.15,2.15,27.25,8.84,7.22,7.92,10.77,19.14,9.17,29.77-2.68,17.8-18.74,30-36.29,31.59h-.26c-17.55-1.59-33.61-13.79-36.29-31.59-1.6-10.62,1.28-22.84,8.92-30.36,10.37-10.2,22.59-9.45,27.47-8.26h.04Z"/><line class="f" x1="48.61" y1="25.7" x2="48.61" y2="23.71"/><path class="d" d="M44.21,25.57c2.29,2.76,6.52,2.76,8.81,0"/></g></g></g></svg>