<?xml version="1.0" encoding="UTF-8"?><svg xmlns="http://www.w3.org/2000/svg" xmlns:xlink="http://www.w3.org/1999/xlink" viewBox="0 0 100 100"><defs><style>.d{fill:url(#c);}.e{fill:url(#b);}.f{fill:none;stroke:#6b3434;stroke-linecap:round;stroke-linejoin:round;stroke-width:3.77px;}.g{fill:#e5b7ac;}.h{isolation:isolate;}.i{fill:#fff;}.i,.j{mix-blend-mode:overlay;opacity:.3;}.j{fill:#020202;}</style><linearGradient id="b" x1="50" y1="85.14" x2="50" y2="14.86" gradientTransform="matrix(1, 0, 0, 1, 0, 0)" gradientUnits="userSpaceOnUse"><stop offset=".4" stop-color="#a0482d"/><stop offset="1" stop-color="#b36c56"/></linearGradient><linearGradient id="c" x1="49.84" y1="81.51" x2="49.84" y2="63.91" gradientTransform="matrix(1, 0, 0, 1, 0, 0)" gradientUnits="userSpaceOnUse"><stop offset="0" stop-color="#fff" stop-opacity=".5"/><stop offset="1" stop-color="#fff" stop-opacity="0"/></linearGradient></defs><g class="h"><g id="a"><g><path class="e" d="M85.71,56.26c-.83-10.75-7.81-20.77-16.21-26.68-6.5-4.58-14.73-7.95-19.5-14.72-4.77,6.77-13,10.14-19.5,14.72-8.4,5.91-15.38,15.94-16.21,26.68-1.6,20.77,19.15,28.88,35.71,28.88s37.31-8.11,35.71-28.88Z"/><path class="g" d="M79.54,74.16c-4.73-8.08-15.44-13.08-29.38-12.97-14.17-.11-25,5.05-29.6,13.37,7.15,7.42,19.11,10.58,29.44,10.58s22.41-3.19,29.54-10.69v-.3Z"/><path class="d" d="M39.9,79.5c-.01,.38-.33,.68-.71,.67s-.68-.33-.67-.71,.33-.68,.71-.67,.68,.33,.67,.71Zm5.76,.65c-.37,.09-.6,.46-.51,.83s.46,.6,.83,.51,.6-.46,.51-.83-.46-.6-.83-.51Zm16.86-2.04c-.36-.12-.75,.07-.87,.43s.07,.75,.43,.87,.75-.07,.87-.43-.07-.75-.43-.87Zm-18.41-2.83c-.38,.02-.67,.34-.66,.72s.34,.67,.72,.66,.67-.34,.66-.72-.34-.67-.72-.66Zm10.22,4.76c-.36-.13-.75,.05-.89,.4s.05,.75,.4,.89,.75-.05,.89-.4-.05-.75-.4-.89Zm11.49-6.54c-.36,.13-.55,.52-.42,.88s.52,.55,.88,.42,.55-.52,.42-.88-.52-.55-.88-.42Zm-26.09-3.15c-.38,.04-.66,.37-.62,.75s.37,.66,.75,.62,.66-.37,.62-.75-.37-.66-.75-.62Zm-3.91,3.49c-.38,.03-.66,.37-.63,.75s.37,.66,.75,.63,.66-.37,.63-.75-.37-.66-.75-.63Zm25.81-1.7c-.38-.02-.7,.27-.72,.66s.27,.7,.66,.72,.7-.27,.72-.66-.27-.7-.66-.72Zm-11.45-1.78c-.38,.04-.65,.38-.61,.76s.38,.65,.76,.61,.65-.38,.61-.76-.38-.65-.76-.61Zm6.27,4.57c-.38-.01-.7,.28-.72,.66s.28,.7,.66,.72,.7-.28,.72-.66-.28-.7-.66-.72Zm-5.8,.93c-.38,.02-.67,.34-.65,.72s.34,.67,.72,.65,.67-.34,.65-.72-.34-.67-.72-.65Zm18.76-6.36c-.38,.01-.68,.33-.67,.71s.33,.68,.71,.67,.68-.33,.67-.71-.33-.68-.71-.67Zm-12.28-.16c-.36,.12-.56,.51-.44,.87s.51,.56,.87,.44,.56-.51,.44-.87-.51-.56-.87-.44Zm-22.76-2.33c-.37-.07-.74,.17-.81,.54s.17,.74,.54,.81,.74-.17,.81-.54-.17-.74-.54-.81Zm19.25-.64c-.38-.02-.7,.27-.72,.66s.27,.7,.66,.72,.7-.27,.72-.66-.27-.7-.66-.72Zm-13.27-.56c-.38,.02-.68,.34-.66,.72s.34,.68,.72,.66,.68-.34,.66-.72-.34-.68-.72-.66Zm24.18,.76c-.36-.14-.76,.04-.89,.39s.04,.76,.39,.89,.76-.04,.89-.39-.04-.76-.39-.89Zm-18.84,1.37c-.38,.01-.68,.34-.66,.72s.34,.68,.72,.66,.68-.34,.66-.72-.34-.68-.72-.66Zm-20.12,5.33c-.38,0-.69,.31-.69,.69s.31,.69,.69,.69,.69-.31,.69-.69-.31-.69-.69-.69Zm5.6-1.99c-.37-.09-.74,.14-.83,.51s.14,.74,.51,.83,.74-.14,.83-.51-.14-.74-.51-.83Zm.51,5.02c-.37,.09-.6,.46-.51,.83s.46,.6,.83,.51,.6-.46,.51-.83-.46-.6-.83-.51Zm36.25-.09c-.38,0-.56,.6-.55,.98s.33,.68,.71,.67,.68-.33,.67-.71-.45-.96-.83-.95Zm6.22-2.95c-.38-.03-.71,.25-.74,.63s.25,.71,.63,.74,.71-.25,.74-.63-.25-.71-.63-.74Zm-14.73-8.36c-.38-.04-.72,.24-.75,.62s.24,.72,.62,.75,.72-.24,.75-.62-.24-.72-.62-.75Zm-10.31-.98c-.38,.05-.65,.39-.6,.77s.39,.65,.77,.6,.65-.39,.6-.77-.39-.65-.77-.6Z"/><path class="j" d="M85.71,56.26c-.42-5.4-2.39-10.61-5.3-15.21-.45,21.82-18.26,39.38-40.19,39.38-6.42,0-12.48-1.51-17.86-4.19,7.25,6.22,18.14,8.9,27.65,8.9,16.56,0,37.31-8.11,35.71-28.88Z"/><path class="f" d="M79.56,73.52c-4.68-8.01-15.3-12.96-29.1-12.85-14.13-.11-24.91,5.07-29.42,13.41"/><path class="f" d="M85.71,56.26c-.83-10.75-7.81-20.77-16.21-26.68-6.5-4.58-14.73-7.95-19.5-14.72-4.77,6.77-13,10.14-19.5,14.72-8.4,5.91-15.38,15.94-16.21,26.68-1.6,20.77,19.15,28.88,35.71,28.88s37.31-8.11,35.71-28.88Z"/><path class="i" d="M46.52,23.38c-1.97,1.44-3.85,3.08-5.86,4.44-3.39,2.28-6.84,4.5-9.91,7.2-2.12,1.86-8.32,7.49-1.53,7.71,3.61,.11,7.27-.77,10.8-1.47,3.75-.74,7.44-1.74,11.1-2.8,1.23-.36,2.49-.73,3.52-1.49,2.34-1.71,1.87-4.78,.75-7.13-.95-1.97-2.18-3.86-3.25-5.77-.94-1.68-1.98-3.09-3.98-1.82-.55,.35-1.1,.73-1.63,1.12Z"/></g></g></g></svg>