<?xml version="1.0" encoding="UTF-8"?><svg xmlns="http://www.w3.org/2000/svg" xmlns:xlink="http://www.w3.org/1999/xlink" viewBox="0 0 100 100"><defs><style>.d{fill:url(#c);}.e{fill:url(#b);}.f,.g{mix-blend-mode:overlay;opacity:.3;}.h{stroke:#604e31;stroke-width:3.77px;}.h,.i{fill:none;stroke-linecap:round;stroke-linejoin:round;}.j{fill:#020202;}.i{stroke:#724040;stroke-width:4px;}.k{isolation:isolate;}.g{fill:#fff;}</style><linearGradient id="b" x1="49.94" y1="17.95" x2="49.94" y2="85.87" gradientTransform="matrix(1, 0, 0, 1, 0, 0)" gradientUnits="userSpaceOnUse"><stop offset="0" stop-color="#e5a83c"/><stop offset="1" stop-color="#c9b62f"/></linearGradient><linearGradient id="c" x1="49.86" y1="81.09" x2="49.86" y2="48.91" gradientTransform="matrix(1, 0, 0, 1, 0, 0)" gradientUnits="userSpaceOnUse"><stop offset="0" stop-color="#fff" stop-opacity=".5"/><stop offset="1" stop-color="#fff" stop-opacity="0"/></linearGradient></defs><g class="k"><g id="a"><path class="e" d="M87.02,51.05c.18,20.84-15.05,35.13-37.08,34.82-22.04,.32-37.27-13.98-37.08-34.82-.33-20.84,15.04-33.36,37.08-33.09,22.05-.26,37.41,12.25,37.08,33.09Z"/><path class="d" d="M37.04,78.31c-.02,.52-.45,.93-.97,.91s-.93-.45-.91-.97,.45-.93,.97-.91,.93,.45,.91,.97Zm6.63,.65c-.5,.12-.81,.63-.69,1.13s.63,.81,1.13,.69,.81-.63,.69-1.13-.63-.81-1.13-.69Zm21-3.33c-.49-.16-1.02,.1-1.19,.59s.1,1.02,.59,1.19,1.02-.1,1.19-.59-.1-1.02-.59-1.19Zm-22.32-3.59c-.52,.02-.92,.46-.89,.98s.46,.92,.98,.89,.92-.46,.89-.98-.46-.92-.98-.89Zm13.41,7.23c-.49-.18-1.03,.07-1.21,.55s.07,1.03,.55,1.21,1.03-.07,1.21-.55-.07-1.03-.55-1.21Zm14.91-9.6c-.49,.17-.74,.71-.57,1.2s.71,.74,1.2,.57,.74-.71,.57-1.2-.71-.74-1.2-.57Zm-34.78-3.59c-.52,.05-.9,.51-.85,1.02s.51,.9,1.02,.85,.9-.51,.85-1.02-.51-.9-1.02-.85Zm-5.33,4.75c-.52,.04-.9,.5-.86,1.01s.5,.9,1.01,.86,.9-.5,.86-1.01-.5-.9-1.01-.86Zm34.17-2.8c-.52-.03-.96,.37-.98,.89s.37,.96,.89,.98,.96-.37,.98-.89-.37-.96-.89-.98Zm-14.62-2.63c-.52,.06-.89,.52-.83,1.03s.52,.89,1.03,.83,.89-.52,.83-1.03-.52-.89-1.03-.83Zm8.53,6.91c-.52-.02-.96,.38-.98,.9s.38,.96,.9,.98,.96-.38,.98-.9-.38-.96-.9-.98Zm-7.65-1.67c-.52,.03-.92,.47-.89,.99s.47,.92,.99,.89,.92-.47,.89-.99-.47-.92-.99-.89Zm24.91-5c-.52,.02-.92,.45-.91,.97s.45,.92,.97,.91,.92-.45,.91-.97-.45-.92-.97-.91Zm-16.21-.17c-.49,.16-.76,.69-.6,1.19s.69,.76,1.19,.6,.76-.69,.6-1.19-.69-.76-1.19-.6Zm-32.01-4.23c-.51-.1-1,.23-1.1,.74s.23,1,.74,1.1,1-.23,1.1-.74-.23-1-.74-1.1Zm28.27-1.17c-.52-.03-.96,.37-.98,.89s.37,.96,.89,.98,.96-.37,.98-.89-.37-.96-.89-.98Zm-20.37-1.17c-.52,.02-.92,.46-.9,.98s.46,.92,.98,.9,.92-.46,.9-.98-.46-.92-.98-.9Zm32.26,2.75c-.48-.19-1.03,.05-1.22,.53s.05,1.03,.53,1.22,1.03-.05,1.22-.53-.05-1.03-.53-1.22Zm-21.97-.9c-.52,.02-.92,.46-.9,.98s.46,.92,.98,.9,.92-.46,.9-.98-.46-.92-.98-.9Zm-8.48-9.13c-.52,0-.94,.42-.94,.93s.42,.94,.93,.94,.94-.42,.94-.93-.42-.94-.93-.94Zm-8.55-2.7c-.5-.14-1.02,.15-1.16,.65s.15,1.02,.65,1.16,1.02-.15,1.16-.65-.15-1.02-.65-1.16Zm-8.31,5.77c-.5-.12-1.01,.18-1.14,.69s.18,1.01,.69,1.14,1.01-.18,1.14-.69-.18-1.01-.69-1.14Zm23.47-4.05c-.51,.12-.82,.62-.7,1.13s.62,.82,1.13,.7,.82-.62,.7-1.13-.62-.82-1.13-.7Zm31.72,7.13c-.52,.01-.76,.82-.75,1.34s.44,.93,.96,.92,.93-.44,.92-.96-.61-1.31-1.13-1.29Zm-20.3-7.97c-.49,.17-.74,.71-.57,1.2s.71,.74,1.2,.57,.74-.71,.57-1.2-.71-.74-1.2-.57Zm8.42,4.3c-.52-.04-.97,.35-1.01,.86s.35,.97,.86,1.01,.97-.35,1.01-.86-.35-.97-.86-1.01Zm-13.17,.05c-.52-.05-.98,.33-1.02,.85s.33,.98,.85,1.02,.98-.33,1.02-.85-.33-.98-.85-1.02Zm28.92-3.44c-.51-.11-1.01,.21-1.12,.71s.21,1.01,.71,1.12,1.01-.21,1.12-.71-.21-1.01-.71-1.12Zm-9.8-.36c-.51,.06-.88,.53-.82,1.05s.53,.88,1.05,.82,.88-.53,.82-1.05-.53-.88-1.05-.82Z"/><g class="f"><path class="j" d="M80.46,29.58c.95,3.49,1.31,7.33,1.08,11.39-1.08,22.34-17.97,38.33-41.69,38.75-5.87,.16-11.39-.67-16.26-2.54,6.3,6.2,15.66,9.2,26.35,9.05,22.15,0,37.16-14.21,37.48-35.18,.23-8.68-2.12-16.18-6.96-21.47Z"/></g><path class="h" d="M87.02,51.05c.18,20.84-15.05,35.13-37.08,34.82-22.04,.32-37.27-13.98-37.08-34.82-.33-20.84,15.04-33.36,37.08-33.09,22.05-.26,37.41,12.25,37.08,33.09Z"/><path class="g" d="M22.63,39.22c1.64-4.28,4.62-8.08,8.43-10.65,1.1-.91,2.77-.76,3.58,.45,.81,1.18,.38,2.84-.91,3.47-3.3,1.65-6.15,4.39-8.03,7.92-.87,1.99-3.8,.85-3.08-1.2h0Z"/><line class="i" x1="50.01" y1="24.71" x2="50.01" y2="14.24"/><path class="h" d="M44.4,24.58c3.63,1.24,7.57,1.24,11.2,0"/></g></g></svg>