<?xml version="1.0" encoding="UTF-8"?><svg xmlns="http://www.w3.org/2000/svg" xmlns:xlink="http://www.w3.org/1999/xlink" viewBox="0 0 100 100"><defs><style>.cls-1,.cls-2,.cls-3{fill:none;}.cls-4{fill:url(#_称未設定グラデーション_843);}.cls-2{stroke:#8e5732;}.cls-2,.cls-3{stroke-linecap:round;stroke-linejoin:round;stroke-width:4px;}.cls-5{fill:#fffefd;opacity:.2;}.cls-3{stroke:#be8e58;}.cls-6{isolation:isolate;}.cls-7{fill:#020202;mix-blend-mode:overlay;opacity:.15;}</style><linearGradient id="_称未設定グラデーション_843" x1="50" y1="84.82" x2="50" y2="11" gradientTransform="matrix(1, 0, 0, 1, 0, 0)" gradientUnits="userSpaceOnUse"><stop offset=".34" stop-color="#de842d"/><stop offset=".8" stop-color="#f3c568"/></linearGradient></defs><g class="cls-6"><g id="_イヤー_1"><g><g><line class="cls-3" x1="50" y1="89" x2="50" y2="83.04"/><line class="cls-3" x1="56.54" y1="89" x2="54.66" y2="83.35"/><line class="cls-3" x1="43.46" y1="89" x2="45.34" y2="83.35"/></g><path class="cls-4" d="M50,84.82c7.27,.07,14.56-1.95,20.84-6.1,5.96-3.94,10.7-9.43,13.16-17,5.5-16.96-4-34.44-20.54-40.25-4.65-2.03-13.45-3.42-13.45-10.47,0,7.05-8.81,8.44-13.45,10.47-16.55,5.81-26.05,23.29-20.54,40.25,2.46,7.57,7.2,13.06,13.16,17,6.28,4.15,13.57,6.18,20.84,6.1Z"/><path class="cls-7" d="M84,52.53c-2.46,7.57-7.2,13.06-13.16,17-6.28,4.15-13.57,6.18-20.84,6.1-7.27,.07-14.56-1.95-20.84-6.1-5.96-3.94-10.7-9.43-13.16-17-.56-1.74-.96-3.48-1.22-5.22-.7,4.65-.36,9.55,1.22,14.4,2.46,7.57,7.2,13.06,13.16,17,6.28,4.15,13.57,6.18,20.84,6.1,7.27,.07,14.56-1.95,20.84-6.1,5.96-3.94,10.7-9.43,13.16-17,1.58-4.85,1.92-9.75,1.22-14.4-.26,1.74-.66,3.48-1.22,5.22Z"/><path class="cls-5" d="M50.32,15.41s-.02,0-.02,0c-.02,0-.04-.01-.06-.02-.02,0-.03-.01-.05-.01-.02,0-.04,0-.05,0-.02,0-.04,0-.06,0-.03,0-.05,0-.08,0-.03,0-.06,0-.09,0-.02,0-.03,0-.05,0-.02,0-.04,0-.06,0-.02,0-.03,0-.05,.01-.02,0-.05,0-.07,.02,0,0-.01,0-.02,0-.28,.1-27.62,9.9-27.62,35.59,0,31.21,27.53,35.6,27.81,35.64,.05,0,.09,.01,.14,.01h0s.09,0,.14-.01c.28-.04,27.81-4.43,27.81-35.64,0-25.7-27.35-35.5-27.63-35.59Zm-2.91,4.32c-2.06,5.32-5.24,15.98-5.24,31.27s3.47,26.91,5.52,31.96c-1.52-1.16-3.48-2.92-5.43-5.42-3.73-4.76-8.17-13.23-8.17-26.54,0-16.59,8.56-26.84,13.33-31.27Zm2.59-1.06c1.82,4.22,5.85,15.49,5.85,32.33s-4.04,28.11-5.85,32.33c-1.82-4.22-5.85-15.49-5.85-32.33s4.04-28.11,5.85-32.33Zm7.83,32.33c0-15.29-3.18-25.96-5.24-31.27,4.77,4.43,13.33,14.69,13.33,31.27,0,13.31-4.44,21.78-8.17,26.54-1.95,2.5-3.92,4.26-5.43,5.42,2.04-5.05,5.52-15.98,5.52-31.96Zm-33.8,0c0-16.68,12.3-26.32,20.07-30.75-5.1,5.42-11.99,15.55-11.99,30.75,0,17.97,7.55,27.67,12.73,32.21-7.65-2.85-20.81-10.85-20.81-32.21Zm31.14,32.21c5.18-4.55,12.73-14.25,12.73-32.21,0-15.19-6.89-25.33-11.99-30.75,7.78,4.43,20.07,14.06,20.07,30.75,0,21.37-13.16,29.37-20.81,32.21Z"/><path class="cls-2" d="M50,84.82c7.27,.07,14.56-1.95,20.84-6.1,5.96-3.94,10.7-9.43,13.16-17,5.5-16.96-4-34.44-20.54-40.25-4.65-2.03-13.45-3.42-13.45-10.47,0,7.05-8.81,8.44-13.45,10.47-16.55,5.81-26.05,23.29-20.54,40.25,2.46,7.57,7.2,13.06,13.16,17,6.28,4.15,13.57,6.18,20.84,6.1Z"/></g><rect class="cls-1" width="100" height="100"/></g></g></svg>