<?xml version="1.0" encoding="UTF-8"?><svg id="a" xmlns="http://www.w3.org/2000/svg" viewBox="0 0 200 200"><defs><style>.b{fill:#fff;}.c{fill:none;stroke:#222;stroke-linecap:round;stroke-linejoin:round;stroke-width:4px;}</style></defs><g><g><path class="b" d="M195.07,71.79l-.71-2.43c-.2-.67-.81-1.13-1.51-1.13h-7.53c-1.57-.51-3.6-.82-5.83-.82-4.95,0-8.97,1.52-8.97,3.4,0,.44,.23,.87,.64,1.26v29.37c0,1.61,.15,3.22,.44,4.81l4.34,23.4c.73,3.94,6.37,3.94,7.1,0l4.34-23.41c.29-1.58,.44-3.19,.44-4.81v-28.05h6.06c.83,0,1.43-.8,1.2-1.6Z"/><path class="b" d="M20.51,67.4c-2.23,0-4.26,.31-5.83,.82H7.15c-.7,0-1.31,.46-1.51,1.13l-.71,2.43c-.23,.8,.36,1.6,1.2,1.6h6.06v28.05c0,1.61,.15,3.22,.44,4.81l4.34,23.4c.73,3.94,6.37,3.94,7.1,0l4.34-23.4c.29-1.59,.44-3.19,.44-4.81v-29.37c.41-.39,.64-.81,.64-1.26,0-1.88-4.02-3.4-8.97-3.4Z"/><path class="b" d="M43.22,67.4c-4.95,0-8.97,1.52-8.97,3.4,0,.44,.23,.87,.64,1.26v29.37c0,1.61,.15,3.22,.44,4.81l4.34,23.41c.73,3.94,6.37,3.94,7.1,0l4.34-23.41c.29-1.59,.44-3.19,.44-4.81v-29.37c.41-.39,.64-.81,.64-1.26,0-1.88-4.02-3.4-8.97-3.4Z"/><path class="b" d="M65.93,67.4c-4.95,0-8.97,1.52-8.97,3.4,0,.44,.23,.87,.64,1.26v29.37c0,1.61,.15,3.22,.44,4.81l4.34,23.4c.73,3.94,6.37,3.94,7.1,0l4.34-23.4c.29-1.59,.44-3.19,.44-4.81v-29.37c.41-.39,.64-.81,.64-1.26,0-1.88-4.02-3.4-8.97-3.4Z"/><path class="b" d="M88.64,67.4c-4.95,0-8.97,1.52-8.97,3.4,0,.44,.23,.87,.64,1.26v29.37c0,1.61,.15,3.22,.44,4.81l4.34,23.4c.73,3.94,6.37,3.94,7.1,0l4.34-23.4c.29-1.59,.44-3.19,.44-4.81v-29.37c.41-.39,.64-.81,.64-1.26,0-1.88-4.02-3.4-8.97-3.4Z"/><path class="b" d="M111.36,67.4c-4.95,0-8.97,1.52-8.97,3.4,0,.44,.23,.87,.64,1.26v29.37c0,1.61,.15,3.22,.44,4.81l4.34,23.4c.73,3.94,6.37,3.94,7.1,0l4.34-23.4c.29-1.59,.44-3.19,.44-4.81v-29.37c.41-.39,.64-.81,.64-1.26,0-1.88-4.02-3.4-8.97-3.4Z"/><path class="b" d="M134.07,67.4c-4.95,0-8.97,1.52-8.97,3.4,0,.44,.23,.87,.64,1.26v29.37c0,1.61,.15,3.22,.44,4.8l4.34,23.4c.73,3.94,6.37,3.94,7.1,0l4.34-23.4c.29-1.59,.44-3.19,.44-4.81v-29.37c.41-.39,.64-.81,.64-1.26,0-1.88-4.02-3.4-8.97-3.4Z"/><path class="b" d="M156.78,67.4c-4.95,0-8.97,1.52-8.97,3.4,0,.44,.23,.87,.64,1.26v29.37c0,1.61,.15,3.22,.44,4.81l4.34,23.41c.73,3.94,6.37,3.94,7.1,0l4.34-23.4c.29-1.59,.44-3.19,.44-4.81v-29.37c.41-.39,.64-.81,.64-1.26,0-1.88-4.02-3.4-8.97-3.4Z"/></g><g><g><path class="c" d="M186.93,73.38h6.94c.83,0,1.43-.8,1.2-1.6l-.71-2.43c-.2-.67-.81-1.13-1.51-1.13h-5.92"/><path class="c" d="M13.07,73.38H6.13c-.83,0-1.43-.8-1.2-1.6l.71-2.43c.2-.67,.81-1.13,1.51-1.13h5.92"/></g><line class="c" x1="29.48" y1="70.8" x2="33.61" y2="70.8"/><line class="c" x1="52.16" y1="70.8" x2="56.29" y2="70.8"/><line class="c" x1="74.83" y1="70.8" x2="78.96" y2="70.8"/><line class="c" x1="97.5" y1="70.8" x2="101.63" y2="70.8"/><line class="c" x1="120.18" y1="70.8" x2="124.31" y2="70.8"/><line class="c" x1="142.85" y1="70.8" x2="146.98" y2="70.8"/><line class="c" x1="166.07" y1="70.8" x2="170.2" y2="70.8"/><g><g><path class="c" d="M12.18,70.7v30.73c0,1.61,.15,3.22,.44,4.81l4.34,23.4c.73,3.94,6.37,3.94,7.1,0l4.34-23.4c.29-1.59,.44-3.19,.44-4.81v-30.73"/><ellipse class="c" cx="20.51" cy="70.8" rx="8.97" ry="3.4"/></g><g><path class="c" d="M34.89,70.7v30.73c0,1.61,.15,3.22,.44,4.81l4.34,23.4c.73,3.94,6.37,3.94,7.1,0l4.34-23.4c.29-1.59,.44-3.19,.44-4.81v-30.73"/><ellipse class="c" cx="43.22" cy="70.8" rx="8.97" ry="3.4"/></g><g><path class="c" d="M57.6,70.7v30.73c0,1.61,.15,3.22,.44,4.81l4.34,23.4c.73,3.94,6.37,3.94,7.1,0l4.34-23.4c.29-1.59,.44-3.19,.44-4.81v-30.73"/><ellipse class="c" cx="65.93" cy="70.8" rx="8.97" ry="3.4"/></g><g><path class="c" d="M80.32,70.7v30.73c0,1.61,.15,3.22,.44,4.81l4.34,23.4c.73,3.94,6.37,3.94,7.1,0l4.34-23.4c.29-1.59,.44-3.19,.44-4.81v-30.73"/><ellipse class="c" cx="88.64" cy="70.8" rx="8.97" ry="3.4"/></g><g><path class="c" d="M103.03,70.7v30.73c0,1.61,.15,3.22,.44,4.81l4.34,23.4c.73,3.94,6.37,3.94,7.1,0l4.34-23.4c.29-1.59,.44-3.19,.44-4.81v-30.73"/><ellipse class="c" cx="111.36" cy="70.8" rx="8.97" ry="3.4"/></g><g><path class="c" d="M125.74,70.7v30.73c0,1.61,.15,3.22,.44,4.81l4.34,23.4c.73,3.94,6.37,3.94,7.1,0l4.34-23.4c.29-1.59,.44-3.19,.44-4.81v-30.73"/><ellipse class="c" cx="134.07" cy="70.8" rx="8.97" ry="3.4"/></g><g><path class="c" d="M148.45,70.7v30.73c0,1.61,.15,3.22,.44,4.81l4.34,23.4c.73,3.94,6.37,3.94,7.1,0l4.34-23.4c.29-1.59,.44-3.19,.44-4.81v-30.73"/><ellipse class="c" cx="156.78" cy="70.8" rx="8.97" ry="3.4"/></g><g><path class="c" d="M171.16,70.7v30.73c0,1.61,.15,3.22,.44,4.81l4.34,23.4c.73,3.94,6.37,3.94,7.1,0l4.34-23.4c.29-1.59,.44-3.19,.44-4.81v-30.73"/><ellipse class="c" cx="179.49" cy="70.8" rx="8.97" ry="3.4"/></g></g></g></g><g><line class="c" x1="13.02" y1="84.94" x2="18.04" y2="84.94"/><line class="c" x1="13.02" y1="93.38" x2="18.04" y2="93.38"/></g><g><line class="c" x1="35.81" y1="84.94" x2="40.83" y2="84.94"/><line class="c" x1="35.81" y1="93.38" x2="40.83" y2="93.38"/></g><g><line class="c" x1="58.6" y1="84.94" x2="63.62" y2="84.94"/><line class="c" x1="58.6" y1="93.38" x2="63.62" y2="93.38"/></g><g><line class="c" x1="81.38" y1="84.94" x2="86.4" y2="84.94"/><line class="c" x1="81.38" y1="93.38" x2="86.4" y2="93.38"/></g><g><line class="c" x1="104.17" y1="84.94" x2="109.19" y2="84.94"/><line class="c" x1="104.17" y1="93.38" x2="109.19" y2="93.38"/></g><g><line class="c" x1="126.96" y1="84.94" x2="131.98" y2="84.94"/><line class="c" x1="126.96" y1="93.38" x2="131.98" y2="93.38"/></g><g><line class="c" x1="149.75" y1="84.94" x2="154.77" y2="84.94"/><line class="c" x1="149.75" y1="93.38" x2="154.77" y2="93.38"/></g><g><line class="c" x1="172.54" y1="84.94" x2="177.56" y2="84.94"/><line class="c" x1="172.54" y1="93.38" x2="177.56" y2="93.38"/></g></svg>