<?xml version="1.0" encoding="UTF-8"?><svg xmlns="http://www.w3.org/2000/svg" xmlns:xlink="http://www.w3.org/1999/xlink" viewBox="0 0 100 100"><defs><style>.c{fill:url(#b);}.d{stroke:#8e5e5b;}.d,.e{fill:none;}.d,.e,.f{stroke-linecap:round;stroke-linejoin:round;}.d,.f{stroke-width:3.77px;}.e{stroke:#724040;stroke-width:4px;}.g{isolation:isolate;}.h{fill:#fff;opacity:.8;}.h,.i{mix-blend-mode:overlay;}.i{fill:#020202;opacity:.3;}.f{fill:#a4c638;stroke:#5a5e2d;}</style><linearGradient id="b" x1="50" y1="27.5" x2="50" y2="89.89" gradientTransform="matrix(1, 0, 0, 1, 0, 0)" gradientUnits="userSpaceOnUse"><stop offset="0" stop-color="#fff4b7"/><stop offset="1" stop-color="#ffd8d2"/></linearGradient></defs><g class="g"><g id="a"><g><g><path class="e" d="M61.59,11.24c-5.05,2.98-9.46,11.27-9.46,16.46"/><path class="c" d="M80.31,44.69c-4.27-10.21-14.58-18.4-26.34-16.92-1.58,.2-3.06,.59-4.44,1.12l.03-.1s-6.63-2.79-13.58-.17c-18.88,7.14-23.38,30.79-13.76,47.07,5.42,9.17,16.04,13.91,26.4,14.18,11.24,.29,22.77-4.67,28.86-14.39,5.66-9.03,6.9-21.11,2.84-30.8Z"/><path class="i" d="M80.31,44.69c-.22-.52-.46-1.03-.71-1.54-.08,1.1-.21,2.18-.38,3.25,.05,.77,.08,1.54,.08,2.32,0,19.61-15.9,35.51-35.51,35.51-7.39,0-14.25-2.26-19.93-6.12,5.75,7.58,15.34,11.53,24.75,11.77,11.24,.29,22.77-4.67,28.86-14.39,5.66-9.03,6.9-21.11,2.84-30.8Z"/><path class="d" d="M38.54,67.82c-7.92-11.14-2.94-37.74,15.42-40.05,11.76-1.48,22.07,6.71,26.34,16.92,4.06,9.7,2.82,21.77-2.84,30.8-6.09,9.72-17.62,14.68-28.86,14.39-10.36-.27-20.98-5.01-26.4-14.18-9.62-16.28-5.12-39.94,13.76-47.07,6.95-2.63,13.58,.17,13.58,.17"/><path class="f" d="M48.24,28.34c1.04-8.87-8.87-18.26-24.52-18.09,5.57,5.91-1.39,20.35,24.52,18.09Z"/></g><path class="h" d="M52.88,32.5c-8.12,2.14-11.77,10.32-12.54,15.45-.24,1.59,1.24,.66,3.31-2,3.23-4.16,7.46-9.16,18.38-9.24,.82,0,3.39,.32,4.8,.55,2.14,.35,3.4,.62,1.11-1.41-3.03-2.68-8.54-5.07-15.06-3.35Z"/></g></g></g></svg>