<?xml version="1.0" encoding="UTF-8"?><svg id="_イヤー_1" xmlns="http://www.w3.org/2000/svg" xmlns:xlink="http://www.w3.org/1999/xlink" viewBox="0 0 100 100"><defs><style>.cls-1,.cls-2,.cls-3,.cls-4{fill:none;}.cls-5{fill:#020202;opacity:.05;}.cls-2{stroke-width:3.77px;}.cls-2,.cls-3,.cls-4{stroke-linecap:round;stroke-linejoin:round;}.cls-2,.cls-4{stroke:#4c6847;}.cls-6{fill:url(#_称未設定グラデーション_1002);}.cls-3{stroke:#5a5e2d;stroke-width:2px;}.cls-4{stroke-width:4px;}.cls-7{opacity:.2;}.cls-8{fill:url(#_称未設定グラデーション_11);}</style><linearGradient id="_称未設定グラデーション_11" x1="47.93" y1="36.15" x2="47.93" y2="4.02" gradientTransform="translate(53.26 -20.84) rotate(45)" gradientUnits="userSpaceOnUse"><stop offset="0" stop-color="#007d2e"/><stop offset="1" stop-color="#53a93d"/></linearGradient><linearGradient id="_称未設定グラデーション_1002" x1="14.28" y1="91.21" x2="67.28" y2="38.21" gradientTransform="translate(-4.31 -.98)" gradientUnits="userSpaceOnUse"><stop offset=".64" stop-color="#ffffe8"/><stop offset=".91" stop-color="#c3eb63"/></linearGradient></defs><g><g><path class="cls-8" d="M88.37,33.69l2.68-6.09c.39-.88-.04-1.91-.94-2.25l-5.47-2.06,.17-6.12c.03-1-.79-1.82-1.79-1.79l-6.12,.17-2.06-5.47c-.34-.9-1.37-1.33-2.25-.94l-6.09,2.68c-.82,.36-1.21,1.29-.89,2.13l1.35,3.59c.31,.83-.07,1.75-.88,2.12l-3.61,1.64c-.8,.36-1.18,1.28-.88,2.1l1.25,3.44c.29,.81-.08,1.72-.86,2.09l-1.25,.6c-.77,.37-1.14,1.25-.87,2.06l1.78,5.21-.1,1.73c0,.08,.06,.14,.13,.13l1.73-.1,5.21,1.78c.81,.28,1.69-.1,2.06-.87l.6-1.25c.37-.78,1.28-1.15,2.09-.86l3.44,1.25c.82,.3,1.74-.09,2.1-.88l1.64-3.61c.37-.8,1.29-1.19,2.12-.88l3.59,1.35c.83,.31,1.77-.08,2.13-.89Z"/><g><path class="cls-4" d="M62.7,38.3l5.92,2.03c.81,.28,1.69-.1,2.06-.87l.6-1.25c.37-.78,1.28-1.15,2.09-.86l3.44,1.25c.82,.3,1.74-.09,2.1-.88l1.64-3.61c.37-.8,1.29-1.19,2.12-.88l3.59,1.35c.83,.31,1.77-.08,2.13-.89l2.68-6.09c.39-.88-.04-1.91-.94-2.25l-5.3-1.99"/><path class="cls-4" d="M61.9,37.5l-2.03-5.92c-.28-.81,.1-1.69,.87-2.06l1.25-.6c.78-.37,1.15-1.28,.86-2.09l-1.25-3.44c-.3-.82,.09-1.74,.88-2.1l3.61-1.64c.8-.37,1.19-1.29,.88-2.12l-1.35-3.59c-.31-.83,.08-1.77,.89-2.13l6.09-2.68c.88-.39,1.91,.04,2.25,.94l1.95,5.19"/><path class="cls-4" d="M77.08,31.73l.16-4.14c.04-.92,.78-1.65,1.69-1.67l4-.11c.92-.03,1.67-.77,1.69-1.69l.19-6.94c.03-1-.79-1.82-1.79-1.79l-6.94,.19c-.92,.03-1.67,.77-1.69,1.69l-.11,4c-.03,.92-.76,1.66-1.67,1.69l-4.14,.16c-.91,.04-1.64,.76-1.67,1.67l-.15,3.81c-.04,.9-.75,1.62-1.64,1.67l-1.45,.08c-.88,.05-1.59,.76-1.64,1.64l-.37,6.52c0,.08,.06,.14,.13,.13l6.52-.37c.88-.05,1.59-.76,1.64-1.64l.08-1.45c.05-.9,.77-1.61,1.67-1.64l3.81-.15c.91-.04,1.64-.76,1.67-1.67Z"/></g></g><g><path class="cls-6" d="M9.45,89.65c-.08-.11-.15-.22-.22-.33-.56-.96-.55-2.14-.11-3.16l.66-1.55c1.11-2.6,1.95-5.29,2.7-8.02,3.23-11.68,16.14-23.54,27.08-33.11,11.93-10.44,17.25-12.41,23.41-6.25s4.19,11.47-6.25,23.41c-9.86,11.27-22.15,24.64-34.17,27.34-2.51,.57-4.97,1.37-7.4,2.23l-1.61,.57c-1.47,.52-3.17,.12-4.09-1.13Z"/><path class="cls-5" d="M63.92,38.27c-.47,3.86-3.48,8.57-9.07,15.44-9.45,11.62-21.25,25.42-33.16,28.56-2.49,.66-4.91,1.55-7.31,2.49l-1.59,.63c-1.08,.42-2.3,.34-3.26-.22l-.42,.99c-.44,1.02-.45,2.2,.11,3.16,.07,.11,.14,.23,.22,.33,.93,1.25,2.63,1.65,4.09,1.13l1.61-.57c2.43-.86,4.88-1.66,7.4-2.23,12.01-2.71,24.31-16.07,34.17-27.34,9.85-11.26,12.15-16.63,7.21-22.37Z"/><g class="cls-7"><line class="cls-3" x1="14.23" y1="76.44" x2="16.06" y2="78.27"/><line class="cls-3" x1="30.25" y1="75.35" x2="32.12" y2="77.22"/><line class="cls-3" x1="31.19" y1="59.18" x2="32.84" y2="60.84"/><line class="cls-3" x1="48.74" y1="63.63" x2="51.09" y2="65.98"/></g><path class="cls-2" d="M9.45,89.65c-.08-.11-.15-.22-.22-.33-.56-.96-.55-2.14-.11-3.16l.66-1.55c1.11-2.6,1.95-5.29,2.7-8.02,3.23-11.68,16.14-23.54,27.08-33.11,11.93-10.44,17.25-12.41,23.41-6.25s4.19,11.47-6.25,23.41c-9.86,11.27-22.15,24.64-34.17,27.34-2.51,.57-4.97,1.37-7.4,2.23l-1.61,.57c-1.47,.52-3.17,.12-4.09-1.13Z"/></g></g><rect class="cls-1" width="100" height="100"/></svg>