<?xml version="1.0" encoding="utf-8"?>
<!-- Generator: Adobe Illustrator 26.0.3, SVG Export Plug-In . SVG Version: 6.00 Build 0)  -->
<svg version="1.1" id="design" xmlns="http://www.w3.org/2000/svg" xmlns:xlink="http://www.w3.org/1999/xlink" x="0px" y="0px"
	 viewBox="0 0 350 350" style="enable-background:new 0 0 350 350;" xml:space="preserve">
<style type="text/css">
	.st0{display:none;opacity:0.2;}
	.st1{opacity:0.2;}
	.st2{display:inline;}
</style>
<g>
	<path d="M91.96,246.34h160.57c4.23,0,7.66-3.43,7.66-7.66v-59.24h-13.03v50.22c0,1.91-1.54,3.45-3.45,3.45H165.7
		c-3.9-9.92-11.05-16.72-15.45-20.19c6.05-4.2,18.81-15.03,19.38-32.02c0.55-16.35-12.07-28.05-18.92-33.18
		c5.43-3.08,14.82-9.99,17.91-22.05h15.56v-13.22H91.96c-4.23,0-7.66,3.43-7.66,7.66v118.56C84.3,242.92,87.73,246.34,91.96,246.34z
		 M143.93,217.09c1.51,1.06,4.41,3.28,7.42,6.56h-15.67C139.04,220.33,142.3,218.11,143.93,217.09z M128.48,233.12
		c0.44-0.82,0.9-1.61,1.39-2.38h26.78c0.45,0.76,0.88,1.56,1.29,2.38H128.48z M143.99,208.52c-1.29-0.77-7.35-4.57-12.2-10.99h24.4
		C151.34,203.95,145.28,207.76,143.99,208.52z M160.34,190.43l-32.73-0.07c-0.89-2.11-1.56-4.39-1.9-6.83h36.57
		C161.93,185.99,161.25,188.3,160.34,190.43z M162.27,176.42h-36.55c0.37-2.44,1.12-4.75,2.11-6.91h32.34
		C161.15,171.67,161.89,173.98,162.27,176.42z M155.75,162.41h-23.51c4.34-5.48,9.53-9.23,11.75-10.71
		C146.21,153.18,151.41,156.93,155.75,162.41z M144.16,143.09c-0.06,0.02-0.11,0.06-0.16,0.08c-0.05-0.02-0.1-0.06-0.16-0.08
		c-0.37-0.15-4.98-2.04-9.49-6.15h19.29C149.13,141.05,144.52,142.94,144.16,143.09z M159.36,129.84h-30.73
		c-0.72-1.28-1.35-2.66-1.86-4.14h34.45C160.71,127.18,160.08,128.56,159.36,129.84z M97.33,129.15c0-1.91,1.54-3.45,3.45-3.45
		h18.58c3.09,12.06,12.48,18.96,17.91,22.05c-6.85,5.13-19.46,16.83-18.92,33.18c0.56,16.82,13.08,27.6,19.19,31.88
		c-4.85,3.45-12.79,10.3-16.92,20.32h-19.85c-1.91,0-3.45-1.54-3.45-3.45V129.15z"/>
	<path d="M265.19,104.05h-11.36v-9.82c0-11.36-9.24-20.6-20.6-20.6h-4.58c-11.36,0-20.6,9.24-20.6,20.6v9.82h-10.2
		c-3.63,0-6.58,2.95-6.58,6.58v55.15c0,3.63,2.95,6.58,6.58,6.58h67.33c3.63,0,6.58-2.95,6.58-6.58v-55.15
		C271.77,107,268.82,104.05,265.19,104.05z M240.6,158.51h-18.14c-1.07,0-1.82-1.05-1.48-2.06l6.67-19.76
		c-3.76-1.53-6.41-5.21-6.41-9.52c0-5.68,4.6-10.28,10.28-10.28s10.28,4.6,10.28,10.28c0,4.31-2.65,7.99-6.41,9.52l6.67,19.76
		C242.42,157.46,241.67,158.51,240.6,158.51z M243.89,104.05H218v-9.82c0-5.87,4.78-10.65,10.65-10.65h4.58
		c5.87,0,10.65,4.78,10.65,10.65V104.05z"/>
	<path d="M71.13,254.25v10.25c0,1.67,1.35,3.02,3.02,3.02h76.94v-16.29H74.15C72.48,251.23,71.13,252.58,71.13,254.25z"/>
	<rect x="156.76" y="251.23" width="29.04" height="16.29"/>
	<path d="M268.43,251.23h-76.94v16.29h76.94c1.67,0,3.02-1.35,3.02-3.02v-10.25C271.44,252.58,270.09,251.23,268.43,251.23z"/>
</g>
</svg>
