<?xml version="1.0" encoding="UTF-8"?><svg xmlns="http://www.w3.org/2000/svg" xmlns:xlink="http://www.w3.org/1999/xlink" viewBox="0 0 100 100"><defs><style>.c{fill:url(#b);}.d{fill:none;stroke:#7a5135;stroke-linecap:round;stroke-linejoin:round;stroke-width:3.77px;}.e{fill:#020202;opacity:.1;}.e,.f{mix-blend-mode:overlay;}.g{isolation:isolate;}.f{fill:#fff;opacity:.2;}</style><linearGradient id="b" x1="50" y1="85.86" x2="50" y2="63.56" gradientTransform="matrix(1, 0, 0, 1, 0, 0)" gradientUnits="userSpaceOnUse"><stop offset=".4" stop-color="#b3692d"/><stop offset="1" stop-color="#c68a59"/></linearGradient></defs><g class="g"><g id="a"><g><path class="c" d="M65.76,74.71c.08,6.52-6.54,11.2-15.76,11.15-9.22,.05-15.83-4.63-15.76-11.15-.08-6.52,6.54-11.2,15.76-11.15,9.22-.05,15.83,4.63,15.76,11.15Z"/><path class="e" d="M36.12,75.64c5.36,4.38,23.83,2.22,27.2-4.07,.72-1.83,3.48-.8,2.81,1.06-3.76,8.05-24.73,9.91-31.04,4.41-.89-.74,.22-2.1,1.12-1.37l-.09-.04Z"/><path class="d" d="M65.76,74.71c.08,6.52-6.54,11.2-15.76,11.15-9.22,.05-15.83-4.63-15.76-11.15-.08-6.52,6.54-11.2,15.76-11.15,9.22-.05,15.83,4.63,15.76,11.15Z"/><path class="f" d="M42.84,67.86c-.95,.24-1.85,.7-2.52,1.43-1.04,1.13-1.38,2.53,1.44,1.9,3.59-.8,5.01-4.34,1.08-3.33Z"/></g></g></g></svg>