<?xml version="1.0" encoding="utf-8"?>
<!-- Generator: Adobe Adobe Illustrator 24.2.0, SVG Export Plug-In . SVG Version: 6.00 Build 0)  -->
<svg version="1.1" id="レイヤー_1" xmlns="http://www.w3.org/2000/svg" xmlns:xlink="http://www.w3.org/1999/xlink" x="0px"
	 y="0px" width="1000px" height="1000px" viewBox="0 0 1000 1000" style="enable-background:new 0 0 1000 1000;"
	 xml:space="preserve">
<g>
	<path d="M140.72,859.45c15.71-18.49,20.51-39.39,18.2-62.9c-0.96-9.72-4.75-18.41-6.53-27.76c-3.63-19.09,0.12-36.79,8.6-53.68
		c11.12-22.17,28.47-38.29,50.28-49.7c10.17-5.32,21.17-8.38,32.35-10.79c2.58-0.55,5.17-1.08,8.18-1.71
		c-5.79-11.28-11.27-21.86-14.88-33.32c-6.75-21.44-10.19-43.2-7.82-65.71c1.72-16.34,4.67-32.51,9.75-48.06
		c3.9-11.94,9.18-23.55,14.95-34.74c8.84-17.17,19.77-33.04,32.5-47.67c14.3-16.45,30.73-30.42,47.86-43.82
		c14.44-11.3,25.09-26.16,34.17-42.05c4.2-7.35,7.71-15.03,11.08-22.83c7.07-16.33,6.62-33.02,4.98-50.09
		c-1.67-17.39-2.08-34.65,1.93-52.03c9.25-40.09,31.54-71.72,62.15-97.97c24.39-20.92,52.9-34.37,84.24-40.59
		c16.56-3.28,33.57-3.88,50.81-1.35c29.52,4.33,53.97,16.99,73.05,39.7c12.64,15.04,19.59,32.61,22.93,52.1
		c1.95,11.39,1.74,23.6,9.28,33.75c8.99,12.1,20.76,19.51,35.61,19.87c17.7,0.43,35.41-0.18,52.5,5.38
		c20.78,6.76,38.43,18.24,52.19,35.44c8.51,10.63,15.01,22.5,18.86,35.37c3.05,10.23,6.03,20.66,6.34,31.64
		c0.5,17.79-0.24,35.46-5.45,52.5c-5.5,18.02-12.37,35.49-22.78,51.49c-11.3,17.37-24.48,32.95-40.36,46.21
		c-17.94,14.97-37.84,26.13-60.18,33.66c-14.03,4.73-28.75,4.24-42.65,8.61c-1.82,0.57-4.13-0.07-6.14-0.49
		c-18.27-3.83-33.51,3.26-47.21,14.01c-17.83,14-30.2,32.41-41.16,52.14c-17.98,32.36-40.65,61.16-70.16,83.9
		c-20.23,15.59-42.11,28.34-66.38,37.15c-25.51,9.26-51.5,14.75-78.58,13.89c-15.38-0.49-30.43-3.7-45.17-8.32
		c-14.75-4.62-27.78-12.26-40.79-20.46c-11.79-7.43-25.26-9.52-39.45-7.07c-28.78,4.97-49.23,21.36-62.37,46.48
		c-7,13.39-8.41,27.66-2.69,43.27c5.87,16.05,7.66,33.42,4.31,50.92c-4.19,21.87-12.08,41.89-27.92,57.86
		c-26.87,27.08-59.08,38.1-96.88,29.85C51.4,909.17,48,904.6,48.35,895.66c0.27-6.91,5.39-11.98,12.27-12.35
		c4.2-0.22,8.27,0.51,12.37,1.24c19.37,3.45,37.12-1.19,53.32-11.7C131.62,869.4,136.35,864.83,140.72,859.45z M577.51,533.03
		c3.29-16.26,6.61-32.41,5.99-49.27c-0.97-26.49-8.32-50.46-24.41-71.67c-22.51-29.66-53.31-43.18-89.55-45.33
		c-24.3-1.44-47.71,2.93-70.69,11.51c-19.83,7.41-37.83,17.51-54.76,29.89c-16.67,12.19-31.06,26.8-43.79,42.91
		c-12.63,15.98-22.94,33.57-30.28,52.58c-5.89,15.25-10.49,31-11.88,47.49c-1.33,15.83-1.26,31.71,2.02,47.18
		c3.27,15.41,9.45,29.82,18.68,42.93c13.88,19.72,32.38,33.19,54.69,41.41c18.75,6.91,38.32,8.22,58.24,7.1
		c19.08-1.07,37.29-5.67,54.81-12.67c18.1-7.23,34.99-16.9,50.47-28.9c20.49-15.88,38.24-34.29,52.65-55.92
		C561.77,574.18,570.68,554.67,577.51,533.03z M534.97,323.22c18.81-5.54,36.23-13.96,52.24-25.29
		c18.35-12.97,33.46-29.09,45.34-48.08c11.37-18.18,18.34-38.14,20.43-59.49c1.75-17.86-2.75-34.88-11.49-50.22
		c-11.08-19.43-28.61-30.53-50.09-37.02c-23.26-7.02-45.78-4.07-68.05,2.37c-16.5,4.77-31.63,12.99-45.82,23.04
		c-27.51,19.49-47.84,44.27-59.19,76.2c-8.77,24.67-10.47,49.14,0.19,73.86c6.54,15.17,16.78,26.82,30.7,35.25
		c18.69,11.31,39.03,15.23,60.79,13.54C518.2,326.76,525.85,323.92,534.97,323.22z M795.05,424.42c0.47-0.42,1.05-0.76,1.38-1.26
		c12.88-19.48,23.38-39.85,27.23-63.37c3.46-21.16,2.91-41.52-4.76-61.85c-12.92-34.23-44.16-51.15-77.26-51.05
		c-19.03,0.06-37.31,4.79-54.4,13.54c-25.63,13.13-46.64,31.68-62.33,55.65c-14.67,22.4-24.9,46.5-26.21,74.09
		c-0.97,20.4,1.02,39.93,11.23,57.61c18.67,32.33,51.47,45.09,88.19,39.61c17.29-2.58,33.52-9.03,48.61-18.29
		C765.58,457.54,781.86,443.36,795.05,424.42z M573.44,363.34c2.73-9.48,5.52-18.95,9.89-29.52c-16.44,9.09-32.96,14.26-49.79,19.58
		c13.2,8.01,25.2,16.77,36.68,27.15C571.81,374.6,573.09,369.6,573.44,363.34z M410.25,344.13c7.61-1.32,15.35-2.15,23.66-5.74
		c-9.41-6.26-16.99-12.99-25.1-20.73c-4.39,10.61-8.32,20.11-12.57,30.37C401.73,347.73,405.33,345.49,410.25,344.13z M615.2,495.76
		c-1.05-0.53-2.85-1.69-3.02,0.01c-0.42,4.32-2.11,8.64-0.94,13.8c4.26-2.89,7.91-5.36,12.07-8.19
		C620.51,499.44,618.2,497.84,615.2,495.76z M674.31,228.04c-0.78,2.23-2.35,4.26-1.85,7.24c2.96-1.08,5.72-2.09,9.1-3.32
		C679.26,229.68,677.85,227.43,674.31,228.04z"/>
</g>
</svg>
