<?xml version="1.0" encoding="UTF-8"?><svg xmlns="http://www.w3.org/2000/svg" xmlns:xlink="http://www.w3.org/1999/xlink" viewBox="0 0 100 100"><defs><style>.cls-1,.cls-2,.cls-3{fill:none;}.cls-4{fill:#fff;}.cls-5{fill:#53894c;}.cls-5,.cls-2{stroke:#445641;}.cls-5,.cls-2,.cls-3{stroke-linecap:round;stroke-linejoin:round;stroke-width:4px;}.cls-3{stroke:#772f2f;}.cls-6{opacity:.2;}.cls-7{isolation:isolate;}.cls-8{fill:#020202;mix-blend-mode:overlay;opacity:.15;}.cls-9{fill:url(#_称未設定グラデーション_74);}</style><linearGradient id="_称未設定グラデーション_74" x1="50" y1="90" x2="50" y2="26.83" gradientTransform="matrix(1, 0, 0, 1, 0, 0)" gradientUnits="userSpaceOnUse"><stop offset="0" stop-color="#ee635f"/><stop offset=".84" stop-color="#d44252"/></linearGradient></defs><g class="cls-7"><g id="_イヤー_1"><g><path class="cls-9" d="M56.06,27.36c-2.02-.39-4.04-.54-6.06-.53-2.02-.01-4.05,.14-6.06,.53-15.63,2.98-24.07,8.27-21.34,26.84,1.28,8.68,9.16,23.71,16.92,31.32,2.81,2.76,6.55,4.46,10.49,4.47,3.94-.02,7.68-1.72,10.49-4.47,7.76-7.61,15.64-22.64,16.92-31.32,2.73-18.57-5.71-23.86-21.34-26.84Z"/><path class="cls-8" d="M72.58,33.93c1.24,3.56,1.5,8.1,.64,13.97-1.28,8.68-9.16,23.71-16.92,31.32-2.81,2.76-6.55,4.46-10.49,4.47-3.94-.02-7.68-1.72-10.49-4.47-1.62-1.59-3.24-3.51-4.81-5.62,2.73,4.58,5.87,8.86,9,11.93,2.81,2.76,6.55,4.46,10.49,4.47,3.94-.02,7.68-1.72,10.49-4.47,7.76-7.61,15.64-22.64,16.92-31.32,1.48-10.1-.34-16.27-4.82-20.27Z"/><path class="cls-3" d="M56.06,27.36c-2.02-.39-4.04-.54-6.06-.53-2.02-.01-4.05,.14-6.06,.53-15.63,2.98-24.07,8.27-21.34,26.84,1.28,8.68,9.16,23.71,16.92,31.32,2.81,2.76,6.55,4.46,10.49,4.47,3.94-.02,7.68-1.72,10.49-4.47,7.76-7.61,15.64-22.64,16.92-31.32,2.73-18.57-5.71-23.86-21.34-26.84Z"/><path class="cls-5" d="M61.05,24.64c3.11-4.06,1.24-9.24,1.24-9.24-6.73,1.14-11.65,5.18-12.29,6.21-.65-1.04-5.56-5.07-12.29-6.21,0,0-1.86,5.18,1.24,9.24-1.45-.18-6.83,.59-10.25,5.77,2.17,2.59,10.14,3,15.08,1.51,0,5.86,4.42,10.18,6.22,10.63,1.8-.45,6.22-4.78,6.22-10.63,4.94,1.5,12.91,1.08,15.08-1.51-3.42-5.18-8.8-5.95-10.25-5.77Z"/><path class="cls-2" d="M50,27.02v-1.05c0-5.85,2.07-11.5,5.84-15.97h0"/><g class="cls-6"><g><circle class="cls-4" cx="32.44" cy="53.42" r="1.86"/><circle class="cls-4" cx="43.95" cy="53.42" r="1.86"/><circle class="cls-4" cx="55.46" cy="53.42" r="1.86"/><circle class="cls-4" cx="66.97" cy="53.42" r="1.86"/></g><g><circle class="cls-4" cx="38.2" cy="64" r="1.86"/><circle class="cls-4" cx="49.7" cy="64" r="1.86"/><circle class="cls-4" cx="61.21" cy="64" r="1.86"/></g><g><circle class="cls-4" cx="38.2" cy="42.84" r="1.86"/><circle class="cls-4" cx="61.21" cy="42.84" r="1.86"/></g><g><circle class="cls-4" cx="43.95" cy="74.59" r="1.86"/><circle class="cls-4" cx="55.46" cy="74.59" r="1.86"/></g></g></g><rect class="cls-1" width="100" height="100"/></g></g></svg>