<?xml version="1.0" encoding="utf-8"?>
<!-- Generator: Adobe Adobe Illustrator 24.2.0, SVG Export Plug-In . SVG Version: 6.00 Build 0)  -->
<svg version="1.1" id="レイヤー_1" xmlns="http://www.w3.org/2000/svg" xmlns:xlink="http://www.w3.org/1999/xlink" x="0px"
	 y="0px" width="1000px" height="1000px" viewBox="0 0 1000 1000" style="enable-background:new 0 0 1000 1000;"
	 xml:space="preserve">
<style type="text/css">
	.st0{fill:#050505;}
	.st1{fill:#040404;}
	.st2{fill:#F6D669;}
	.st3{fill:#FEFCD7;}
	.st4{fill:#F9C96A;}
	.st5{fill:#EBA32F;}
	.st6{fill:#F7D767;}
	.st7{fill:#FAC969;}
	.st8{fill:#FEEDA5;}
</style>
<g>
	<path class="st0" d="M331.85,711.18c18.85,10.65,37.28,21.3,55.96,31.51c6.7,3.67,9.84,8.25,9.77,16.21
		c-0.19,24.31,0.21,48.63,0.66,72.95c0.13,7.13-2.5,11.91-8.76,15.39c-22.53,12.52-44.93,25.27-67.34,38
		c-2.66,1.51-4.79,1.88-7.74,0.18c-23.48-13.51-47.04-26.9-70.7-40.1c-5.02-2.8-6.98-6.45-6.88-12.08
		c0.43-24.98,0.67-49.96,0.83-74.95c0.03-4.68,1.93-7.95,5.83-10.26c23.76-14.06,47.47-28.19,71.36-42.03
		c1.89-1.09,5.19-0.7,7.47,0.08C325.57,707.2,328.48,709.31,331.85,711.18z M381.03,834.04c0,0,0.02,0.09,0.75,0.23
		c0.13-0.4,0.26-0.79,0.31-1.26c0,0,0.01,0.1,0.85-0.23c0.3-24.21,0.61-48.41,0.87-72.62c0.01-0.9-0.53-1.81-1.22-3.25
		c-1.76-0.79-3.63-1.39-5.25-2.39c-4.36-2.7-8.5-5.75-12.92-8.34c-5.87-3.44-12.02-6.41-17.87-9.89
		c-8.11-4.83-15.99-10.03-24.12-14.82c-1.19-0.7-3.5-0.56-4.77,0.14c-7.77,4.24-15.35,8.81-23.07,13.15
		c-13.41,7.54-26.93,14.89-40.24,22.59c-1.58,0.91-3.13,3.48-3.13,5.28c0.03,22.31,0.28,44.62,0.72,66.92
		c0.03,1.7,1.48,4.04,2.96,4.93c18.54,11.17,37.22,22.09,55.83,33.14c4.35,2.58,7.57,4.92,13.35,0.81
		c10.86-7.72,22.97-13.68,34.51-20.44c7.15-4.19,14.22-8.52,21.97-12.95C380.76,834.7,380.94,834.37,381.03,834.04z"/>
	<path class="st0" d="M250.66,548.29c-17.68-10.15-15.83-6.45-15.7-26.65c0.14-21.49,0.6-42.97,0.65-64.45
		c0.01-5.51,2.19-9.07,6.78-11.77c23.37-13.73,46.64-27.65,70.11-41.21c2.02-1.17,5.82-1.21,7.86-0.09
		c23.16,12.75,46.15,25.8,69.13,38.87c4.03,2.29,5.93,5.89,5.95,10.76c0.13,25.65,0.37,51.3,0.77,76.95
		c0.1,6.56-2.52,11.03-8.19,14.2c-22.78,12.75-45.52,25.58-68.2,38.51c-2.85,1.63-4.94,1.41-7.73-0.19
		C291.79,571.53,271.37,560.04,250.66,548.29z M268.26,541.65c14.93,8.81,29.83,17.67,44.83,26.35c1.42,0.82,3.86,1.31,5.16,0.64
		c4.38-2.23,8.47-5.05,13.37-7.72c15.44-9.12,30.91-18.18,46.25-27.46c1.52-0.92,3.18-3.11,3.22-4.75
		c0.47-23.14,0.72-46.28,0.8-69.43c0.01-1.74-1.24-4.24-2.68-5.11c-19.48-11.73-39.07-23.27-58.73-34.69
		c-1.22-0.71-3.55-0.67-4.8,0.02c-21.31,11.87-42.56,23.85-63.72,35.98c-1.39,0.8-2.84,2.98-2.84,4.51
		c0.09,22.65,0.39,45.29,0.79,67.93c0.02,1.36,0.96,3.26,2.07,3.95C257.17,535.14,262.57,538.05,268.26,541.65z"/>
	<path class="st0" d="M435.21,720.17c-8,4.49-15.71,8.76-23.33,13.19c-2.51,1.46-4.53,1.74-7.3,0.15
		c-23.63-13.58-47.34-27.05-71.13-40.35c-4.84-2.71-6.7-6.32-6.62-11.73c0.4-24.98,0.67-49.96,0.81-74.95
		c0.03-4.89,2.01-8.21,6.09-10.62c23.63-13.95,47.19-28.02,70.95-41.75c2-1.15,5.81-1.06,7.88,0.09
		c23.01,12.68,45.85,25.66,68.69,38.63c4.22,2.4,6.19,6.06,6.21,11.13c0.12,25.32,0.33,50.63,0.78,75.95
		c0.13,7.15-2.55,11.92-8.82,15.36C464.7,703.34,450.16,711.74,435.21,720.17z M466.99,685.53c2.05-2.27,6.32-2.01,6.33-6.72
		c0.07-23.31,0.48-46.62,0.57-69.93c0.01-1.61-1.2-3.93-2.54-4.74c-19.55-11.79-39.21-23.41-58.92-34.93
		c-1.09-0.64-3.19-0.62-4.31,0c-21.49,12.01-42.94,24.11-64.29,36.36c-1.36,0.78-2.73,2.97-2.73,4.5c0.1,22.64,0.38,45.28,0.8,67.92
		c0.03,1.45,1.23,3.47,2.48,4.22c20.13,12.07,40.39,23.92,60.53,35.97c2.69,1.61,4.58,1.2,7.12-0.31
		C430.1,707.13,448.25,696.57,466.99,685.53z"/>
	<path class="st1" d="M633.93,249.04c-9.16-5.16-17.92-10.27-26.84-15.11c-4.5-2.44-6.32-5.9-6.24-10.93
		c0.37-25.31,0.65-50.63,0.81-75.94c0.03-5.22,2.73-8.27,6.86-10.69c21.93-12.9,44.02-25.55,65.66-38.92
		c6.41-3.96,11.14-3.44,17.25,0.13c19.66,11.5,39.52,22.68,59.53,33.56c7.37,4.01,10.8,8.94,10.67,17.74
		c-0.34,23.97,0.17,47.97,0.61,71.94c0.13,7.13-2.48,11.91-8.75,15.39c-22.53,12.52-44.94,25.25-67.33,38.01
		c-2.92,1.67-5.18,1.7-8.19-0.06C663.5,265.7,648.85,257.5,633.93,249.04z M645.35,130.87c-8.9,4.98-17.76,10.02-26.71,14.89
		c-2.82,1.53-3.8,3.44-3.73,6.71c0.42,20.79,0.86,41.59,0.68,62.38c-0.05,5.73,2.16,8.46,6.78,11.1
		c17.14,9.79,34.22,19.71,50.98,30.14c5.97,3.71,10.33,4.83,16.93,0.6c17.58-11.28,35.87-21.45,53.78-32.22
		c1.42-0.86,2.76-2.77,3.06-4.39c0.66-3.56,0.83-7.24,0.84-10.88c0.08-20,0.09-39.99-0.03-59.99c-0.01-1.3-0.97-3.15-2.06-3.8
		c-19.46-11.66-39.04-23.15-58.52-34.78c-2.4-1.43-4.17-1.44-6.65,0.01C669.2,117.39,657.55,123.88,645.35,130.87z"/>
	<path class="st1" d="M462.62,724.66c11.76-6.97,23.11-13.93,34.76-20.34c2.18-1.2,6.14-1.24,8.3-0.05
		c22.87,12.58,45.56,25.5,68.27,38.37c4.4,2.49,6.5,6.18,6.52,11.46c0.1,25.15,0.28,50.3,0.79,75.44c0.15,7.6-2.81,12.42-9.38,16.05
		c-22.26,12.32-44.37,24.9-66.46,37.52c-3.12,1.78-5.5,1.75-8.64-0.05c-23.34-13.42-46.75-26.73-70.26-39.87
		c-4.81-2.69-6.79-6.24-6.7-11.68c0.41-24.98,0.69-49.96,0.8-74.95c0.02-5.39,2.51-8.67,6.86-11.21
		C439.13,738.58,450.71,731.7,462.62,724.66z M566.99,788.5c0.01-10,0.08-20-0.06-29.99c-0.02-1.33-0.79-3.25-1.83-3.87
		c-19.65-11.82-39.36-23.55-59.2-35.07c-1.5-0.87-4.37-0.65-6.02,0.2c-6.84,3.51-13.46,7.48-20.17,11.25
		c-13.85,7.8-27.7,15.61-41.58,23.36c-2.99,1.67-4.33,3.72-4.25,7.43c0.48,21.29,0.79,42.58,0.79,63.87c0,4.13,1.53,6.33,4.79,8.23
		c19.83,11.53,39.59,23.18,59.46,34.65c1.21,0.7,3.5,0.82,4.66,0.14c20.11-11.74,40.14-23.62,60.1-35.62
		c1.24-0.75,2.38-2.75,2.43-4.21C566.55,815.75,566.73,802.63,566.99,788.5z"/>
	<path class="st1" d="M761.56,745.68c0.76,2.52,1.74,4.74,1.77,6.98c0.36,25.65,0.5,51.3,0.89,76.94c0.1,6.54-2.42,11.07-8.1,14.25
		c-22.78,12.76-45.5,25.61-68.21,38.48c-2.5,1.42-4.5,1.81-7.3,0.2c-23.63-13.59-47.34-27.04-71.12-40.37
		c-4.58-2.57-6.74-5.9-6.66-11.19c0.39-25.31,0.66-50.63,0.81-75.94c0.03-5.23,2.76-8.26,6.88-10.68
		c21.93-12.9,44.02-25.54,65.66-38.92c6.43-3.97,11.16-3.4,17.25,0.16c19.95,11.66,40.21,22.79,60.29,34.23
		C756.45,741.37,758.81,743.51,761.56,745.68z M730.88,743.29c-14.02-8.32-28.02-16.69-42.11-24.88c-1.26-0.73-3.54-0.96-4.76-0.32
		c-5.16,2.72-10.1,5.86-15.84,8.9c-1.27,0.72-2.53,1.45-3.81,2.17c-14.14,7.95-28.24,15.97-42.45,23.79
		c-3.52,1.94-5.13,4.15-5.02,8.46c0.52,20.93,0.82,41.88,0.78,62.82c-0.01,4.5,1.65,6.76,5.29,8.88
		c16.16,9.38,32.47,18.54,48.12,28.72c8.94,5.82,16.77,8.47,25.28,0.19c0.23-0.23,0.55-0.37,0.83-0.54
		c16.36-9.68,32.75-19.33,49.04-29.12c1.31-0.79,2.61-2.5,2.87-3.96c0.62-3.56,0.84-7.23,0.85-10.85c0.08-20.15,0.07-40.29,0-60.44
		c0-1.1-0.52-2.71-1.33-3.2C742.9,750.44,737.04,747.22,730.88,743.29z"/>
	<path class="st1" d="M418.57,170c0.05-7.33,0.32-14.17,0.07-20.99c-0.2-5.57,2.38-9.02,6.92-11.69
		c21.67-12.71,43.46-25.23,64.82-38.45c6.78-4.2,11.9-4,18.6-0.03c19.75,11.69,39.81,22.87,59.94,33.9
		c6.74,3.69,9.73,8.37,9.66,16.29c-0.19,24.32,0.21,48.65,0.66,72.98c0.13,7.18-2.68,11.85-8.91,15.31
		c-22.39,12.45-44.67,25.09-66.91,37.81c-3.12,1.78-5.5,1.76-8.64-0.05c-23.35-13.43-46.77-26.74-70.29-39.89
		c-4.83-2.7-6.78-6.27-6.67-11.7C418.21,205.83,418.34,188.16,418.57,170z M564.99,171.5c0.01-7,0.11-14-0.06-20.99
		c-0.03-1.34-0.79-3.25-1.83-3.87c-19.65-11.82-39.36-23.55-59.2-35.07c-1.5-0.87-4.37-0.65-6.02,0.2
		c-6.84,3.51-13.46,7.47-20.17,11.25c-13.85,7.8-27.7,15.61-41.58,23.36c-2.99,1.67-4.33,3.72-4.25,7.44
		c0.48,20.95,0.78,41.91,0.79,62.87c0,4.73,1.54,7.24,5.68,9.62c17.77,10.2,35.34,20.76,52.83,31.43
		c5.39,3.29,10.24,5.08,15.57,0.09c1.65-1.54,3.86-2.49,5.84-3.66c16.23-9.59,32.49-19.14,48.66-28.84c1.31-0.78,2.7-2.54,2.84-3.97
		c0.55-5.93,0.79-11.91,0.86-17.87C565.08,193.16,564.99,182.83,564.99,171.5z"/>
	<path class="st1" d="M366.87,250.84c-15.53,8.76-30.77,17.27-45.89,25.99c-3.35,1.93-5.97,2.16-9.53,0.1
		c-23.17-13.4-46.45-26.6-69.8-39.66c-4.78-2.68-6.9-6.13-6.81-11.61c0.41-25.15,0.65-50.3,0.83-75.44
		c0.03-4.46,1.73-7.73,5.47-9.95c23.89-14.17,47.79-28.31,71.7-42.44c3.8-2.25,7.05-0.27,10.26,1.54
		c19.26,10.86,38.21,22.33,57.89,32.38c10.92,5.58,15.28,12.51,14.8,25.01c-0.86,22.44,0.04,44.96,0.46,67.44
		c0.13,6.96-2.49,11.71-8.63,14.95C380.7,242.79,373.99,246.81,366.87,250.84z M315.66,113.05c-4.56,2.64-9.1,5.33-13.69,7.92
		c-16.33,9.21-32.64,18.46-49.06,27.52c-3.24,1.79-4.09,4-4.02,7.57c0.44,20.96,0.77,41.92,0.75,62.89c0,4.64,1.56,6.99,5.53,9.26
		c17.3,9.85,34.54,19.83,51.42,30.37c6.35,3.96,10.97,5.51,18.18,0.81c17.35-11.32,35.58-21.29,53.34-31.99
		c1.48-0.89,2.64-3.11,3.01-4.91c0.66-3.21,0.81-6.58,0.82-9.88c0.08-20.16,0.09-40.33-0.03-60.49c-0.01-1.29-1.04-3.11-2.14-3.76
		c-19.47-11.66-39-23.21-58.6-34.66C319.88,112.93,318,113.12,315.66,113.05z"/>
	<path class="st1" d="M191.01,574.05c10.34-6.09,20.4-11.97,30.36-17.99c4.02-2.43,7.33-0.62,10.7,1.29
		c19.26,10.86,38.22,22.33,57.89,32.39c10.91,5.58,15.31,12.48,14.82,24.99c-0.87,22.44,0.03,44.96,0.45,67.44
		c0.13,6.95-2.54,11.59-8.6,14.97c-22.52,12.54-44.92,25.28-67.33,38.02c-2.82,1.61-5.06,1.92-8.18,0.11
		c-23.18-13.38-46.45-26.6-69.84-39.6c-5.3-2.95-7.6-6.65-7.48-12.75c0.48-24.81,0.72-49.63,0.83-74.44
		c0.02-5.41,2.64-8.62,6.96-11.16C164.65,589.65,177.65,581.91,191.01,574.05z M199.55,706.97c5.51,3.24,11.32,6.07,16.45,9.83
		c6,4.39,10.72,5.15,17.66,0.65c17.44-11.32,35.7-21.39,53.55-32.08c1.31-0.79,2.63-2.48,2.89-3.94c0.63-3.56,0.84-7.23,0.86-10.85
		c0.08-20.15,0.08-40.3-0.02-60.46c-0.01-1.17-0.8-2.85-1.75-3.42c-19.79-11.89-39.63-23.71-59.58-35.33
		c-1.39-0.81-4.04-0.47-5.63,0.3c-4.41,2.15-8.55,4.86-12.84,7.28c-16.41,9.24-32.81,18.48-49.27,27.63
		c-2.9,1.61-4.05,3.59-3.98,7.06c0.46,21.94,0.58,43.89,1.05,65.83c0.04,1.7,1.4,4.05,2.86,4.95
		C174.09,691.94,186.53,699.21,199.55,706.97z"/>
	<path class="st1" d="M579.42,727.51c-21.6-12.21-42.87-24.24-64.21-36.17c-3.8-2.13-5.37-5.22-5.32-9.4
		c0.28-25.81,0.59-51.63,0.79-77.44c0.04-5.04,2.97-7.86,6.88-10.16c21.93-12.91,44.03-25.54,65.66-38.93
		c6.45-3.99,11.18-3.33,17.25,0.21c20.11,11.72,40.45,23.05,60.81,34.33c6.28,3.48,9.34,7.9,9.29,15.5
		c-0.18,24.48,0.21,48.97,0.67,73.44c0.13,7.14-2.55,11.89-8.8,15.36c-22.38,12.44-44.65,25.08-66.87,37.81
		c-3.32,1.9-6,2.12-9.07-0.17C584.38,730.31,581.99,729.1,579.42,727.51z M572.5,708.03c3.23,1.91,6.71,3.5,9.63,5.8
		c5.86,4.6,10.69,5.04,17.58,0.57c17.39-11.29,35.61-21.29,53.37-32.02c1.55-0.94,2.56-3.39,3.02-5.33
		c0.68-2.86,0.85-5.88,0.86-8.84c0.07-21.29,0.03-42.59,0.03-63.72c-1.42-0.76-2.61-1.35-3.74-2.02
		c-18.81-11.16-37.65-22.28-56.39-33.56c-2.91-1.75-4.91-1.66-7.84,0.23c-6.16,3.97-12.76,7.27-19.17,10.86
		c-13.96,7.83-27.88,15.73-41.89,23.47c-3.14,1.74-4.15,3.9-4.07,7.52c0.47,21.77,0.58,43.54,1.07,65.3
		c0.04,1.82,1.53,4.33,3.1,5.29C542.59,690.4,557.26,698.96,572.5,708.03z"/>
	<path class="st1" d="M851,654c0.06,8.66-0.01,16.83,0.2,24.99c0.16,6.12-2.24,10.52-7.58,13.53
		c-23.05,12.97-46.03,26.06-69.17,38.88c-1.73,0.96-4.94,0.93-6.68-0.04c-23.97-13.35-47.77-27-71.7-40.43
		c-4.46-2.5-6.31-5.91-6.23-10.94c0.37-25.32,0.65-50.65,0.81-75.98c0.03-5.24,2.79-8.25,6.9-10.68
		c21.65-12.75,43.45-25.24,64.81-38.46c6.78-4.19,11.9-4.02,18.6-0.05c19.75,11.69,39.81,22.87,59.94,33.9
		c6.73,3.69,9.84,8.35,9.67,16.29C850.24,621.17,850.81,637.34,851,654z M757.5,710.02c4.35,2.61,8.69,7.26,13.05,7.28
		c4.55,0.02,9.2-4.28,13.68-6.91c16.4-9.62,32.76-19.3,49.06-29.07c1.23-0.73,2.6-2.21,2.79-3.5c0.59-4.08,0.85-8.23,0.87-12.36
		c0.09-19.49-0.01-38.97,0.13-58.46c0.02-2.7-0.89-3.91-3.17-5.26c-18.92-11.12-37.73-22.44-56.57-33.7
		c-2.8-1.68-5.23-2.38-8.35,0.08c-3.31,2.61-7.35,4.29-11.08,6.37c-16.57,9.28-33.12,18.59-49.72,27.82
		c-3.2,1.78-4.41,4.04-4.32,7.9c0.51,21.61,0.72,43.22,0.87,64.83c0.02,2.89,1.02,4.44,3.45,5.86
		C724.48,690.39,740.67,700.02,757.5,710.02z"/>
	<path class="st1" d="M802.84,261.19c13.79,7.78,27.2,15.49,40.75,22.92c6.15,3.37,9.01,7.82,8.97,15.18
		c-0.14,24.48,0.21,48.97,0.69,73.44c0.14,7.38-2.7,12.15-9.11,15.7c-22.39,12.42-44.64,25.1-66.91,37.73
		c-2.6,1.48-4.74,2.02-7.74,0.29c-23.48-13.52-47.03-26.91-70.69-40.11c-4.98-2.78-7.07-6.36-6.97-12.02
		c0.43-24.98,0.68-49.96,0.83-74.94c0.03-4.91,2.11-8.18,6.17-10.57c23.63-13.95,47.17-28.05,70.96-41.72
		c2.14-1.23,6.27-0.6,8.74,0.63C786.71,251.79,794.55,256.53,802.84,261.19z M726.86,385.62c13.46,8.03,27.04,15.88,40.32,24.2
		c4.65,2.91,8.3,3.32,12.47-0.5c1.88-1.73,4.47-2.68,6.73-4.01c16.32-9.64,32.66-19.25,48.9-29c1.29-0.78,2.54-2.51,2.8-3.97
		c0.62-3.56,0.86-7.22,0.87-10.84c0.08-20.15,0.08-40.3-0.02-60.45c-0.01-1.15-0.83-2.8-1.79-3.38
		c-19.74-11.85-39.52-23.64-59.41-35.23c-1.42-0.82-4.1-0.69-5.62,0.1c-6.94,3.62-13.68,7.62-20.49,11.5
		c-14.19,8.08-28.43,16.09-42.5,24.39c-1.55,0.91-2.99,3.47-3.01,5.28c-0.21,18.65-0.25,37.3-0.05,55.95
		c0.08,8.07-0.22,16.49,9.88,19.95C719.59,380.85,722.83,383.29,726.86,385.62z"/>
	<path class="st1" d="M536.17,399.8c-7.55-4.29-14.72-8.49-22.01-12.49c-3.62-1.99-5.29-4.93-5.25-8.93
		c0.26-26.15,0.56-52.29,0.83-78.44c0.05-4.6,2.87-7.22,6.48-9.35c21.92-12.93,44.02-25.56,65.63-38.97
		c6.56-4.08,11.38-3.68,17.7,0.02c19.93,11.69,40.1,22.99,60.37,34.1c6.73,3.69,9.73,8.35,9.67,16.28
		c-0.19,24.31,0.21,48.63,0.66,72.95c0.13,7.16-2.63,11.87-8.86,15.33c-22.38,12.44-44.65,25.09-66.88,37.79
		c-3.08,1.76-5.46,1.89-8.64,0.04C569.49,418.59,552.96,409.33,536.17,399.8z M610.61,403.09c1.55-0.91,3.11-1.8,4.65-2.72
		c12.41-7.35,24.84-14.67,37.18-22.13c1.2-0.73,2.47-2.28,2.66-3.59c0.57-4.08,0.83-8.23,0.85-12.36
		c0.09-19.48,0.01-38.96,0.13-58.44c0.02-2.45-0.7-3.71-2.85-4.97c-19.07-11.2-38.06-22.52-57.03-33.9
		c-2.96-1.77-5.3-1.97-8.33,0.24c-3.69,2.68-7.97,4.52-11.98,6.77c-16.28,9.14-32.53,18.34-48.84,27.42
		c-3.06,1.7-4.25,3.81-4.17,7.48c0.47,21.27,0.79,42.54,0.78,63.82c0,4.15,1.58,6.32,4.82,8.21c19.68,11.44,39.36,22.88,58.91,34.54
		c2.25,1.34,3.65,1.31,5.67,0.09C598.67,410.14,604.36,406.86,610.61,403.09z"/>
	<path class="st1" d="M326.73,301.09c1.83-3.24,2.97-7.13,5.54-8.69c23.72-14.43,47.64-28.53,71.67-42.45
		c1.87-1.08,5.48-0.92,7.45,0.17c23.13,12.78,46.13,25.81,69.11,38.88c4.03,2.29,5.93,5.89,5.96,10.76
		c0.13,25.64,0.37,51.29,0.77,76.93c0.1,6.56-2.5,11.04-8.16,14.21c-22.77,12.75-45.49,25.6-68.19,38.48
		c-2.53,1.44-4.54,1.72-7.3,0.14c-23.63-13.58-47.33-27.04-71.11-40.34c-4.84-2.7-6.71-6.31-6.62-11.72
		C326.24,352.13,326.44,326.82,326.73,301.09z M340,313.55c0.27,19.46,0.71,38.92,0.67,58.37c-0.01,4,1.56,6.04,4.61,7.82
		c19.95,11.66,39.85,23.39,59.86,34.95c1.17,0.68,3.42,0.55,4.66-0.12c5.48-2.98,10.76-6.3,16.13-9.48
		c14.53-8.6,29.08-17.16,43.55-25.86c1.2-0.72,2.42-2.28,2.62-3.61c0.58-3.75,0.84-7.57,0.85-11.37c0.08-20,0.08-39.99-0.01-59.99
		c-0.01-1.19-0.7-2.93-1.63-3.49c-19.94-11.99-39.93-23.9-60.03-35.62c-1.26-0.74-3.81-0.37-5.23,0.42
		c-19.17,10.71-38.08,21.91-57.45,32.26C342.11,301.3,338.45,305.06,340,313.55z"/>
	<path class="st1" d="M145.82,297.1c9.85-6.23,19.38-12.29,29.07-18.09c14.98-8.97,30.11-17.68,45.06-26.72
		c4.23-2.56,7.59-0.95,11.14,1.06c19.25,10.87,38.21,22.33,57.88,32.39c10.91,5.58,15.3,12.49,14.82,24.99
		c-0.87,22.44,0.04,44.96,0.46,67.43c0.13,6.95-2.54,11.59-8.6,14.97c-22.51,12.54-44.92,25.28-67.33,38.01
		c-2.82,1.6-5.05,1.92-8.18,0.12c-23.18-13.37-46.45-26.59-69.83-39.6c-5.29-2.94-7.61-6.64-7.49-12.75
		c0.48-24.81,0.58-49.63,0.98-74.44C143.82,302.11,144.95,299.75,145.82,297.1z M248.42,403.97c12.64-7.53,25.3-15.01,37.86-22.67
		c1.29-0.79,2.55-2.51,2.8-3.97c0.62-3.56,0.86-7.22,0.87-10.84c0.08-20.15,0.08-40.3-0.02-60.45c-0.01-1.15-0.83-2.81-1.78-3.38
		c-19.73-11.85-39.51-23.63-59.4-35.22c-1.42-0.83-4.1-0.7-5.62,0.09c-6.94,3.62-13.67,7.65-20.49,11.5
		c-13.8,7.78-27.59,15.58-41.43,23.29c-3.19,1.78-4.42,4.01-4.33,7.88c0.51,21.1,0.79,42.2,0.84,63.31
		c0.01,3.97,1.17,6.34,4.58,8.31c19.93,11.52,39.75,23.24,59.67,34.77c1.12,0.65,3.17,0.9,4.21,0.32
		C233.44,412.8,240.54,408.43,248.42,403.97z"/>
	<path class="st1" d="M602.55,448.07c1.99-2.03,3.54-4.12,5.6-5.35c23.41-13.98,46.85-27.92,70.46-41.56
		c2.01-1.16,5.81-1.11,7.87,0.02c23.01,12.68,45.85,25.65,68.69,38.62c4.21,2.39,6.25,6.01,6.27,11.09
		c0.12,25.48,0.35,50.96,0.77,76.44c0.11,6.73-2.41,11.36-8.29,14.64c-22.64,12.65-45.21,25.44-67.76,38.25
		c-2.64,1.5-4.77,1.93-7.74,0.22c-23.48-13.52-47.03-26.9-70.69-40.09c-5-2.79-7.02-6.41-6.92-12.05
		c0.43-24.98,0.6-49.96,0.91-74.94C601.75,451.7,602.14,450.06,602.55,448.07z M659.64,553.96c4.66,2.72,9.55,5.14,13.94,8.25
		c5.51,3.91,10.63,5.86,16.34,0.49c1.52-1.43,3.59-2.28,5.43-3.36c16.36-9.68,32.75-19.3,49.05-29.1c1.29-0.77,2.45-2.56,2.72-4.05
		c0.61-3.4,0.83-6.9,0.85-10.36c0.07-21.14,0.03-42.29,0.03-63.24c-19.79-11.77-39.37-23.39-58.91-35.07
		c-3.25-1.94-5.97-3.04-9.6-0.07c-3.37,2.76-7.67,4.36-11.53,6.53c-16.28,9.13-32.54,18.31-48.84,27.4
		c-3.02,1.68-4.3,3.75-4.21,7.45c0.47,20.94,0.78,41.89,0.79,62.83c0,4.72,1.49,7.28,5.67,9.62
		C634.08,538.4,646.49,546.09,659.64,553.96z"/>
	<path class="st1" d="M418.14,502c0.2-15.99,0.52-31.49,0.49-46.98c-0.01-5.29,2.06-8.79,6.51-11.41
		c23.52-13.84,46.93-27.85,70.56-41.5c2-1.15,5.81-1.05,7.88,0.1c23.01,12.69,45.87,25.67,68.72,38.65c4.23,2.4,6.15,6.1,6.17,11.16
		c0.11,25.33,0.32,50.65,0.78,75.98c0.13,7.18-2.67,11.86-8.9,15.32c-22.39,12.45-44.67,25.09-66.91,37.81
		c-3.11,1.78-5.5,1.77-8.64-0.04c-23.35-13.43-46.77-26.74-70.29-39.89c-4.82-2.7-6.85-6.26-6.68-11.7
		C418.13,520.5,418.05,511.5,418.14,502z M549.97,444.45c-14.54-8.54-29.12-17.02-43.59-25.67c-3.43-2.05-6.18-3.33-9.98-0.27
		c-3.39,2.73-7.69,4.32-11.55,6.49c-16.28,9.14-32.51,18.35-48.83,27.43c-3.1,1.72-4.21,3.85-4.13,7.5
		c0.47,21.11,0.81,42.22,0.77,63.33c-0.01,4.55,1.74,6.74,5.34,8.83c16.15,9.39,32.46,18.55,48.1,28.74
		c8.96,5.85,16.79,8.36,25.29,0.14c0.24-0.23,0.54-0.39,0.83-0.55c16.36-9.68,32.75-19.32,49.04-29.11c1.31-0.78,2.7-2.55,2.83-3.97
		c0.55-6.1,0.81-12.23,0.86-18.36c0.12-12.82,0.05-25.65,0.03-38.47c-0.01-5.66,1.75-12.35-0.68-16.68
		C561.95,449.63,555.28,447.83,549.97,444.45z"/>
	<path class="st2" d="M379.93,835.19c-7.1,4.27-14.17,8.6-21.32,12.79c-11.54,6.77-23.65,12.73-34.51,20.44
		c-5.78,4.11-9,1.77-13.35-0.81c-18.61-11.05-37.29-21.98-55.83-33.14c-1.48-0.89-2.93-3.24-2.96-4.93
		c-0.44-22.3-0.69-44.61-0.72-66.92c0-1.8,1.55-4.37,3.13-5.28c13.32-7.7,26.83-15.05,40.24-22.59c7.72-4.34,15.3-8.91,23.07-13.15
		c1.28-0.7,3.59-0.84,4.77-0.14c8.13,4.79,16.01,10,24.12,14.82c5.85,3.48,12,6.45,17.87,9.89c4.42,2.59,8.57,5.64,12.92,8.34
		c1.62,1.01,3.49,1.61,5.51,3.17c-0.13,17.99-0.58,35.21-0.87,52.43c-0.13,7.66,0.08,15.32,0.13,22.99c0,0-0.01-0.1-0.27-0.02
		c-0.44,0.4-0.62,0.72-0.8,1.05c0,0-0.02-0.09-0.25,0C380.36,834.55,380.14,834.87,379.93,835.19z M267.15,773.84
		c3.26-0.79,6.75-1.08,9.72-2.48c4.02-1.9,7.65-4.63,11.44-7.02c7.58-4.78,15.19-9.5,22.71-14.37c4.04-2.61,5.29-6.68,3.4-10.18
		c-1.87-3.47-5.72-4.17-10.42-1.84c-1.04,0.51-2.04,1.11-3.03,1.73c-11.1,6.97-22.18,13.97-33.28,20.93
		C262,764.18,261.53,768.62,267.15,773.84z"/>
	<path class="st3" d="M382.53,832.95c-0.47-7.5-0.68-15.16-0.55-22.82c0.29-17.22,0.74-34.44,1.07-52.16
		c0.23,0.4,0.77,1.31,0.76,2.21C383.56,784.37,383.25,808.58,382.53,832.95z"/>
	<path class="st3" d="M381.42,834.2c-0.19-0.39-0.01-0.72,0.47-1.08C382.04,833.48,381.91,833.87,381.42,834.2z"/>
	<path class="st3" d="M380.25,835.11c-0.11-0.24,0.11-0.56,0.6-0.98C380.94,834.37,380.76,834.7,380.25,835.11z"/>
	<path class="st4" d="M267.89,541.08c-5.32-3.03-10.72-5.94-15.91-9.18c-1.11-0.69-2.05-2.59-2.07-3.95
		c-0.4-22.64-0.7-45.29-0.79-67.93c-0.01-1.53,1.45-3.71,2.84-4.51c21.16-12.13,42.41-24.11,63.72-35.98
		c1.25-0.7,3.58-0.73,4.8-0.02c19.66,11.42,39.25,22.96,58.73,34.69c1.44,0.86,2.68,3.37,2.68,5.11
		c-0.08,23.14-0.33,46.29-0.8,69.43c-0.03,1.63-1.7,3.83-3.22,4.75c-15.34,9.27-30.82,18.33-47.03,27.5
		c-2.72-0.22-4.76-0.22-6.6-0.81c-5.01-1.58-9.92-3.45-14.9-5.14c-3.83-1.31-8.07-1.9-11.46-3.93c-4.36-2.61-8.03-6.07-13.76-5.35
		c-1.74,0.22-3.65-1.4-5.55-1.93C275.04,542.8,271.46,541.98,267.89,541.08z M278.03,451.54c-3.9,2.53-7.92,4.89-11.66,7.64
		c-2.98,2.18-3.17,5.49-1.69,8.56c1.62,3.36,4.88,3.97,8.15,3.08c2.03-0.55,3.9-1.82,5.74-2.95c8.64-5.32,17.22-10.73,25.86-16.05
		c5.36-3.3,7.18-7.51,4.77-11.37c-2.42-3.88-6.79-4.1-12.33-0.64C290.8,443.61,284.73,447.39,278.03,451.54z"/>
	<path class="st2" d="M268.08,541.37c3.38,0.61,6.97,1.43,10.51,2.43c1.9,0.54,3.81,2.15,5.55,1.93c5.73-0.71,9.41,2.74,13.76,5.35
		c3.39,2.03,7.62,2.63,11.46,3.93c4.97,1.69,9.89,3.56,14.9,5.14c1.85,0.58,3.88,0.58,6.25,0.85c-3.78,2.59-7.86,5.41-12.25,7.64
		c-1.3,0.66-3.74,0.18-5.16-0.64C298.09,559.32,283.19,550.46,268.08,541.37z"/>
	<path class="st5" d="M466.68,685.74c-18.43,10.83-36.58,21.39-54.63,32.13c-2.54,1.51-4.43,1.91-7.12,0.31
		c-20.15-12.04-40.4-23.9-60.53-35.97c-1.26-0.75-2.46-2.77-2.48-4.22c-0.43-22.64-0.71-45.28-0.8-67.92
		c-0.01-1.53,1.37-3.72,2.73-4.5c21.35-12.25,42.79-24.36,64.29-36.36c1.12-0.63,3.22-0.64,4.31,0
		c19.71,11.52,39.36,23.14,58.92,34.93c1.35,0.81,2.55,3.13,2.54,4.74c-0.09,23.31-0.5,46.62-0.57,69.93
		C473.31,683.53,469.05,683.27,466.68,685.74z M368.82,614.3c8.96-5.4,17.95-10.74,26.85-16.23c3.67-2.26,4.43-5.76,2.77-9.55
		c-1.43-3.27-5.85-4.6-9.5-2.5c-12.08,6.96-24.07,14.09-35.95,21.39c-3.48,2.13-4.81,5.58-2.56,9.46c2.27,3.9,5.88,4.11,9.55,2.5
		C362.85,618.11,365.47,616.27,368.82,614.3z"/>
	<path class="st5" d="M645.65,130.66c11.9-6.79,23.55-13.27,35.05-20.01c2.47-1.45,4.24-1.44,6.65-0.01
		c19.48,11.63,39.06,23.11,58.52,34.78c1.09,0.65,2.05,2.5,2.06,3.8c0.12,19.99,0.11,39.99,0.03,59.99
		c-0.01,3.63-0.18,7.32-0.84,10.88c-0.3,1.62-1.64,3.53-3.06,4.39c-17.91,10.77-36.2,20.94-53.78,32.22
		c-6.6,4.24-10.97,3.12-16.93-0.6c-16.76-10.43-33.83-20.35-50.98-30.14c-4.62-2.64-6.83-5.38-6.78-11.1
		c0.17-20.79-0.26-41.59-0.68-62.38c-0.07-3.28,0.91-5.18,3.73-6.71C627.59,140.9,636.45,135.85,645.65,130.66z M663.29,148.78
		c2.91-1.6,5.86-3.13,8.73-4.81c4.95-2.91,6.4-6.78,4.1-10.64c-2.12-3.55-6.1-4.25-10.98-1.66c-9.83,5.22-19.62,10.52-29.38,15.86
		c-4.74,2.59-6.32,6.78-4.18,10.61c1.98,3.54,6.34,4.32,10.89,1.87C649.2,156.39,655.91,152.74,663.29,148.78z"/>
	<path class="st6" d="M566.99,789c-0.26,13.63-0.44,26.75-0.87,39.87c-0.05,1.46-1.19,3.46-2.43,4.21
		c-19.96,12-39.99,23.88-60.1,35.62c-1.16,0.68-3.45,0.56-4.66-0.14c-19.87-11.47-39.62-23.12-59.46-34.65
		c-3.27-1.9-4.79-4.1-4.79-8.23c0-21.29-0.31-42.58-0.79-63.87c-0.08-3.71,1.26-5.77,4.25-7.43c13.88-7.74,27.73-15.56,41.58-23.36
		c6.71-3.78,13.32-7.74,20.17-11.25c1.65-0.85,4.52-1.07,6.02-0.2c19.83,11.52,39.54,23.25,59.2,35.07
		c1.04,0.62,1.81,2.54,1.83,3.87C567.08,768.5,567,778.5,566.99,789z M493.06,738.12c-3-0.03-6.62-1.17-8.91,0.09
		c-11.18,6.2-22.05,12.97-32.94,19.69c-4.26,2.63-5.48,6.7-3.47,10.08c1.91,3.22,6.08,4.34,10.14,2
		c11.22-6.48,22.37-13.09,33.36-19.95C496.03,747.04,496.45,743.64,493.06,738.12z"/>
	<path class="st7" d="M731.21,743.91c5.82,3.3,11.69,6.53,17.42,9.99c0.81,0.49,1.32,2.1,1.33,3.2c0.07,20.15,0.08,40.29,0,60.44
		c-0.01,3.63-0.23,7.29-0.85,10.85c-0.26,1.46-1.56,3.17-2.87,3.96c-16.3,9.79-32.68,19.43-49.04,29.12
		c-0.29,0.17-0.6,0.31-0.83,0.54c-8.51,8.28-16.34,5.63-25.28-0.19c-15.64-10.19-31.96-19.35-48.12-28.72
		c-3.64-2.11-5.3-4.37-5.29-8.88c0.03-20.94-0.27-41.88-0.78-62.82c-0.11-4.31,1.5-6.52,5.02-8.46
		c14.21-7.82,28.31-15.84,42.45-23.79c1.27-0.72,2.54-1.44,4.51-2.04c2.57,1.17,4.43,2.22,6.07,3.51
		c-13.23,8.52-26.23,16.83-39.26,25.09c-4.37,2.77-6.01,6.94-3.96,10.42c2.31,3.91,6.6,4.75,11.22,1.85
		c12.22-7.68,24.45-15.34,36.43-23.39c2.5-1.68,3.89-5.02,6.18-7.59c3.3,1.04,6.25,1.97,9.11,3.16c2.71,1.13,5.27,2.62,7.98,3.76
		c3.14,1.32,6.32,2.66,9.6,3.52c2,0.53,4.32,0.6,6.34,0.14C722.84,746.61,727,745.16,731.21,743.91z"/>
	<path class="st6" d="M731.04,743.6c-4.04,1.57-8.21,3.01-12.48,3.98c-2.01,0.46-4.34,0.39-6.34-0.14c-3.28-0.87-6.45-2.21-9.6-3.52
		c-2.71-1.14-5.27-2.63-7.98-3.76c-2.85-1.18-5.81-2.11-9.18-3.52c-1.83-5.52-5.4-7.02-10.31-6.25c-1.86-1.05-3.72-2.1-5.93-3.3
		c4.67-3.14,9.62-6.27,14.78-8.99c1.22-0.64,3.5-0.42,4.76,0.32C702.86,726.6,716.86,734.97,731.04,743.6z"/>
	<path class="st6" d="M564.99,172c0,10.83,0.09,21.16-0.04,31.49c-0.07,5.96-0.31,11.94-0.86,17.87c-0.13,1.42-1.53,3.18-2.84,3.97
		c-16.17,9.7-32.43,19.24-48.66,28.84c-1.98,1.17-4.19,2.12-5.84,3.66c-5.33,4.99-10.18,3.19-15.57-0.09
		c-17.49-10.67-35.06-21.23-52.83-31.43c-4.14-2.38-5.68-4.89-5.68-9.62c-0.01-20.96-0.31-41.92-0.79-62.87
		c-0.08-3.71,1.25-5.77,4.25-7.44c13.88-7.74,27.73-15.56,41.58-23.36c6.71-3.78,13.32-7.74,20.17-11.25
		c1.65-0.85,4.52-1.07,6.02-0.2c19.83,11.51,39.54,23.25,59.2,35.07c1.04,0.62,1.79,2.54,1.83,3.87
		C565.1,157.5,565,164.5,564.99,172z M475.28,150.77c3.46-2.3,7.06-4.4,10.32-6.94c3.34-2.6,3.33-6.17,0.93-9.3
		c-2.3-3.01-5.68-3.48-8.94-1.52c-8.97,5.39-17.88,10.88-26.72,16.47c-3.9,2.46-5.2,7.02-3.3,10.29c1.95,3.35,6.34,4.15,10.58,1.63
		C463.72,158.09,469.16,154.57,475.28,150.77z"/>
	<path class="st5" d="M316.02,112.96c1.98,0.16,3.85-0.03,5.17,0.73c19.59,11.45,39.13,23,58.6,34.66c1.1,0.66,2.13,2.48,2.14,3.76
		c0.12,20.16,0.11,40.33,0.03,60.49c-0.01,3.3-0.16,6.66-0.82,9.88c-0.37,1.8-1.52,4.02-3.01,4.91
		c-17.76,10.7-35.99,20.67-53.34,31.99c-7.21,4.71-11.83,3.16-18.18-0.81c-16.88-10.54-34.12-20.52-51.42-30.37
		c-3.97-2.26-5.53-4.62-5.53-9.26c0.01-20.96-0.32-41.93-0.75-62.89c-0.07-3.58,0.78-5.79,4.02-7.57
		c16.41-9.06,32.72-18.31,49.06-27.52C306.56,118.38,311.1,115.69,316.02,112.96z M267.92,147.43c-0.73,0.4-1.47,0.78-2.19,1.19
		c-5.27,3.01-6.97,6.59-4.96,10.39c2.28,4.3,6.59,4.97,12.1,1.95c7.44-4.08,14.9-8.11,22.35-12.18c5.58-3.05,7.53-7.11,5.34-11.1
		c-2.09-3.82-6.36-4.42-11.81-1.53C281.99,139.73,275.28,143.41,267.92,147.43z"/>
	<path class="st6" d="M199.24,706.76c-12.7-7.56-25.15-14.82-37.43-22.36c-1.46-0.89-2.83-3.24-2.86-4.95
		c-0.46-21.94-0.59-43.89-1.05-65.83c-0.07-3.48,1.08-5.45,3.98-7.06c16.45-9.15,32.86-18.39,49.27-27.63
		c4.29-2.41,8.42-5.12,12.84-7.28c1.59-0.78,4.24-1.11,5.63-0.3c19.95,11.62,39.79,23.44,59.58,35.33c0.95,0.57,1.74,2.25,1.75,3.42
		c0.1,20.15,0.1,40.3,0.02,60.46c-0.01,3.63-0.23,7.3-0.86,10.85c-0.26,1.46-1.57,3.16-2.89,3.94
		c-17.85,10.7-36.11,20.76-53.55,32.08c-6.94,4.51-11.66,3.74-17.66-0.65C210.86,713.04,205.06,710.21,199.24,706.76z
		 M181.51,606.01c-2.9,1.61-5.92,3.04-8.68,4.87c-4.06,2.69-5.27,6.99-2.96,10.24c2.72,3.83,6.47,3.84,10.17,1.83
		c10.94-5.93,21.83-11.95,32.62-18.15c4.54-2.61,5.69-6.72,3.53-10.45c-1.98-3.41-5.87-4.14-10.49-1.67
		C197.8,596.92,189.98,601.3,181.51,606.01z"/>
	<path class="st8" d="M572.19,707.81c-14.93-8.85-29.61-17.41-44.12-26.24c-1.57-0.96-3.06-3.47-3.1-5.29
		c-0.49-21.77-0.6-43.54-1.07-65.3c-0.08-3.62,0.93-5.78,4.07-7.52c14.01-7.73,27.93-15.64,41.89-23.47
		c6.41-3.59,13-6.89,19.17-10.86c2.93-1.88,4.93-1.98,7.84-0.23c18.74,11.28,37.58,22.4,56.39,33.56c1.13,0.67,2.32,1.26,3.74,2.02
		c0,21.13,0.03,42.43-0.03,63.72c-0.01,2.95-0.18,5.98-0.86,8.84c-0.46,1.94-1.48,4.39-3.02,5.33
		c-17.76,10.74-35.98,20.74-53.37,32.02c-6.88,4.47-11.72,4.04-17.58-0.57C579.2,711.53,575.72,709.94,572.19,707.81z
		 M565.68,603.17c4.8-3.23,9.84-6.17,14.24-9.87c1.36-1.14,1.91-4.74,1.16-6.48c-0.76-1.75-3.5-3.3-5.58-3.65
		c-2.05-0.34-4.64,0.48-6.52,1.59c-10.59,6.21-21.03,12.66-31.53,19.02c-4.02,2.43-5.68,6.78-3.84,10.09
		c1.86,3.34,7,4.37,11.01,2.01C551.46,611.84,558.25,607.67,565.68,603.17z"/>
	<path class="st6" d="M757.2,709.81c-16.53-9.79-32.73-19.41-49.01-28.89c-2.43-1.41-3.43-2.96-3.45-5.86
		c-0.14-21.61-0.36-43.23-0.87-64.83c-0.09-3.86,1.12-6.12,4.32-7.9c16.6-9.23,33.15-18.54,49.72-27.82
		c3.72-2.09,7.77-3.76,11.08-6.37c3.12-2.46,5.54-1.76,8.35-0.08c18.84,11.26,37.65,22.58,56.57,33.7c2.29,1.34,3.19,2.55,3.17,5.26
		c-0.15,19.48-0.05,38.97-0.13,58.46c-0.02,4.13-0.28,8.28-0.87,12.36c-0.19,1.29-1.56,2.77-2.79,3.5
		c-16.31,9.76-32.67,19.45-49.06,29.07c-4.48,2.63-9.13,6.94-13.68,6.91C766.19,717.28,761.85,712.64,757.2,709.81z M741.91,595.42
		c-6.68,4.05-13.37,8.07-20.02,12.15c-3.84,2.35-5.23,6.79-3.32,10.25c1.81,3.28,6.02,4.4,10.07,2.31c3.39-1.75,6.57-3.9,9.82-5.9
		c5.94-3.65,12.01-7.11,17.75-11.05c3.42-2.35,5.12-5.79,2.39-9.9c-2.33-3.5-6.38-4.11-10.56-1.65
		C746.17,592.72,744.35,593.87,741.91,595.42z"/>
	<path class="st8" d="M726.56,385.4c-3.73-2.11-6.96-4.55-10.61-5.8c-10.1-3.46-9.79-11.88-9.88-19.95
		c-0.2-18.65-0.16-37.3,0.05-55.95c0.02-1.81,1.46-4.37,3.01-5.28c14.07-8.29,28.31-16.3,42.5-24.39
		c6.81-3.88,13.54-7.88,20.49-11.5c1.52-0.79,4.21-0.92,5.62-0.1c19.89,11.59,39.67,23.37,59.41,35.23
		c0.95,0.57,1.78,2.22,1.79,3.38c0.1,20.15,0.1,40.3,0.02,60.45c-0.01,3.62-0.25,7.28-0.87,10.84c-0.26,1.46-1.5,3.19-2.8,3.97
		c-16.25,9.76-32.59,19.36-48.9,29c-2.25,1.33-4.84,2.28-6.73,4.01c-4.17,3.82-7.82,3.42-12.47,0.5
		C753.9,401.49,740.32,393.65,726.56,385.4z M746.07,305.56c5.46-3.44,10.91-6.91,16.4-10.3c4.26-2.62,5.91-7.05,3.77-10.44
		c-2.4-3.8-6.28-4.56-10.76-1.77c-10.39,6.49-20.72,13.07-31.02,19.7c-4.27,2.75-5.56,6.43-3.64,9.49c2.52,4.02,6.14,5,10.75,2.41
		C736.33,311.98,740.86,308.91,746.07,305.56z"/>
	<path class="st7" d="M610.31,403.31c-5.95,3.55-11.64,6.82-17.24,10.23c-2.01,1.23-3.42,1.26-5.67-0.09
		c-19.55-11.66-39.23-23.1-58.91-34.54c-3.24-1.88-4.82-4.05-4.82-8.21c0.01-21.27-0.31-42.55-0.78-63.82
		c-0.08-3.67,1.1-5.77,4.17-7.48c16.31-9.08,32.56-18.28,48.84-27.42c4-2.25,8.29-4.1,11.98-6.77c3.03-2.2,5.37-2.01,8.33-0.24
		c18.97,11.37,37.96,22.7,57.03,33.9c2.14,1.26,2.86,2.51,2.85,4.97c-0.12,19.48-0.04,38.96-0.13,58.44
		c-0.02,4.13-0.28,8.28-0.85,12.36c-0.18,1.31-1.45,2.86-2.66,3.59c-12.34,7.46-24.78,14.78-37.18,22.13
		C613.72,401.29,612.16,402.18,610.31,403.31z M543.66,299.15c-4.88,4.03-5.96,7.03-3.57,10.39c2.45,3.43,5.79,4.74,9.54,2.51
		c9.28-5.51,18.49-11.16,27.57-17.01c3.93-2.54,4.78-6.65,2.76-9.96c-2.06-3.37-6.44-4.15-10.58-1.65
		C560.98,288.49,552.66,293.68,543.66,299.15z"/>
	<path class="st6" d="M340,313.06c-1.54-8,2.11-11.76,8.6-15.23c19.36-10.35,38.27-21.55,57.45-32.26c1.42-0.79,3.97-1.16,5.23-0.42
		c20.1,11.72,40.09,23.63,60.03,35.62c0.93,0.56,1.63,2.3,1.63,3.49c0.09,20,0.09,39.99,0.01,59.99c-0.02,3.8-0.28,7.62-0.85,11.37
		c-0.2,1.33-1.42,2.89-2.62,3.61c-14.47,8.7-29.03,17.26-43.55,25.86c-5.37,3.18-10.65,6.51-16.13,9.48
		c-1.24,0.68-3.49,0.8-4.66,0.12c-20.01-11.55-39.91-23.29-59.86-34.95c-3.04-1.78-4.61-3.81-4.61-7.82
		C340.71,352.46,340.27,333,340,313.06z M360.54,315.23c10.29-6.13,20.58-12.25,30.86-18.38c5.01-2.99,6.5-6.67,4.3-10.56
		c-2.12-3.76-5.83-4.57-10.82-1.71c-10.68,6.12-21.25,12.42-31.77,18.81c-4.51,2.74-5.85,6.57-3.99,9.92
		C351.34,317.31,354.3,317.94,360.54,315.23z"/>
	<path class="st8" d="M248.06,404.05c-7.51,4.37-14.61,8.75-21.87,12.86c-1.04,0.59-3.09,0.33-4.21-0.32
		c-19.92-11.54-39.74-23.25-59.67-34.77c-3.41-1.97-4.57-4.35-4.58-8.31c-0.05-21.1-0.33-42.21-0.84-63.31
		c-0.09-3.87,1.13-6.1,4.33-7.88c13.84-7.71,27.63-15.5,41.43-23.29c6.82-3.85,13.55-7.88,20.49-11.5c1.52-0.79,4.2-0.91,5.62-0.09
		c19.89,11.59,39.67,23.37,59.4,35.22c0.95,0.57,1.78,2.22,1.78,3.38c0.1,20.15,0.1,40.3,0.02,60.45
		c-0.01,3.62-0.25,7.28-0.87,10.84c-0.26,1.46-1.51,3.18-2.8,3.97C273.72,388.95,261.05,396.44,248.06,404.05z M173.46,307.1
		c-2.84,3.37-4.1,7.21-0.88,10.72c3.08,3.36,6.64,2.34,10.31-0.01c9.34-5.99,18.89-11.68,28.38-17.44
		c4.47-2.71,6.34-7.83,4.03-11.36c-1.97-3.02-6.76-3.4-11.11-0.76C194.13,294.35,184.09,300.48,173.46,307.1z"/>
	<path class="st6" d="M659.33,553.76c-12.84-7.67-25.25-15.35-37.98-22.46c-4.18-2.34-5.67-4.9-5.67-9.62
		c-0.01-20.95-0.31-41.89-0.79-62.83c-0.08-3.7,1.19-5.77,4.21-7.45c16.3-9.09,32.56-18.27,48.84-27.4
		c3.86-2.17,8.16-3.77,11.53-6.53c3.63-2.97,6.35-1.87,9.6,0.07c19.54,11.68,39.12,23.3,58.91,35.07c0,20.95,0.03,42.09-0.03,63.24
		c-0.01,3.46-0.24,6.96-0.85,10.36c-0.27,1.49-1.43,3.28-2.72,4.05c-16.29,9.79-32.68,19.42-49.05,29.1
		c-1.84,1.09-3.91,1.93-5.43,3.36c-5.71,5.37-10.83,3.42-16.34-0.49C669.19,559.1,664.3,556.69,659.33,553.76z M658.39,439.87
		c-7.88,4.93-15.75,9.9-23.66,14.79c-5.02,3.1-6.63,7.18-4.22,11.08c2.29,3.69,6.51,4.23,11.43,1.24
		c5.82-3.54,11.59-7.15,17.3-10.86c4.58-2.98,9.18-5.98,13.5-9.32c2.87-2.22,3.3-5.44,1.04-8.4c-2.19-2.87-5.12-4.31-8.73-2.4
		C663,437.08,661.03,438.33,658.39,439.87z"/>
	<path class="st6" d="M550.23,444.71c5.05,3.12,11.72,4.92,14.08,9.14c2.42,4.33,0.67,11.02,0.68,16.68
		c0.02,12.82,0.09,25.65-0.03,38.47c-0.06,6.13-0.31,12.26-0.86,18.36c-0.13,1.42-1.52,3.18-2.83,3.97
		c-16.29,9.79-32.68,19.43-49.04,29.11c-0.29,0.17-0.59,0.33-0.83,0.55c-8.5,8.22-16.33,5.71-25.29-0.14
		c-15.63-10.2-31.95-19.35-48.1-28.74c-3.61-2.1-5.35-4.29-5.34-8.83c0.04-21.11-0.3-42.23-0.77-63.33
		c-0.08-3.65,1.03-5.78,4.13-7.5c16.31-9.08,32.55-18.29,48.83-27.43c3.86-2.17,8.16-3.76,11.55-6.49c3.8-3.06,6.55-1.78,9.98,0.27
		C520.85,427.44,535.43,435.91,550.23,444.71z M468.9,442.43c-8.04,4.7-16.15,9.3-24.11,14.13c-4.73,2.88-5.95,6.75-3.73,10.38
		c2.13,3.48,6.28,4.09,11.06,1.44c4.65-2.59,9.22-5.33,13.81-8.02c5.6-3.28,11.27-6.44,16.76-9.89c4.08-2.56,5.17-6.41,3.2-9.76
		c-2.14-3.63-6.36-4.6-10.41-2.33C473.45,439.53,471.5,440.81,468.9,442.43z"/>
	<path class="st3" d="M266.78,773.68c-5.24-5.06-4.78-9.51,0.92-13.07c11.11-6.96,22.19-13.96,33.28-20.93
		c0.98-0.62,1.99-1.21,3.03-1.73c4.7-2.33,8.55-1.63,10.42,1.84c1.88,3.5,0.64,7.56-3.4,10.18c-7.52,4.86-15.13,9.59-22.71,14.37
		c-3.79,2.39-7.42,5.12-11.44,7.02C273.9,772.76,270.41,773.06,266.78,773.68z"/>
	<path class="st3" d="M278.35,451.35c6.38-3.97,12.45-7.75,18.52-11.53c5.54-3.46,9.91-3.23,12.33,0.64
		c2.41,3.85,0.59,8.07-4.77,11.37c-8.64,5.32-17.22,10.73-25.86,16.05c-1.83,1.13-3.7,2.4-5.74,2.95c-3.28,0.89-6.53,0.27-8.15-3.08
		c-1.48-3.07-1.28-6.38,1.69-8.56C270.11,456.43,274.13,454.07,278.35,451.35z"/>
	<path class="st3" d="M368.51,614.5c-3.04,1.78-5.66,3.61-8.52,4.87c-3.67,1.61-7.28,1.4-9.55-2.5c-2.25-3.88-0.92-7.32,2.56-9.46
		c11.88-7.29,23.87-14.43,35.95-21.39c3.64-2.1,8.06-0.77,9.5,2.5c1.66,3.79,0.9,7.29-2.77,9.55
		C386.77,603.56,377.78,608.9,368.51,614.5z"/>
	<path class="st3" d="M662.96,148.94c-7.05,3.8-13.76,7.45-20.5,11.06c-4.55,2.44-8.91,1.67-10.89-1.87
		c-2.13-3.83-0.56-8.01,4.18-10.61c9.76-5.34,19.55-10.64,29.38-15.86c4.88-2.59,8.86-1.89,10.98,1.66c2.3,3.86,0.86,7.73-4.1,10.64
		C669.16,145.65,666.21,147.18,662.96,148.94z"/>
	<path class="st3" d="M493.35,738.38c3.1,5.27,2.68,8.66-2.1,11.65c-10.99,6.86-22.14,13.47-33.36,19.95
		c-4.05,2.34-8.22,1.22-10.14-2c-2.01-3.38-0.79-7.45,3.47-10.08c10.89-6.72,21.76-13.49,32.94-19.69
		C486.43,736.95,490.05,738.09,493.35,738.38z"/>
	<path class="st3" d="M674.93,730.62c5.13-1,8.7,0.49,10.14,6.02c-1.83,2.94-3.21,6.27-5.71,7.95
		c-11.97,8.05-24.21,15.71-36.43,23.39c-4.61,2.9-8.91,2.06-11.22-1.85c-2.05-3.47-0.41-7.65,3.96-10.42
		C648.7,747.45,661.7,739.14,674.93,730.62z"/>
	<path class="st3" d="M474.97,150.96c-5.81,3.61-11.24,7.13-16.81,10.44c-4.24,2.52-8.63,1.72-10.58-1.63
		c-1.9-3.27-0.6-7.82,3.3-10.29c8.85-5.59,17.76-11.08,26.72-16.47c3.26-1.96,6.64-1.49,8.94,1.52c2.39,3.13,2.4,6.7-0.93,9.3
		C482.34,146.38,478.74,148.48,474.97,150.96z"/>
	<path class="st3" d="M268.24,147.24c7.04-3.83,13.76-7.51,20.52-11.1c5.45-2.89,9.72-2.29,11.81,1.53
		c2.18,3.99,0.24,8.05-5.34,11.1c-7.45,4.07-14.91,8.1-22.35,12.18c-5.5,3.02-9.82,2.35-12.1-1.95c-2.02-3.8-0.31-7.37,4.96-10.39
		C266.45,148.2,267.19,147.82,268.24,147.24z"/>
	<path class="st3" d="M181.82,605.81c8.16-4.51,15.98-8.89,23.88-13.11c4.63-2.47,8.51-1.74,10.49,1.67
		c2.17,3.73,1.01,7.84-3.53,10.45c-10.79,6.19-21.68,12.21-32.62,18.15c-3.7,2.01-7.46,2-10.17-1.83c-2.31-3.26-1.1-7.55,2.96-10.24
		C175.59,609.06,178.61,607.62,181.82,605.81z"/>
	<path class="st3" d="M565.37,603.36c-7.12,4.31-13.91,8.48-20.76,12.52c-4.01,2.36-9.15,1.33-11.01-2.01
		c-1.84-3.31-0.17-7.66,3.84-10.09c10.5-6.36,20.94-12.81,31.53-19.02c1.89-1.11,4.47-1.93,6.52-1.59c2.08,0.35,4.82,1.89,5.58,3.65
		c0.76,1.74,0.2,5.34-1.16,6.48C575.51,597,570.47,599.94,565.37,603.36z"/>
	<path class="st3" d="M742.21,595.21c2.14-1.34,3.97-2.49,5.83-3.59c4.18-2.45,8.23-1.85,10.56,1.65c2.73,4.11,1.03,7.55-2.39,9.9
		c-5.74,3.95-11.81,7.4-17.75,11.05c-3.26,2-6.43,4.15-9.82,5.9c-4.05,2.09-8.25,0.96-10.07-2.31c-1.91-3.46-0.52-7.9,3.32-10.25
		C728.54,603.49,735.23,599.47,742.21,595.21z"/>
	<path class="st3" d="M745.78,305.78c-4.92,3.12-9.45,6.2-14.2,8.87c-4.61,2.59-8.23,1.61-10.75-2.41
		c-1.92-3.06-0.63-6.74,3.64-9.49c10.29-6.64,20.63-13.22,31.02-19.7c4.48-2.8,8.36-2.04,10.76,1.77c2.14,3.39,0.49,7.82-3.77,10.44
		C756.97,298.65,751.53,302.12,745.78,305.78z"/>
	<path class="st3" d="M543.99,298.98c8.68-5.3,17-10.49,25.39-15.55c4.14-2.5,8.52-1.72,10.58,1.65c2.03,3.3,1.17,7.42-2.76,9.96
		c-9.07,5.85-18.28,11.5-27.57,17.01c-3.75,2.23-7.1,0.92-9.54-2.51C537.7,306.18,538.78,303.17,543.99,298.98z"/>
	<path class="st3" d="M360.21,315.42c-5.91,2.52-8.86,1.89-11.08-2.11c-1.86-3.35-0.52-7.18,3.99-9.92
		c10.52-6.39,21.09-12.69,31.77-18.81c4.98-2.86,8.7-2.05,10.82,1.71c2.19,3.89,0.71,7.57-4.3,10.56
		C381.12,302.98,370.83,309.1,360.21,315.42z"/>
	<path class="st3" d="M173.75,306.85c10.34-6.37,20.38-12.51,30.44-18.6c4.35-2.63,9.14-2.26,11.11,0.76
		c2.3,3.53,0.44,8.64-4.03,11.36c-9.49,5.76-19.04,11.45-28.38,17.44c-3.67,2.35-7.23,3.38-10.31,0.01
		C169.36,314.31,170.62,310.48,173.75,306.85z"/>
	<path class="st3" d="M658.71,439.69c2.32-1.36,4.29-2.61,6.34-3.69c3.62-1.91,6.54-0.47,8.73,2.4c2.26,2.96,1.82,6.18-1.04,8.4
		c-4.32,3.34-8.92,6.33-13.5,9.32c-5.71,3.71-11.48,7.33-17.3,10.86c-4.92,2.99-9.14,2.46-11.43-1.24c-2.41-3.9-0.8-7.98,4.22-11.08
		C642.64,449.77,650.5,444.8,658.71,439.69z"/>
	<path class="st3" d="M469.21,442.23c2.29-1.42,4.25-2.7,6.28-3.84c4.05-2.28,8.28-1.3,10.41,2.33c1.97,3.34,0.88,7.19-3.2,9.76
		c-5.49,3.45-11.16,6.62-16.76,9.89c-4.59,2.69-9.16,5.43-13.81,8.02c-4.77,2.65-8.93,2.04-11.06-1.44c-2.22-3.62-1-7.5,3.73-10.38
		C452.75,451.73,460.86,447.13,469.21,442.23z"/>
</g>
</svg>
