<?xml version="1.0" encoding="UTF-8"?><svg xmlns="http://www.w3.org/2000/svg" xmlns:xlink="http://www.w3.org/1999/xlink" viewBox="0 0 100 100"><defs><style>.cls-1,.cls-2{fill:none;}.cls-3{opacity:.05;}.cls-3,.cls-4{fill:#020202;}.cls-5{fill:#fff;}.cls-6{fill:#daf2a7;}.cls-7{fill:url(#_称未設定グラデーション_1032);}.cls-8{fill:url(#_称未設定グラデーション_1032-3);}.cls-9{fill:url(#_称未設定グラデーション_1032-2);}.cls-2{stroke:#5a5e2d;stroke-linecap:round;stroke-linejoin:round;stroke-width:4px;}.cls-10{isolation:isolate;}.cls-4{mix-blend-mode:overlay;opacity:.2;}</style><linearGradient id="_称未設定グラデーション_1032" x1="52.08" y1="27.44" x2="52.08" y2="11" gradientTransform="matrix(1, 0, 0, 1, 0, 0)" gradientUnits="userSpaceOnUse"><stop offset=".39" stop-color="#d3e880"/><stop offset="1" stop-color="#71bf1d"/></linearGradient><linearGradient id="_称未設定グラデーション_1032-2" x1="62.02" y1="88.75" x2="62.02" y2="14.18" xlink:href="#_称未設定グラデーション_1032"/><linearGradient id="_称未設定グラデーション_1032-3" x1="38.72" y1="88.75" x2="38.72" y2="12.17" xlink:href="#_称未設定グラデーション_1032"/></defs><g class="cls-10"><g id="_イヤー_1"><g><circle class="cls-7" cx="52.08" cy="19.22" r="8.22"/><circle class="cls-2" cx="52.08" cy="19.22" r="8.22"/><path class="cls-5" d="M68.24,67.18c.26,14.17-6.39,22.12-18.24,21.81-11.85,.31-18.5-7.64-18.24-21.81-.26-14.17,6.39-22.12,18.24-21.81,11.85-.31,18.5,7.64,18.24,21.81Z"/><path class="cls-3" d="M50,81.51c-10.76,.28-17.21-6.26-18.12-18.07-.09,1.2-.15,2.43-.12,3.74-.26,14.17,6.39,22.12,18.24,21.81,11.85,.31,18.5-7.64,18.24-21.81,.02-1.31-.03-2.54-.12-3.74-.91,11.8-7.36,18.35-18.12,18.07Z"/><path class="cls-2" d="M68.24,67.18c.26,14.17-6.39,22.12-18.24,21.81-11.85,.31-18.5-7.64-18.24-21.81-.26-14.17,6.39-22.12,18.24-21.81,11.85-.31,18.5,7.64,18.24,21.81Z"/><path class="cls-9" d="M52.1,40.39c-1.99,3.4-.14,10.06,5.44,18.14,7.23,10.47,4.25,24.4-3.05,30.21,14.81,0,28.95-11.2,24.11-33.57-3.83-17.72-4.3-25.14,.81-31.77-6.29-14.74-25.28-9.74-26.05,.55-9-2.06-13.88,14.18-1.26,16.44Z"/><path class="cls-4" d="M60.17,80.55c-1.25,3.36-3.22,6.24-5.68,8.2,13.75,0,26.92-9.67,24.85-28.97-1.41,11.9-9.61,18.83-19.17,20.77Z"/><path class="cls-2" d="M52.1,40.39c-1.99,3.4-.14,10.06,5.44,18.14,7.23,10.47,4.25,24.4-3.05,30.21,14.81,0,28.95-11.2,24.11-33.57-3.83-17.72-4.3-25.14,.81-31.77-6.29-14.74-25.28-9.74-26.05,.55-9-2.06-13.88,14.18-1.26,16.44Z"/><path class="cls-8" d="M57.02,28.91c0-3.91-3.17-7.07-7.07-7.07-.05,0-.09,0-.14,0,.14-.59,.22-1.19,.22-1.82,0-4.34-3.52-7.85-7.85-7.85-3.39,0-6.26,2.15-7.36,5.15-1.76-3.17-12.52-4.28-14.21,6.09,5.1,6.63,4.64,14.05,.81,31.77-4.84,22.37,9.31,33.57,24.11,33.57-7.3-5.82-11.19-20.43-3.05-30.21,4.83-5.8,6.68-8.66,4.69-12.06,3.09,0,5.59-2.5,5.59-5.59,0-1.78-.83-3.36-2.13-4.38l.23-.58c3.48-.44,6.17-3.41,6.17-7.01Z"/><path class="cls-4" d="M39.61,80.35c-9.45-1.99-17.52-8.88-18.94-20.65-2.11,19.36,11.07,29.05,24.85,29.05-2.47-1.97-4.55-4.94-5.9-8.4Z"/><path class="cls-6" d="M45.49,28.38c-3.02-.08-5.74,1.38-7.75,3.55-1.1-3.29-3.29-6.25-6.02-8.41-.75-.65-1.84,.37-1.24,1.16,5.88,8.49,4.93,12.92,1.31,22.09-.94,2.67-1.84,5.65-1.58,8.72,.07,1.03,1.6,1.11,1.8,.1,.86-3.44,2.57-6.47,4.02-9.68,.02-.04,.04-.07,.06-.11,1.14-1.98,4.13-2.93,6.3-3.2,.49,0,.93-.36,.98-.87,.02-1.62-2.3-1.01-3.3-1-.78,.12-1.55,.27-2.3,.47,.12-.44,.25-.88,.35-1.34,.15-.58,.25-1.17,.32-1.75,.25-2.22,1.07-4.39,2.69-5.94,1.2-1.16,2.7-1.97,4.37-2.17,.41-.02,.75-.35,.77-.77,.02-.45-.32-.84-.77-.86Z"/><path class="cls-2" d="M57.02,28.91c0-3.91-3.17-7.07-7.07-7.07-.05,0-.09,0-.14,0,.14-.59,.22-1.19,.22-1.82,0-4.34-3.52-7.85-7.85-7.85-3.39,0-6.26,2.15-7.36,5.15-1.76-3.17-12.52-4.28-14.21,6.09,5.1,6.63,4.64,14.05,.81,31.77-4.84,22.37,9.31,33.57,24.11,33.57-7.3-5.82-11.19-20.43-3.05-30.21,4.83-5.8,6.68-8.66,4.69-12.06,3.09,0,5.59-2.5,5.59-5.59,0-1.78-.83-3.36-2.13-4.38l.23-.58c3.48-.44,6.17-3.41,6.17-7.01Z"/><path class="cls-6" d="M70.26,27.62c-1.48-1.85-5.56,4.95-5.99,6.25-.88,1.94-1.43,4.18-1.52,6.44-1.43-.92-3.1-1.04-4.76-.65-.8,.19-.62,1.34,.2,1.42,2.09,.19,4.4,1.52,4.99,3.4h0c.14,.53,.31,1.04,.53,1.54,1.37,3.51,4.01,6.37,5.04,9.87,.06,.22,.23,.39,.47,.43,1.37,.14,.58-3.7,.36-4.53-.92-3.51-3.04-6.58-3.37-10.16-.27-4.42,1.43-9.29,4-12.92,.25-.31,.29-.75,.04-1.09Z"/></g><rect class="cls-1" width="100" height="100"/></g></g></svg>