<svg id="design" xmlns="http://www.w3.org/2000/svg" viewBox="0 0 350 350"><path d="M91.14,155.19a6.79,6.79,0,0,0-8.29-4.85L34.63,162.79a6.79,6.79,0,0,0-4.86,8.3l21.17,80.79a6.76,6.76,0,0,0,8.3,4.86l48.22-12.45h0a6.81,6.81,0,0,0,4.85-8.3Zm15.11,84.46L58,252.1a2,2,0,0,1-1.52-.21,2,2,0,0,1-.92-1.22L34.41,169.88a2,2,0,0,1,1.42-2.45L84.06,155a2.22,2.22,0,0,1,.51-.06,2,2,0,0,1,1,.27,2,2,0,0,1,.92,1.22l21.18,80.79A2,2,0,0,1,106.25,239.65Z"/><path d="M84.6,163.53a5,5,0,0,0-6.14-3.61l-34.79,8.84a5,5,0,0,0-3.6,6.16L56.65,238.2A5.05,5.05,0,0,0,61.53,242a5,5,0,0,0,1.26-.16L97.57,233h0a5.06,5.06,0,0,0,3.6-6.16Zm11.77,64.79-34.78,8.84a.3.3,0,0,1-.3-.18L44.71,173.71a.27.27,0,0,1,.16-.3l34.79-8.84h.06a.25.25,0,0,1,.24.18L96.55,228A.25.25,0,0,1,96.37,228.32Z"/><path d="M86.93,142.23a1.8,1.8,0,0,0,2.44-.72,11.29,11.29,0,0,1,2.22-2.87l10.7,5.4a11.59,11.59,0,0,1-1.28,3.81,1.78,1.78,0,0,0,.72,2.43,1.74,1.74,0,0,0,.85.22,1.79,1.79,0,0,0,1.58-.94c3.19-5.86,1.68-11.49,0-15a15.44,15.44,0,0,0,12.44-7.93,16.18,16.18,0,0,0,0-15,15.44,15.44,0,0,0,12.44-7.93A1.79,1.79,0,1,0,126,102a11.07,11.07,0,0,1-2.8,3.38l-10.09-6a11.07,11.07,0,0,1,1.25-3.71A1.79,1.79,0,1,0,111.16,94a15.5,15.5,0,0,0,.09,14.76,16.15,16.15,0,0,0-12.56,8.15,15.5,15.5,0,0,0,.09,14.76c-3.82.51-9.37,2.29-12.56,8.16A1.79,1.79,0,0,0,86.93,142.23Zm15.65-11.12a15.24,15.24,0,0,1-1.87-4.69l6.82,3.71A15.55,15.55,0,0,1,102.58,131.11Zm16.91-23.71a15.1,15.1,0,0,1-4.44.79,15.18,15.18,0,0,1-1.83-4.52Zm-6.61,4.77a16.49,16.49,0,0,1,1.73,4.52l-6.46-3.51A16.37,16.37,0,0,1,112.88,112.17Zm-8.36,3.12,10.29,5.6a12.57,12.57,0,0,1-.54,2.22L103,117A10.85,10.85,0,0,1,104.52,115.29Zm-3.35,4.78,11.44,6.22a10.47,10.47,0,0,1-1.54,1.69l-.06,0-10.42-5.67A11.56,11.56,0,0,1,101.17,120.07Zm-.76,15a15.9,15.9,0,0,1,1.8,4.9L95,136.35A16.07,16.07,0,0,1,100.41,135.08Z"/><path d="M174.82,128.72A1.8,1.8,0,0,0,173,125.6a11.19,11.19,0,0,1-4.16,1.42l-5.45-10.39a11.27,11.27,0,0,1,3-2.52,1.79,1.79,0,1,0-1.78-3.11A15.48,15.48,0,0,0,157,123.63c-3.52-1.57-9.18-3-15,.37a15.48,15.48,0,0,0-7.65,12.62,16.18,16.18,0,0,0-15,.37,1.79,1.79,0,0,0,1.78,3.11,11.66,11.66,0,0,1,3.4-1.28L130.88,149a11.48,11.48,0,0,1-3.08,2.58,1.79,1.79,0,0,0,.89,3.35,1.7,1.7,0,0,0,.89-.24c5.79-3.32,7.45-8.91,7.87-12.75a17.13,17.13,0,0,0,7.37,1.77,14.64,14.64,0,0,0,7.38-2A16.19,16.19,0,0,0,160.07,129a17.28,17.28,0,0,0,7.37,1.76A14.63,14.63,0,0,0,174.82,128.72ZM132.93,145.5l-4.21-6.83A16,16,0,0,1,134,140.4,16.31,16.31,0,0,1,132.93,145.5Zm5-7.34a15.1,15.1,0,0,1,.86-5l3.86,6.71A15.07,15.07,0,0,1,137.91,138.16Zm8.86,1.77,0-.06-5.9-10.28a10.73,10.73,0,0,1,1.64-1.58L149,139.3A11,11,0,0,1,146.77,139.93Zm5.27-2.48-6.42-11.17a11.9,11.9,0,0,1,2.21-.59l5.83,10.15A11.75,11.75,0,0,1,152,137.45Zm3.63-5.31L152,125.79a16.37,16.37,0,0,1,4.55,1.62A16.5,16.5,0,0,1,155.67,132.14Zm4.85-7a15.59,15.59,0,0,1,.82-4.79l3.37,6.43A15.3,15.3,0,0,1,160.52,125.16Z"/><path d="M110.58,157.83a2.4,2.4,0,1,0,0,4.8,36.52,36.52,0,0,1,36.48,36.48,2.4,2.4,0,1,0,4.8,0A41.32,41.32,0,0,0,110.58,157.83Z"/><path d="M110.58,166.47a2.4,2.4,0,1,0,0,4.8,27.87,27.87,0,0,1,27.84,27.84,2.4,2.4,0,1,0,4.8,0A32.68,32.68,0,0,0,110.58,166.47Z"/><path d="M110.58,175.11a2.4,2.4,0,0,0,0,4.8,19.22,19.22,0,0,1,19.2,19.2,2.4,2.4,0,1,0,4.8,0A24,24,0,0,0,110.58,175.11Z"/><path d="M110.58,183.75a2.4,2.4,0,1,0,0,4.8,10.57,10.57,0,0,1,10.56,10.56,2.4,2.4,0,1,0,4.8,0A15.38,15.38,0,0,0,110.58,183.75Z"/><path d="M308.55,142.23H276.37V106a5.91,5.91,0,0,0-5.9-5.9H211.31a5.91,5.91,0,0,0-5.9,5.9v36.2H173.23a5.9,5.9,0,0,0-5.9,5.9V249.38a5.9,5.9,0,0,0,5.9,5.9H308.55a5.9,5.9,0,0,0,5.9-5.9V148.13A5.9,5.9,0,0,0,308.55,142.23Zm-70.3,108.25H221.13V227.61h17.12Zm21.92,0H243.05V227.61h17.12Zm49.48-1.1a1.1,1.1,0,0,1-1.1,1.1H265V226.93a4.2,4.2,0,0,0-4.27-4.12H220.6a4.19,4.19,0,0,0-4.27,4.12v23.55h-43.1a1.1,1.1,0,0,1-1.1-1.1V148.13a1.1,1.1,0,0,1,1.1-1.1h34.58a2.39,2.39,0,0,0,2.4-2.4V106a1.11,1.11,0,0,1,1.1-1.1h59.16a1.11,1.11,0,0,1,1.1,1.1v38.6A2.39,2.39,0,0,0,274,147h34.58a1.1,1.1,0,0,1,1.1,1.1Z"/><path d="M228,135.68h5.07v5.08a4.32,4.32,0,0,0,4.32,4.31h7a4.32,4.32,0,0,0,4.32-4.31v-5.08h5.07a4.32,4.32,0,0,0,4.32-4.31v-7A4.33,4.33,0,0,0,253.8,120h-5.07v-5.07a4.33,4.33,0,0,0-4.32-4.32h-7a4.33,4.33,0,0,0-4.32,4.32V120H228a4.32,4.32,0,0,0-4.31,4.32v7A4.31,4.31,0,0,0,228,135.68Zm.49-10.87h7a2.39,2.39,0,0,0,2.4-2.4v-7h6.08v7a2.39,2.39,0,0,0,2.4,2.4h7v6.07h-7a2.4,2.4,0,0,0-2.4,2.4v7h-6.08v-7a2.4,2.4,0,0,0-2.4-2.4h-7Z"/><path d="M293.08,160.83H188.7a2.4,2.4,0,1,0,0,4.8H293.08a2.4,2.4,0,1,0,0-4.8Z"/><path d="M293.08,172.83H188.7a2.4,2.4,0,1,0,0,4.8H293.08a2.4,2.4,0,1,0,0-4.8Z"/><path d="M293.08,184.83H188.7a2.4,2.4,0,1,0,0,4.8H293.08a2.4,2.4,0,1,0,0-4.8Z"/><path d="M293.08,196.83H188.7a2.4,2.4,0,1,0,0,4.8H293.08a2.4,2.4,0,1,0,0-4.8Z"/><path d="M293.08,208.83H188.7a2.4,2.4,0,1,0,0,4.8H293.08a2.4,2.4,0,1,0,0-4.8Z"/><path d="M85.51,237.87l-10.92,2.8a2.4,2.4,0,0,0,.59,4.72,2.46,2.46,0,0,0,.6-.07l10.92-2.8a2.4,2.4,0,1,0-1.19-4.65Z"/></svg>