<?xml version="1.0" encoding="UTF-8"?><svg id="a" xmlns="http://www.w3.org/2000/svg" xmlns:xlink="http://www.w3.org/1999/xlink" viewBox="0 0 100 100"><defs><style>.c{fill:url(#b);}.d{fill:none;stroke:#53702a;stroke-linecap:round;stroke-linejoin:round;stroke-width:4px;}</style><radialGradient id="b" cx="49.68" cy="66.03" fx="39.4" fy="66.03" r="38.41" gradientTransform="matrix(1, 0, 0, 1, 0, 0)" gradientUnits="userSpaceOnUse"><stop offset=".48" stop-color="#73bd5a"/><stop offset=".81" stop-color="#e6f18d"/></radialGradient></defs><path class="c" d="M53.29,9.78c-1.79-1.86-4.78-1.86-6.58,0-24.79,25.69-28.77,41.82-24.05,53.66,4.84,11.98,19.16,19.29,27.34,19.12,8.19,.17,22.5-7.14,27.34-19.12,4.72-11.84,.73-27.97-24.05-53.66Z"/><path class="d" d="M53.29,9.78c-1.79-1.86-4.78-1.86-6.58,0-24.79,25.69-28.77,41.82-24.05,53.66,4.84,11.98,19.16,19.29,27.34,19.12,8.19,.17,22.5-7.14,27.34-19.12,4.72-11.84,.73-27.97-24.05-53.66Z"/><line class="d" x1="50" y1="92.18" x2="50" y2="33.39"/><path class="d" d="M65.4,59.32c-6.76,1.36-12.04,4.92-15.25,9.17"/><path class="d" d="M36.77,51.46c5.76,1.16,10.27,4.19,13,7.82"/><path class="d" d="M58.41,41.96c-3.66,.73-6.52,2.66-8.26,4.97"/></svg>