<?xml version="1.0" encoding="UTF-8"?><svg id="a" xmlns="http://www.w3.org/2000/svg" xmlns:xlink="http://www.w3.org/1999/xlink" viewBox="0 0 100 100"><defs><style>.c{fill:url(#b);}.d{fill:#684837;}.e{stroke:#b29a39;stroke-width:2px;}.e,.f{fill:none;}.f{stroke:#53702a;stroke-linecap:round;stroke-linejoin:round;stroke-width:4px;}</style><linearGradient id="b" x1="77.08" y1="23.03" x2="28.56" y2="71.55" gradientTransform="translate(-20.79 50.03) rotate(-45)" gradientUnits="userSpaceOnUse"><stop offset="0" stop-color="#a6b239"/><stop offset="1" stop-color="#88bd5a"/></linearGradient></defs><path class="c" d="M53.29,9.78c-1.79-1.86-4.78-1.86-6.58,0-24.79,25.69-28.77,41.82-24.05,53.66,4.84,11.98,19.16,19.29,27.34,19.12,8.19,.17,22.5-7.14,27.34-19.12,4.72-11.84,.73-27.97-24.05-53.66Z"/><g><path class="e" d="M71.36,32.12c-4.08-6.54-9.96-13.93-18.08-22.33-1.79-1.86-4.78-1.86-6.58,0-4.91,5.09-9,9.8-12.37,14.18,3.06,7.51,11.02,1.18,12.67,.59,4.03-1.44,5.58,2.31,7.88,4.81s4.62,7.79,10.1,7.31c4.27-.37,6.37-4.55,6.37-4.55Z"/><path class="d" d="M71.36,32.12c-4.08-6.54-9.96-13.93-18.08-22.33-1.79-1.86-4.78-1.86-6.58,0-4.91,5.09-9,9.8-12.37,14.18,3.06,7.51,11.02,1.18,12.67,.59,4.03-1.44,5.58,2.31,7.88,4.81s4.62,7.79,10.1,7.31c4.27-.37,6.37-4.55,6.37-4.55Z"/></g><path class="f" d="M53.29,9.78c-1.79-1.86-4.78-1.86-6.58,0-24.79,25.69-28.77,41.82-24.05,53.66,4.84,11.98,19.16,19.29,27.34,19.12,8.19,.17,22.5-7.14,27.34-19.12,4.72-11.84,.73-27.97-24.05-53.66Z"/><line class="f" x1="50" y1="92.18" x2="50" y2="33.39"/><path class="f" d="M65.4,59.32c-6.76,1.36-12.04,4.92-15.25,9.17"/><path class="f" d="M36.77,51.46c5.76,1.16,10.27,4.19,13,7.82"/><path class="f" d="M58.41,41.96c-3.66,.73-6.52,2.66-8.26,4.97"/></svg>