<?xml version="1.0" encoding="UTF-8"?><svg id="a" xmlns="http://www.w3.org/2000/svg" xmlns:xlink="http://www.w3.org/1999/xlink" viewBox="0 0 100 100"><defs><style>.c{fill:url(#b);}.d{fill:#684837;}.e{stroke:#53702a;stroke-linecap:round;stroke-linejoin:round;stroke-width:4px;}.e,.f{fill:none;}.f{stroke:#b29a39;stroke-width:1.5px;}</style><linearGradient id="b" x1="-73.61" y1="-288.35" x2="-73.61" y2="-214.18" gradientTransform="translate(123.61 296.74)" gradientUnits="userSpaceOnUse"><stop offset="0" stop-color="#a6b239"/><stop offset="1" stop-color="#88bd5a"/></linearGradient></defs><g><path class="c" d="M53.29,9.78c-1.79-1.86-4.78-1.86-6.58,0-24.79,25.69-28.77,41.82-24.05,53.66,4.84,11.98,19.16,19.29,27.34,19.12,8.19,.17,22.5-7.14,27.34-19.12,4.72-11.84,.73-27.97-24.05-53.66Z"/><path class="e" d="M53.29,9.78c-1.79-1.86-4.78-1.86-6.58,0-24.79,25.69-28.77,41.82-24.05,53.66,4.84,11.98,19.16,19.29,27.34,19.12,8.19,.17,22.5-7.14,27.34-19.12,4.72-11.84,.73-27.97-24.05-53.66Z"/><line class="e" x1="50" y1="92.18" x2="50" y2="33.39"/><path class="e" d="M65.4,59.32c-6.76,1.36-12.04,4.92-15.25,9.17"/><path class="e" d="M36.77,51.46c5.76,1.16,10.27,4.19,13,7.82"/><path class="e" d="M58.41,41.96c-3.66,.73-6.52,2.66-8.26,4.97"/></g><g><path class="f" d="M45.94,25.7c0,1.06-.9,1.92-2,1.92s-2-.86-2-1.92,.9-1.92,2-1.92,2,.86,2,1.92Zm4.05-7.35c-1.66,0-3,1.34-3,3s1.34,3,3,3,3-1.34,3-3-1.34-3-3-3Zm17.51,31.52c-1.19,0-2.15,.96-2.15,2.15s.96,2.15,2.15,2.15,2.15-.96,2.15-2.15-.96-2.15-2.15-2.15Zm-25.21,11.92c-1.24,0-2.25,1.01-2.25,2.25s1.01,2.25,2.25,2.25,2.25-1.01,2.25-2.25-1.01-2.25-2.25-2.25Zm-5.55-3.93c-.83,0-1.5,.67-1.5,1.5s.67,1.5,1.5,1.5,1.5-.67,1.5-1.5-.67-1.5-1.5-1.5Zm-2.41,6.05c-1.38,0-2.5,1.12-2.5,2.5s1.12,2.5,2.5,2.5,2.5-1.12,2.5-2.5-1.12-2.5-2.5-2.5Zm26.08-17.72c-1.1,0-2,.85-2,1.91s.9,1.91,2,1.91,2-.85,2-1.91-.9-1.91-2-1.91Zm-3.76,28.48c-.72,0-1.3,.58-1.3,1.3s.58,1.3,1.3,1.3,1.3-.58,1.3-1.3-.58-1.3-1.3-1.3Zm5.44-4.1c-1.06,0-1.92,.86-1.92,1.92s.86,1.92,1.92,1.92,1.92-.86,1.92-1.92-.86-1.92-1.92-1.92Zm6.01-2.87c-.62,0-1.13,.51-1.13,1.13s.51,1.13,1.13,1.13,1.13-.51,1.13-1.13-.51-1.13-1.13-1.13Zm-26.22,6.23c-.62,0-1.13,.51-1.13,1.13s.51,1.13,1.13,1.13,1.13-.51,1.13-1.13-.51-1.13-1.13-1.13Zm-10.65-34.18c-1.28,0-2.32,1.04-2.32,2.32s1.04,2.32,2.32,2.32,2.32-1.04,2.32-2.32-1.04-2.32-2.32-2.32Zm8.77-3.32c-.88,0-1.59,.71-1.59,1.59s.71,1.59,1.59,1.59,1.59-.71,1.59-1.59-.71-1.59-1.59-1.59Zm28.98,4.49c-.62,0-1.13,.51-1.13,1.13s.51,1.13,1.13,1.13,1.13-.51,1.13-1.13-.51-1.13-1.13-1.13Zm-12.78,28.12c-.93,0-1.68,.72-1.68,1.61s.75,1.61,1.68,1.61,1.68-.72,1.68-1.61-.75-1.61-1.68-1.61Z"/><path class="d" d="M45.94,25.7c0,1.06-.9,1.92-2,1.92s-2-.86-2-1.92,.9-1.92,2-1.92,2,.86,2,1.92Zm4.05-7.35c-1.66,0-3,1.34-3,3s1.34,3,3,3,3-1.34,3-3-1.34-3-3-3Zm17.51,31.52c-1.19,0-2.15,.96-2.15,2.15s.96,2.15,2.15,2.15,2.15-.96,2.15-2.15-.96-2.15-2.15-2.15Zm-25.21,11.92c-1.24,0-2.25,1.01-2.25,2.25s1.01,2.25,2.25,2.25,2.25-1.01,2.25-2.25-1.01-2.25-2.25-2.25Zm-5.55-3.93c-.83,0-1.5,.67-1.5,1.5s.67,1.5,1.5,1.5,1.5-.67,1.5-1.5-.67-1.5-1.5-1.5Zm-2.41,6.05c-1.38,0-2.5,1.12-2.5,2.5s1.12,2.5,2.5,2.5,2.5-1.12,2.5-2.5-1.12-2.5-2.5-2.5Zm26.08-17.72c-1.1,0-2,.85-2,1.91s.9,1.91,2,1.91,2-.85,2-1.91-.9-1.91-2-1.91Zm-3.76,28.48c-.72,0-1.3,.58-1.3,1.3s.58,1.3,1.3,1.3,1.3-.58,1.3-1.3-.58-1.3-1.3-1.3Zm5.44-4.1c-1.06,0-1.92,.86-1.92,1.92s.86,1.92,1.92,1.92,1.92-.86,1.92-1.92-.86-1.92-1.92-1.92Zm6.01-2.87c-.62,0-1.13,.51-1.13,1.13s.51,1.13,1.13,1.13,1.13-.51,1.13-1.13-.51-1.13-1.13-1.13Zm-26.22,6.23c-.62,0-1.13,.51-1.13,1.13s.51,1.13,1.13,1.13,1.13-.51,1.13-1.13-.51-1.13-1.13-1.13Zm-10.65-34.18c-1.28,0-2.32,1.04-2.32,2.32s1.04,2.32,2.32,2.32,2.32-1.04,2.32-2.32-1.04-2.32-2.32-2.32Zm8.77-3.32c-.88,0-1.59,.71-1.59,1.59s.71,1.59,1.59,1.59,1.59-.71,1.59-1.59-.71-1.59-1.59-1.59Zm28.98,4.49c-.62,0-1.13,.51-1.13,1.13s.51,1.13,1.13,1.13,1.13-.51,1.13-1.13-.51-1.13-1.13-1.13Zm-12.78,28.12c-.93,0-1.68,.72-1.68,1.61s.75,1.61,1.68,1.61,1.68-.72,1.68-1.61-.75-1.61-1.68-1.61Z"/></g></svg>