<?xml version="1.0" encoding="utf-8"?>
<!-- Generator: Adobe Adobe Illustrator 24.2.0, SVG Export Plug-In . SVG Version: 6.00 Build 0)  -->
<svg version="1.1" id="レイヤー_1" xmlns="http://www.w3.org/2000/svg" xmlns:xlink="http://www.w3.org/1999/xlink" x="0px"
	 y="0px" width="1000px" height="1000px" viewBox="0 0 1000 1000" style="enable-background:new 0 0 1000 1000;"
	 xml:space="preserve">
<g>
	<path d="M652.25,451.33c-2.49-8.7-3.31-17.16-4.25-26.38c-27.84,32.27-61.03,48.22-103.02,34.85
		c-42.51-13.54-58.61-46.72-61.9-89.7c-6.56,5.88-12.47,10.86-18.01,16.24c-10.14,9.85-21.05,18.98-32.93,26.3
		c-12.73,7.84-24.28,6.87-33.66-7.73c-9.73-15.15-13.21-32.35-15.36-50.03c-1.23-10.12-2.2-20.24-2.87-30.4
		c-0.86-13.13,0.5-26.16,1.86-39.2c1.56-14.92,4.41-29.44,10.82-43.21c6.66-14.3,18.51-22.82,32.24-28.52
		c21.75-9.03,44.63-7.59,67.58-5.78c13.56,1.07,26.17,4.44,38.07,10.57c17.54,9.06,31.24,24.67,24.04,47.33
		c-1.44,4.55-2.89,9.34-4.03,14.72c27.58-6.89,53.68-5.44,77.33,10.73c23.48,16.05,35.27,39.25,38.25,67.08
		c7.21,0.61,13.54-0.32,19.9-1.15c15.78-2.05,31.44-1.08,47.26,0.71c22.45,2.54,43.27,9.27,62.7,20.51
		c21.61,12.5,37.99,29.89,47.09,53.29c6.54,16.81,6.64,34.23,4.13,52.13c-3.81,27.14-6.52,54.45-8.41,81.82
		c-0.44,6.41-1.57,12.78-2.42,19.17c-0.57,4.24,1.03,6.73,5.03,8.8c8.06,4.18,15.86,8.93,23.5,13.86
		c4.86,3.13,6.17,10.05,3.48,14.77c-2.28,4.02-8.67,5.7-13.97,3.58c-8.9-3.55-16.73-9.1-25.05-13.71
		c-19.37-10.73-38.48-21.92-57.78-32.77c-18.39-10.34-37.45-19.61-55.2-30.94c-17.62-11.24-31.55-26.75-42.84-44.48
		c-8.06-12.67-14.12-26.26-18.83-40.46C653.79,459.63,653.23,455.69,652.25,451.33z M686.81,482.65c1.75,3.04,3.46,6.12,5.26,9.13
		c14.26,23.84,35.89,39.01,59.99,51.46c14.67,7.58,28.98,15.86,43.46,23.81c6.42,3.53,12.86,7.03,19.45,10.63
		c3.64-14.39,2.37-28.5,4.68-42.19c3.64-21.52,3.54-43.44,7.23-64.97c2.06-12-0.57-23.74-5.46-34.67
		c-10.03-22.41-28.3-36.53-50.08-45.99c-26.91-11.68-55.33-13.98-84.32-10.77c-1.98,0.22-3.4,0.69-4.57,2.57
		c-7.13,11.53-11.43,24.06-11.95,37.54C669.63,441.55,676.47,462.13,686.81,482.65z M635.89,331
		c-11.84-19.12-28.22-30.84-51.27-32.51c-16.85-1.22-31.97,3.1-45.63,12.72c-17.89,12.6-28.23,30.13-31.74,51.47
		c-2.25,13.72-0.81,27.26,4.82,40.29c4.98,11.54,12.45,21.02,22.64,28.07c12.05,8.34,25.72,13.29,40.39,11.91
		c13.45-1.26,25.98-6.09,37.36-14.1C642.54,407.69,653.9,365.27,635.89,331z M423.07,392.29c17.15-12.48,33.1-26.39,47.84-41.59
		c23.72-24.44,45.9-50.06,60.13-81.56c4.4-9.72,4.68-19.9-0.56-24.55c-10.48-9.29-23.21-14.23-36.81-15.12
		c-15.08-0.99-30.28-1.59-45.43-0.26c-10.82,0.95-21.47,3.71-28.63,11.87c-9.52,10.85-13.78,24.75-15.17,38.91
		c-1.76,17.95-3.38,35.93-1.72,54.11c1.72,18.87,3.58,37.54,11.54,55.07C416.07,393.16,418.17,394.91,423.07,392.29z"/>
	<path d="M315.82,962.32c-15.62,1.26-30.54-0.64-45.43-2.07c-18.03-1.74-36.1-2.69-54.17-3.85c-13.07-0.84-26.1-1.91-38.69-6
		c-6.15-2-12.81-1.39-18.97-3.61c-22.2-7.98-39.44-21.68-49.58-43.32c-1.6-3.42-3.64-6.5-5.39-9.78
		c-9.77-18.32-11.25-38.17-9.89-58.22c1.69-24.81,8.35-48.41,18.09-71.41c12.11-28.58,30.83-51.86,53.47-72.47
		c14.42-13.13,28.61-26.5,46.2-35.52c13.83-7.09,27.58-14.27,42.79-18.17c5.8-1.49,11.41-3.68,17.17-5.41
		c28.67-8.64,57.42-9.95,86.94-4.69c18.72,3.33,35.74,10.08,52.25,19.01c10.02,5.43,20.28,10.51,30.76,14.95
		c10.19,4.31,18.43,11.29,26.47,18.35c11.77,10.33,23.38,20.87,33.86,32.61c10.34,11.59,17.96,24.51,22.87,39.3
		c3.58,10.78,8.67,21.05,12.59,31.73c4.39,11.98,4.76,24.83,7.26,37.2c3.09,15.28,0.67,30.23-0.44,45.24
		c-0.87,11.73-6.7,22.01-12.32,32.19c-10.52,19.03-28.48,27.95-47.31,36.35c-13.37,5.96-27.15,10.13-41.19,13.91
		c-27.45,7.39-55.34,10.93-83.74,11.36C345.08,960.22,330.75,961.47,315.82,962.32z M509.61,894.27
		c6.67-7.89,11.26-17.05,13.5-26.92c4.33-19.11,2.19-38.37-0.64-57.52c-0.76-5.15-1.27-10.32-3.16-15.24
		c-4.15-10.82-8.25-21.66-12.33-32.5c-4.61-12.26-9.83-24.11-18.77-34.05c-4.99-5.54-10.08-10.94-15.57-15.97
		c-12.39-11.34-23.88-24.04-39.2-31.42c-12.67-6.11-25.54-11.9-37.85-18.67c-14.43-7.93-29.72-12.43-45.77-15.25
		c-34.63-6.07-67.35,1.98-99.45,13.57c-13.59,4.91-26.53,11.65-38.81,19.34c-5.78,3.62-11.61,7.5-16.44,13.12
		c10.74,1.37,15.3,8.6,9.74,15.41c-5.76,7.06-12.96,12.9-20.58,17.88c-5.19,3.39-10.91,0.23-12.25-5.89
		c-0.38-1.73-0.54-3.51-0.88-5.88c-8.41,7.93-15.71,15.98-22.04,24.88c-14.94,21.02-24.54,44.33-30.91,69.28
		c-4.41,17.27-4.35,34.63-3.73,52.09c0.26,7.37,2.75,14.42,5.8,21.59c1.1-1.95,1.87-3.41,2.72-4.83c3.25-5.48,12.08-6.1,14.95-0.6
		c2.99,5.72,7.09,10.66,10.14,16.24c1.79,3.26,4.16,6.64,2.74,11.1c-2.21,6.91-7.65,6.11-13.6,5.54
		c15.38,19.5,36.7,21.57,59.83,24.41c-2.97-4.22-4.89-6.85-6.69-9.55c-3.52-5.3-7.94-10.11-7.13-17.36c0.53-4.76,3.33-7.19,7.3-8.22
		c3.79-0.98,7.01,0.82,8.79,4.36c2.34,4.66,5.38,8.82,8.41,13.05c6.01,8.39,5.73,12.17-1.03,19.2c1.21,0.16,2.19,0.34,3.18,0.41
		c21.99,1.49,44.06,1.72,65.98,4.68c11.3,1.53,22.86,2.09,34.26,1.74c19.74-0.6,39.46-3.31,59.18-3.22
		c27.85,0.12,54.24-6.98,80.91-13.23c12.43-2.91,23.78-8.63,35.29-13.7c6.96-3.07,14.46-6.41,19.94-13.66
		C506.61,897.23,507.79,895.98,509.61,894.27z"/>
	<path d="M820.35,24.42c14.88,8.81,26.09,20.88,32.87,35.93c10.07,22.34,14.02,45.78,8.6,70.45c-5.95,27.08-17.17,51.01-38.19,69.56
		c-10.32,9.11-21.96,15.83-35.48,19.83c-16.24,4.82-31.92,11.52-47.98,16.98c-16.64,5.66-32.93,12.26-49.75,17.44
		c-11.65,3.59-22.89,8.49-34.37,12.64c-8.56,3.1-17.13,6.22-25.86,8.78c-5.24,1.54-9.9-0.15-12.49-5.42
		c-2.55-5.2-1.17-10.28,3.66-13.63c6.43-4.45,14.28-5.42,21.36-8.33c12.22-5.02,24.9-8.9,37.37-13.32
		c15.79-5.61,31.54-11.33,47.34-16.91c10.53-3.72,21.31-6.81,31.61-11.07c11.67-4.83,24.08-7.55,35.43-13.29
		c14.67-7.42,25.12-19.1,33.17-32.78c10.41-17.68,15.66-37.2,14.28-57.77c-1.5-22.46-8.59-42.78-27.7-56.84
		c-10.78-7.93-22.88-11.08-36.33-9.28c-23.81,3.19-39.99,17.35-52.98,36.22c-16.43,23.88-32.82,47.79-49.13,71.76
		c-15.73,23.12-31.27,46.37-47,69.48c-11.06,16.26-22.18,32.5-33.54,48.55c-4.33,6.13-10.48,7.6-14.96,4.01
		c-6.1-4.89-6.73-10.46-3.03-15.79c9.55-13.78,18.54-27.95,27.93-41.84c11-16.27,22.19-32.43,33.31-48.62
		c14.42-21.01,28.91-41.98,43.28-63.02c9.09-13.31,17.84-26.87,27.11-40.06c10.66-15.16,24.13-27.05,41.06-35.11
		c18.51-8.8,37.37-10.61,56.88-4.51C811.37,19.9,815.59,22.27,820.35,24.42z"/>
	<path d="M646.11,292.2c-1.84-7.58,0.16-11.96,6.9-14.7c17.64-7.16,35.67-13.24,53.66-19.44c12.32-4.24,24.48-8.94,36.72-13.4
		c10.11-3.68,20.14-7.64,30.41-10.82c10.82-3.36,21.05,4.52,19.89,15.47c-2.7,25.44-12.39,47.29-34.95,61.35
		c-17.8,11.09-37.26,14.57-58,10.7c-17.89-3.34-33.82-10.82-48.18-21.91C650.02,297.49,648.1,295.18,646.11,292.2z M756.43,263.76
		c-5.37,0.33-9.69,3.55-14.57,5.25c-16.4,5.72-32.8,11.44-49.2,17.18c-4.12,1.44-8.22,2.94-13.54,4.84
		c8.45,3.68,15.5,6.81,23.32,8.28c23.89,4.49,44.19-1.18,58.98-21.12c3.71-5,8.62-10.66,6.19-18.95
		C763.8,260.77,760.57,262.08,756.43,263.76z"/>
	<path d="M638.77,573.5c-2.61-7.4-6.54-13.15-12.45-17.82c-15.11-11.92-29.92-24.23-44.94-36.26c-4.53-3.63-6.36-8.22-5.19-13.67
		c2.43-11.34,5.01-22.67,7.95-33.89c1.99-7.61,7.68-10.95,14.41-9.28c5.63,1.4,8.61,6.23,7.28,12.25
		c-1.75,7.88-2.87,15.91-5.78,23.52c-1.62,4.23-1.13,7.41,3.09,10.69c14.83,11.56,29.03,23.91,44.04,35.29
		c6.68,5.06,8.33,13.65,11.82,20.82c6.13,12.62,11.51,25.61,17.25,38.43c6.07,13.55,12.26,27.06,18.26,40.64
		c1.74,3.93,4.65,7.25,4.88,11.99c0.35,7.08-1.41,11.39-6.22,12.73c-5.81,1.62-11.75-1.1-14.34-6.85
		c-10.44-23.18-20.78-46.42-31.2-69.61C644.82,586.25,641.85,580.11,638.77,573.5z"/>
	<path d="M432.28,522.72c-3.26-4.19-4.69-8.81-6.74-13.09c-3.31-6.91,1.59-12.22,4.61-17.16c14.14-23.09,28.91-45.8,43.44-68.66
		c3.82-6.01,11.24-7.94,16.7-4.32c4.5,2.99,5.51,10.17,2.06,15.61c-13.87,21.82-27.76,43.62-41.72,65.38
		c-1.98,3.09-2.47,6.04-0.72,9.34c5.9,11.13,11.78,22.26,17.61,33.42c5.43,10.4,11.04,20.72,16.1,31.3
		c2.72,5.69,0.16,12.5-4.61,14.56c-6.35,2.74-12.36,0.33-15.61-5.93c-9.52-18.33-19.16-36.6-28.71-54.91
		C433.84,526.61,433.23,524.84,432.28,522.72z"/>
	<path d="M520.02,553.74c8.34,17.37,16.43,34.33,24.54,51.29c2.14,4.48,4.25,8.98,6.51,13.4c3.16,6.2,1.9,12.55-3.19,15.38
		c-5.53,3.07-11.98,1.21-15.2-4.77c-8.92-16.6-16.69-33.77-24.75-50.79c-5.13-10.85-9.39-22.37-15.76-32.3
		c-8.07-12.57-4.16-21.77,2.92-32.24c8.23-12.15,15.53-24.93,23.24-37.43c2.07-3.34,4.02-6.78,6.34-9.93
		c3.19-4.32,10.61-5.21,15.33-2.12c4.24,2.77,5.75,9.79,2.83,14.54c-10.39,16.93-20.81,33.85-31.47,50.61
		c-1.55,2.43-1.17,3.91-0.06,6.12C514.29,541.36,516.98,547.38,520.02,553.74z"/>
	<path d="M436.74,73.18c5.45,1.39,7.47,4.66,7.46,9.71c-0.06,37.43,0,74.87-0.06,112.3c-0.01,6.4-3.42,9.78-9.48,9.96
		c-5.87,0.17-10.63-3.78-11.26-9.4c-0.14-1.23-0.08-2.49-0.08-3.74c-0.01-35.56-0.02-71.13,0-106.69
		C423.34,75.83,426.5,72.9,436.74,73.18z"/>
	<path d="M501.26,181.2c-3.82,5.44-7.04,10.79-11,15.52c-4.33,5.18-9.94,5.76-15,2.41c-3.94-2.61-5.71-8.62-2.65-13.88
		c5.28-9.09,11.31-17.76,17.24-26.45c9.46-13.84,19.07-27.58,28.67-41.32c3.67-5.25,7.31-10.53,11.25-15.57
		c3.19-4.07,10.31-4.98,14.07-2.18c5.51,4.1,6.95,9.44,3.43,14.6C532.1,136.56,516.8,158.68,501.26,181.2z"/>
	<path d="M505.08,898.72c-11.48,0.69-14.7-3.16-11.76-13.98c1.46-5.35,3.19-10.73,5.66-15.67c1.83-3.66,5.48-5.87,9.93-4.14
		c5.55,2.15,6.84,6.87,6.26,12.18c-0.65,6.04-3.16,11.5-6.11,17.21C507.79,895.98,506.61,897.23,505.08,898.72z"/>
	<path d="M482.68,322.57c-5.55,5.31-10.99,9.59-18.05,12.27c-13.8,5.24-25.98,2.41-37.65-5.23c-12.17-7.97-19.02-26.05-15.9-40.34
		c5.72-26.2,29.8-38.63,54.35-30.12c17.86,6.19,27.76,23.53,25.36,43.07C489.89,309.6,487.26,316.21,482.68,322.57z M456.99,279.32
		c-19.14-1.44-28.47,8.58-23.02,24.94c3.63,10.91,19.25,15.5,29.18,6.65C473.01,302.13,471.21,285.48,456.99,279.32z"/>
	<path d="M172.28,847.99c0.68-5.65,1.94-9.88,8.55-9.7c6.57,0.17,8.76,4.27,9.04,9.65c0.5,9.85,2.69,19.66-0.39,29.63
		c-1.85,5.99-5.53,7.06-10.8,6.68c-5.75-0.42-6.43-4.93-6.57-8.93C171.79,866.41,172.18,857.48,172.28,847.99z"/>
	<path d="M466.03,870.27c-6.93,0.27-9.87-3.96-11.28-9.2c-2.51-9.33-1.51-18.96-1.19-28.45c0.15-4.42,4.23-6.09,7.85-6.76
		c3.82-0.72,7.36,1.39,8.29,5.07c2.66,10.42,3.92,21.14,4.1,31.88C473.86,866.8,470.68,869.41,466.03,870.27z"/>
	<path d="M302.82,665.96c0.86-6.27,4.58-7.79,9.8-7.93c5.5-0.15,8.02,3.01,8.99,7.59c1.65,7.77,1.53,15.73,0.77,23.58
		c-0.64,6.59-5.06,10.24-10.62,9.88c-5.49-0.35-8.24-3.82-8.52-10.84C302.95,680.99,301.78,673.76,302.82,665.96z"/>
	<path d="M492.56,767.99c-4.17,1.79-7.18,0.81-10.04-1.97c-6.06-5.9-12.21-11.72-16.67-18.99c-3.54-5.77-2.81-10.73,1.67-13.81
		c4.64-3.19,8.98-2.05,13.39,3.23c4.47,5.35,9.49,10.26,13.6,15.85C499.72,759.39,499.23,761.55,492.56,767.99z"/>
	<path d="M319.83,898.51c-7.98,5.53-15.25,2.72-16.1-6.3c-0.79-8.47-0.51-17.05-0.51-25.58c0-4.36,2.7-7.08,6.69-7.92
		c4.09-0.86,7.74,0.97,9.15,4.86C323.14,874.9,325.34,886.43,319.83,898.51z"/>
	<path d="M320.83,714.8c0.72,7.52,1.55,14.56,1.64,21.6c0.06,4.83-2.14,8.9-6.98,10.85c-3.72,1.5-6.92,0.31-9.75-2.24
		c-0.46-0.42-1-0.79-1.36-1.28c-2.94-4.06-3.4-28.89-0.64-32.91C307.7,705.04,317.05,706.98,320.83,714.8z"/>
	<path d="M435.25,921.12c-1.03-2.89-1.21-5.42,0.43-7.56c5.68-7.37,11.17-14.92,17.83-21.45c3.81-3.73,7.95-3.91,12.11-0.08
		c4.1,3.78,4.42,7.72,1.05,12.05c-4.44,5.72-8.68,11.62-13.4,17.11C447.48,927.93,441.27,927.88,435.25,921.12z"/>
	<path d="M509.79,848.3c-5.15-4.12-7.11-9.12-6.46-15.15c0.71-6.63-1.56-13.13-0.45-19.85c0.83-5,4.13-6.88,8.1-6.93
		c3.9-0.05,7.4,1.51,8.48,6.49c1.72,7.95,3.21,15.91,2.95,24.02C522.12,845.48,517.72,849.36,509.79,848.3z"/>
	<path d="M150.55,748c2.66-2.95,5.45-5.03,8.5-6.81c4.1-2.39,7.55-1.29,10.61,1.87c2.92,3.02,3.46,6.44,1.52,10.22
		c-2.05,3.98-5.51,6.72-8.9,9.31c-2.86,2.18-5.26,4.62-7.37,7.45c-3.31,4.44-9.97,5.66-14.09,2.59c-3.99-2.96-4.62-10.31-0.85-14.52
		C143.1,754.59,146.74,751.5,150.55,748z"/>
	<path d="M259.94,695.21c-4.51,2.12-8.38,0.35-10.48-2.43c-2.71-3.59-2.09-8.5,0.03-12.41c3.68-6.77,8.78-12.5,14.76-17.41
		c3.84-3.16,7.79-4.77,12.31-1.21c4.3,3.38,4.22,9.17,1.97,11.77C272.37,680.59,268.18,689.38,259.94,695.21z"/>
	<path d="M457.2,705.41c6.43,8.8,6.87,13.21,2.02,17.34c-4.26,3.62-10.64,1.46-16.82-5.52c-3.71-4.18-7.87-7.99-11.36-12.34
		c-3.89-4.84-3.26-8.64,0.84-12.58c4.5-4.32,8.54-3.25,12.52,0.59C448.59,696.94,452.73,701.03,457.2,705.41z"/>
	<path d="M132.37,860.98c-7.7,5.7-13.85,3.84-15.61-4.76c-1.91-9.35-0.1-18.69,2.25-27.73c1-3.84,4.78-5.33,9.03-5.18
		c4.46,0.15,6.95,2.99,7.01,6.55C135.23,840.14,136.46,850.58,132.37,860.98z"/>
	<path d="M323.22,822.16c0.34,5.3,0.87,10.06,0.81,14.81c-0.06,5.29-4.87,10.73-9.36,10.61c-5.67-0.15-8.71-3.89-9.46-9.02
		c-0.89-6.13-1.22-12.37-1.4-18.57c-0.2-6.96,2.69-11.04,7.67-11.63c6.16-0.72,9.79,2.33,11.27,9.54
		C323.01,819.11,323.03,820.37,323.22,822.16z"/>
	<path d="M222.21,716.16c3.26-5.6,6.68-10.48,10.72-14.99c3.45-3.85,7.43-3.89,11.06-1.36c3.96,2.76,6.38,6.84,3.29,11.81
		c-3.82,6.12-7.79,12.16-11.87,18.11c-3.21,4.68-9.2,6.02-13.34,3.28c-3.91-2.59-4.94-8.51-2.26-13.42
		C220.39,718.51,221.24,717.57,222.21,716.16z"/>
	<path d="M362.34,663.81c3.22,3.78,7.24,6.23,9.52,10.31c2.31,4.14,2.33,7.69-1.41,11.18c-3.64,3.39-7.42,3.82-11.25,1.01
		c-5.81-4.27-10.78-9.57-16.95-13.5c-3.43-2.19-5.02-6.21-2.91-10.49c2.22-4.5,6.09-5.88,10.9-5.46
		C355.22,657.3,358.06,661.32,362.34,663.81z"/>
	<path d="M383.17,715.56c-3.4-2.95-5.69-6.09-6.27-10.22c-0.5-3.59,0.56-6.65,3.7-8.63c2.8-1.77,5.83-2.3,8.76-0.21
		c7.81,5.57,13.78,12.87,18.75,20.93c2.49,4.04-0.35,7.13-3.3,9.63c-3.51,2.98-7.39,2.64-10.94,0.21
		C389.54,724.33,386.76,719.85,383.17,715.56z"/>
	<path d="M322.53,777.69c0.09,3.48,0.32,6.39,0.22,9.29c-0.19,5.74-3.85,10.38-8.65,10.48c-5.25,0.12-8.66-3.1-9.85-7.89
		c-1.91-7.72-1.25-15.69-0.45-23.48c0.38-3.65,3.92-5.78,7.59-6.39c3.61-0.61,6.52,0.96,8.32,4.18
		C322.01,767.98,322.64,772.48,322.53,777.69z"/>
	<path d="M194.05,760.93c3.39-5.54,5.22-11.37,9.13-16.09c5.72-6.9,12.67-7.57,17.25-1.49c2.12,2.82,2.77,6.19,0.72,8.69
		c-4.12,5.03-6.85,10.76-9.95,16.35c-2.39,4.32-6.18,7.4-11.27,5.16C194.98,771.38,192.18,767.29,194.05,760.93z"/>
	<path d="M450.24,805.08c-5.06-4.7-8.97-9.73-12.25-15.26c-3.97-6.69-3.56-11.15,1.62-14.51c5.52-3.58,9.95-0.18,12.96,3.64
		c3.44,4.36,7.26,8.44,10.44,12.98c2.98,4.26,3.72,9.1-0.15,13.13C459.19,808.87,454.79,808.91,450.24,805.08z"/>
	<path d="M195.29,807.69c-0.55,1.62-0.83,2.85-1.34,3.97c-2.24,4.85-8,7.63-12.23,5.99c-4.55-1.77-7-7.98-4.97-13.15
		c2.11-5.38,4.33-10.73,6.71-16c2.45-5.44,8.06-7.52,13.46-5.22c4.74,2.01,5.89,6.54,3.28,12.52
		C198.54,799.58,197.03,803.43,195.29,807.69z"/>
	<path d="M418.11,736.69c9.35,3.7,14.5,11.48,20.02,18.49c2.65,3.37,1.9,8.32-2.27,11.61c-4.03,3.18-8.03,3.41-11.68-0.25
		c-4.52-4.53-8.69-9.41-13.12-14.03c-3.3-3.44-3.63-7.68-2.19-11.59C410.18,737.35,413.93,736.41,418.11,736.69z"/>
	<path d="M316.02,938.12c-11.15-3.67-15.63-18.83-8.64-27.72c3.33-4.24,10.9-4.12,14.22,0.22
		C326.93,917.57,323.92,933.62,316.02,938.12z"/>
</g>
</svg>
